<?xml version="1.0" encoding="UTF-8"?>
<svg width="165px" height="160px" viewBox="0 0 165 160" version="1.1" xmlns="http://www.w3.org/2000/svg" xmlns:xlink="http://www.w3.org/1999/xlink">
    <!-- Generator: Sketch 49.2 (51160) - http://www.bohemiancoding.com/sketch -->
    <title>icon</title>
    <desc>Created with Sketch.</desc>
    <defs></defs>
    <g id="projects" stroke="none" stroke-width="1" fill="none" fill-rule="evenodd">
        <g id="project-gts@2x" transform="translate(-594.000000, -11661.000000)">
            <g id="devel" transform="translate(0.000000, 10789.000000)">
                <g id="copy" transform="translate(400.000000, 874.000000)">
                    <g id="icon" transform="translate(276.709091, 78.500000) rotate(90.000000) translate(-276.709091, -78.500000) translate(198.209091, -2.500000)">
                        <path d="M145.713538,77.49967 L156.266604,59.2768315 L145.713538,53.202552 C146.804021,48.2505412 146.888446,43.2774879 145.706503,37.9747681 L156.266604,31.9075028 L145.713538,13.6846643 L135.554453,19.7729722 C131.811632,16.3430384 126.302932,13.6846643 122.785243,12.1345306 L122.785243,0 L101.679111,0 L101.679111,12.1345306 C94.6437337,13.6916785 91.8084766,16.3430384 88.0656559,19.7799864 L77.2663516,13.6846643 L66.6147903,31.9075028 L77.1115733,37.9747681 C76.0281252,42.8987222 75.9085238,47.8717755 77.0904672,53.202552 L66.516295,59.2768315 L77.0623257,77.49967 L88.0586205,71.4183763 C91.8084766,74.8412959 94.6437337,77.49967 101.679111,79.0568178 L101.679111,91.1843343 L122.785243,91.1843343 L122.785243,79.0568178 C126.302932,77.49967 131.811632,74.8412959 135.568524,71.4183763 L145.713538,77.49967 Z" id="Stroke-1" stroke="#7EBA32" stroke-width="2.5" stroke-linejoin="round"></path>
                        <path d="M121.775986,45.9109935 C121.775986,51.542742 117.196595,56.1134365 111.54271,56.1134365 C105.899058,56.1134365 101.309434,51.542742 101.309434,45.9109935 C101.309434,40.279245 105.899058,35.7085505 111.54271,35.7085505 C117.196595,35.7085505 121.775986,40.279245 121.775986,45.9109935 Z" id="Stroke-3" fill="#7EBA32" fill-rule="nonzero"></path>
                        <path d="M79.1972429,147.896527 L89.750309,129.673688 L79.1972429,123.599409 C80.2877264,118.647398 80.3721509,113.674345 79.1902075,108.371625 L89.750309,102.304359 L79.1972429,84.081521 L69.038158,90.1698289 C65.2883019,86.7398951 59.7866368,84.081521 56.2689481,82.5313873 L56.2689481,70.3968567 L35.162816,70.3968567 L35.162816,82.5313873 C28.1274387,84.0885352 25.2921816,86.7398951 21.5493608,90.176843 L10.7500566,84.081521 L0.098495283,102.304359 L10.5952783,108.371625 C9.51183019,113.295579 9.39222877,118.268632 10.5741722,123.599409 L0,129.673688 L10.5460307,147.896527 L21.5423255,141.815233 C25.2921816,145.238153 28.1274387,147.896527 35.162816,149.453675 L35.162816,161.581191 L56.2689481,161.581191 L56.2689481,149.453675 C59.7866368,147.896527 65.2883019,145.238153 69.0522288,141.815233 L79.1972429,147.896527 Z" id="Stroke-5" stroke="#7EBA32" stroke-width="2.5" stroke-linejoin="round"></path>
                        <path d="M55.2596913,116.30785 C55.2596913,121.939599 50.6803002,126.510293 45.0264151,126.510293 C39.3827633,126.510293 34.7931389,121.939599 34.7931389,116.30785 C34.7931389,110.676102 39.3827633,106.105407 45.0264151,106.105407 C50.6803002,106.105407 55.2596913,110.676102 55.2596913,116.30785 Z" id="Stroke-7" fill="#7EBA32" fill-rule="nonzero"></path>
                    </g>
                </g>
            </g>
        </g>
    </g>
</svg>