<?xml version="1.0" encoding="utf-8"?>
<!-- Generator: Adobe Illustrator 22.0.1, SVG Export Plug-In . SVG Version: 6.00 Build 0)  -->
<svg version="1.1" id="Layer_1" xmlns="http://www.w3.org/2000/svg" xmlns:xlink="http://www.w3.org/1999/xlink" x="0px" y="0px"
	 width="368px" height="362px" viewBox="0 0 368 362" enable-background="new 0 0 368 362" xml:space="preserve">
<title>Oval</title>
<desc>Created with Sketch.</desc>
<circle fill="#FFFFFF" cx="192" cy="186" r="154"/>
<g id="Desktop">
	<g id="LOGO" transform="translate(-706.000000, -6304.000000)">
		<g id="final" transform="translate(201.000000, 5862.000000)">
			<g id="badge" transform="translate(87.000000, 442.000000)">
				<g id="Group-18" transform="translate(418.000000, 0.000000)">
					<g id="b">
						<path id="Oval" fill="#D6372E" d="M184,362c101.6,0,184-81,184-181S285.6,0,184,0S0,81,0,181S82.4,362,184,362z M94.2,215.5
							L120.8,55L160,99.5c9.3,9.6,23,17,42.5,17.3h18.8c1.5-0.1,3-0.1,4.4-0.1c53.8,0,73.1,26.3,62.4,91.1
							c-8.7,52.7-43,86.7-89.6,88.2l0,0c-2.4,0-4.9,0-7.6,0h-31.7C101.2,296,88.7,257.8,94.2,215.5z M185.7,245.2
							c19.3,0,34.5-15.8,38.3-39.1s-6.2-39.1-25.6-39.1c-18.7,0-34.2,15.8-38,39.1C156.6,229.3,167,245.2,185.7,245.2z"/>
					</g>
				</g>
			</g>
		</g>
	</g>
</g>
</svg>
