<?xml version="1.0" encoding="utf-8"?>
<!-- Generator: Adobe Illustrator 22.1.0, SVG Export Plug-In . SVG Version: 6.00 Build 0)  -->
<svg version="1.1" id="Layer_1" xmlns="http://www.w3.org/2000/svg" xmlns:xlink="http://www.w3.org/1999/xlink" x="0px" y="0px"
	 viewBox="0 0 29 40.5" style="enable-background:new 0 0 29 40.5;" xml:space="preserve">
<style type="text/css">
	.st0{fill:#253069;stroke:#253069;stroke-width:0.5;stroke-miterlimit:10;}
</style>
<title>Fill 1</title>
<desc>Created with Sketch.</desc>
<g id="Desktop">
	<g id="studio-update_x40_2x" transform="translate(-424.000000, -7584.000000)">
		<g id="swipe" transform="translate(348.000000, 7584.000000)">
			<g id="Group-14" transform="translate(76.000000, 0.000000)">
				<path id="Fill-1" class="st0" d="M22.3,19.6v3.2h-2v-5.3c0-0.7-0.6-1.3-1.3-1.3c-0.7,0-1.3,0.6-1.3,1.3v4.5h-2V4
					c0-0.7-0.6-1.3-1.3-1.3S13.3,3.3,13.3,4v3c0,0,0,0,0,0v15.1h-2v-3.8l0-11.3c0-0.7-0.6-1.2-1.3-1.2C9.3,5.8,8.8,6.3,8.8,7v20.4
					h-2v-5.1c-0.5,0.1-0.9,0.2-1.3,0.5c-0.5,0.4-1.1,2.1-1.9,5.1c-0.4,2.7,1.5,5.4,3.1,7.5c1.2,1.6,2.1,2.9,2.1,4.1h-2
					c0-0.6-0.9-1.8-1.7-2.9c-1.7-2.3-4-5.5-3.5-9.1l0-0.1c0.8-3.1,1.6-5.3,2.6-6.2c0.7-0.6,1.5-0.9,2.5-1V7c0-1.8,1.5-3.3,3.3-3.3
					c0.4,0,0.9,0.1,1.3,0.3v0c0-1.8,1.5-3.3,3.3-3.3s3.3,1.5,3.3,3.3v10.6c0.4-0.2,0.8-0.3,1.3-0.3c1.8,0,3.2,1.4,3.3,3.1
					c0.4-0.1,0.8-0.2,1.3-0.1c1.5,0.1,2.5,1.2,2.9,3.1c1.5,7.2-0.4,13.5-1.4,16.9c-0.3,0.9-0.5,1.8-0.5,2.1h-2
					c0-0.6,0.2-1.4,0.6-2.7c1-3.2,2.7-9.2,1.4-15.9c-0.3-1.4-0.8-1.5-1.1-1.5C23,19.3,22.6,19.5,22.3,19.6z"/>
			</g>
		</g>
	</g>
</g>
</svg>
