<?xml version="1.0" encoding="utf-8"?>
<!-- Generator: Adobe Illustrator 22.0.1, SVG Export Plug-In . SVG Version: 6.00 Build 0)  -->
<svg version="1.1" id="Layer_1" xmlns="http://www.w3.org/2000/svg" xmlns:xlink="http://www.w3.org/1999/xlink" x="0px" y="0px"
	 width="28px" height="22px" viewBox="0 0 28 22" style="enable-background:new 0 0 28 22;" xml:space="preserve">
<style type="text/css">
	.st0{enable-background:new    ;}
	.st1{fill:#253069;}
</style>
<title></title>
<desc>Created with Sketch.</desc>
<g id="studio-big-letter-light_x40_2x" transform="translate(-496.000000, -7331.000000)">
	<g id="footer" transform="translate(0.000000, 7182.000000)">
		<g id="social" transform="translate(330.000000, 120.000000)">
			<g id="icon" transform="translate(140.000000, 0.000000)">
				<g class="st0">
					<path class="st1" d="M53.2,32.1c-0.7,1.1-1.7,2-2.7,2.8c0,0.2,0,0.4,0,0.7c0,1.5-0.2,2.9-0.6,4.3s-1.1,2.8-1.9,4.2
						s-1.9,2.5-3.1,3.5s-2.6,1.8-4.3,2.4C38.8,50.7,37,51,35.1,51c-3,0-5.8-0.8-8.3-2.4c0.4,0,0.8,0.1,1.3,0.1
						c2.5,0,4.7-0.8,6.7-2.3c-1.2,0-2.2-0.4-3.1-1.1c-0.9-0.7-1.6-1.6-1.9-2.7c0.4,0.1,0.7,0.1,1,0.1c0.5,0,1-0.1,1.4-0.2
						c-1.2-0.3-2.3-0.9-3.1-1.9c-0.8-1-1.2-2.1-1.2-3.4v-0.1c0.8,0.4,1.6,0.7,2.4,0.7c-0.7-0.5-1.3-1.1-1.8-1.9
						c-0.4-0.8-0.7-1.7-0.7-2.6c0-1,0.2-1.9,0.7-2.7c1.4,1.7,3,3,4.9,4c1.9,1,4,1.6,6.2,1.7c-0.1-0.4-0.1-0.8-0.1-1.2
						c0-1.5,0.5-2.8,1.6-3.8s2.3-1.6,3.8-1.6c1.6,0,2.9,0.6,4,1.7c1.2-0.2,2.4-0.7,3.4-1.3c-0.4,1.3-1.2,2.3-2.4,3
						C51.1,32.8,52.2,32.6,53.2,32.1z"/>
				</g>
			</g>
		</g>
	</g>
</g>
</svg>
