<?xml version="1.0" encoding="utf-8"?>
<!-- Generator: Adobe Illustrator 22.0.1, SVG Export Plug-In . SVG Version: 6.00 Build 0)  -->
<svg version="1.1" id="Layer_1" xmlns="http://www.w3.org/2000/svg" xmlns:xlink="http://www.w3.org/1999/xlink" x="0px" y="0px"
	 width="35px" height="23px" viewBox="0 0 35 23" style="enable-background:new 0 0 35 23;" xml:space="preserve">
<style type="text/css">
	.st0{enable-background:new    ;}
	.st1{fill:#253069;}
</style>
<title></title>
<desc>Created with Sketch.</desc>
<g id="studio-big-letter-light_x40_2x" transform="translate(-1052.000000, -7331.000000)">
	<g id="footer" transform="translate(0.000000, 7182.000000)">
		<g id="social" transform="translate(330.000000, 120.000000)">
			<g id="icon-copy-4" transform="translate(700.000000, 0.000000)">
				<g class="st0">
					<path class="st1" d="M22.9,29.5h9.9c1,0,1.8,0.1,2.6,0.2c0.8,0.2,1.5,0.4,2.1,0.8s1.2,0.9,1.5,1.6s0.5,1.6,0.5,2.6
						c0,2-1,3.5-2.9,4.4c1.3,0.4,2.2,1,2.9,1.9c0.6,0.9,1,2.1,1,3.4c0,0.8-0.1,1.6-0.4,2.3c-0.3,0.7-0.6,1.3-1.1,1.7
						c-0.5,0.5-1,0.9-1.6,1.2c-0.6,0.3-1.3,0.6-2,0.7c-0.7,0.1-1.5,0.2-2.2,0.2H22.9V29.5z M27.5,38.1h4.7c0.9,0,1.6-0.2,2.1-0.6
						c0.5-0.4,0.8-1,0.8-1.9c0-1.6-1.1-2.4-3.2-2.4h-4.4V38.1z M27.5,47h5c2.3,0,3.4-0.9,3.4-2.8c0-2-1.1-3-3.3-3h-5.1V47z
						 M49.8,47.9c0.7,0,1.4-0.2,2-0.5c0.7-0.4,1.1-0.8,1.3-1.5h3.7c-1.1,3.4-3.5,5.1-7.1,5.1c-2.4,0-4.3-0.7-5.7-2.2
						c-1.4-1.5-2.1-3.4-2.1-5.8c0-2.3,0.7-4.2,2.2-5.8c1.5-1.5,3.3-2.3,5.6-2.3c1.5,0,2.9,0.4,4,1.1c1.1,0.8,2,1.8,2.6,3
						c0.6,1.2,0.8,2.6,0.8,4.2c0,0.2,0,0.5,0,0.8h-11c0,1.2,0.3,2.2,1,2.9C47.7,47.5,48.6,47.9,49.8,47.9z M53.8,31h-8.6V33h8.6V31z
						 M49.6,38.1c-1,0-1.8,0.3-2.4,0.9s-1,1.4-1,2.4h6.8C52.7,39.2,51.6,38.1,49.6,38.1z"/>
				</g>
			</g>
		</g>
	</g>
</g>
</svg>
