<?xml version="1.0" encoding="utf-8"?>
<!-- Generator: Adobe Illustrator 22.0.1, SVG Export Plug-In . SVG Version: 6.00 Build 0)  -->
<svg version="1.1" id="Layer_1" xmlns="http://www.w3.org/2000/svg" xmlns:xlink="http://www.w3.org/1999/xlink" x="0px" y="0px"
	 width="26px" height="27px" viewBox="0 0 26 27" style="enable-background:new 0 0 26 27;" xml:space="preserve">
<style type="text/css">
	.st0{enable-background:new    ;}
	.st1{fill:#253069;}
</style>
<title></title>
<desc>Created with Sketch.</desc>
<g id="studio-big-letter-light_x40_2x" transform="translate(-917.000000, -7329.000000)">
	<g id="footer" transform="translate(0.000000, 7182.000000)">
		<g id="social" transform="translate(330.000000, 120.000000)">
			<g id="icon-copy-3" transform="translate(560.000000, 0.000000)">
				<g class="st0">
					<path class="st1" d="M51.1,33.8c1.1,2,1.7,4.1,1.7,6.5c0,2.3-0.6,4.5-1.7,6.5s-2.7,3.5-4.7,4.7c-2,1.1-4.1,1.7-6.5,1.7
						c-2.3,0-4.5-0.6-6.5-1.7s-3.5-2.7-4.7-4.7s-1.7-4.1-1.7-6.5c0-2.3,0.6-4.5,1.7-6.5s2.7-3.5,4.7-4.7s4.1-1.7,6.5-1.7
						c2.3,0,4.5,0.6,6.5,1.7C48.4,30.3,50,31.9,51.1,33.8z M41.2,40.2c-0.2-0.5-0.5-1.2-0.9-1.9c-3.5,1-7.2,1.6-11.3,1.6
						c0,0.1,0,0.2,0,0.4c0,1.4,0.2,2.7,0.7,4c0.5,1.3,1.2,2.4,2.1,3.4c0.6-1,1.2-1.9,2.1-2.8s1.6-1.6,2.4-2.1s1.5-1,2.2-1.4
						c0.7-0.4,1.2-0.6,1.7-0.8l0.6-0.2c0,0,0.1,0,0.2-0.1C41.1,40.3,41.1,40.3,41.2,40.2z M39.4,36.7c-1.3-2.4-2.7-4.5-4.1-6.3
						c-1.5,0.7-2.8,1.8-3.9,3.1c-1.1,1.4-1.8,2.9-2.1,4.6C32.6,38,36,37.6,39.4,36.7z M44.3,50.4c-0.5-2.7-1.3-5.5-2.3-8.3h0l0,0
						c-0.2,0.1-0.4,0.2-0.7,0.3c-0.3,0.1-0.9,0.4-1.7,0.8s-1.6,0.9-2.3,1.4c-0.7,0.5-1.4,1.1-2.2,1.9c-0.8,0.8-1.3,1.6-1.7,2.5
						L33,48.8c2.1,1.7,4.4,2.5,7,2.5C41.5,51.3,42.9,51,44.3,50.4z M37.4,29.6C37.4,29.6,37.3,29.6,37.4,29.6
						C37.3,29.6,37.4,29.6,37.4,29.6z M47.2,32c-2.1-1.8-4.5-2.7-7.2-2.7c-0.8,0-1.7,0.1-2.6,0.3c1.5,1.9,2.8,4,4.1,6.4
						c0.8-0.3,1.5-0.6,2.2-1c0.7-0.4,1.2-0.7,1.6-1c0.4-0.3,0.8-0.6,1.1-1c0.3-0.3,0.5-0.6,0.6-0.7C47.1,32.2,47.2,32.1,47.2,32z
						 M51,40.2c0-2.6-0.9-4.9-2.5-6.9l0,0c-0.1,0.1-0.2,0.3-0.3,0.4c-0.1,0.1-0.4,0.4-0.7,0.7s-0.8,0.7-1.2,1
						c-0.4,0.3-1,0.7-1.7,1.1c-0.7,0.4-1.4,0.8-2.2,1.1c0.3,0.6,0.5,1.1,0.7,1.6c0,0.1,0.1,0.2,0.1,0.3c0,0.1,0.1,0.2,0.1,0.3
						c0.4-0.1,0.8-0.1,1.2-0.1c0.4,0,0.8,0,1.2,0c0.4,0,0.8,0,1.2,0c0.4,0,0.7,0,1.1,0.1c0.3,0,0.6,0.1,0.9,0.1s0.6,0.1,0.8,0.1
						s0.4,0.1,0.6,0.1c0.2,0,0.3,0.1,0.4,0.1L51,40.2z M50.8,42c-2.3-0.7-4.6-0.8-6.8-0.5c1,2.7,1.7,5.3,2.1,7.9
						c1.2-0.8,2.3-1.9,3.1-3.2C50.1,44.9,50.6,43.5,50.8,42z"/>
				</g>
			</g>
		</g>
	</g>
</g>
</svg>
