<?xml version="1.0" encoding="utf-8"?>
<!-- Generator: Adobe Illustrator 22.1.0, SVG Export Plug-In . SVG Version: 6.00 Build 0)  -->
<svg version="1.1" id="Layer_1" xmlns="http://www.w3.org/2000/svg" xmlns:xlink="http://www.w3.org/1999/xlink" x="0px" y="0px"
	 viewBox="0 0 26 27" style="enable-background:new 0 0 26 27;" xml:space="preserve">
<style type="text/css">
	.st0{fill:#FFFFFF;}
</style>
<title></title>
<desc>Created with Sketch.</desc>
<g>
	<path class="st0" d="M15.9,9c-0.1,0-0.2,0-0.3,0h-1.3c-1.4,0-2.3-0.6-3-1.2L8.5,4.5L6.6,16c-0.4,3,0.5,5.8,4.6,5.8h2.2
		c0.2,0,0.4,0,0.5,0v0c3.3-0.1,5.7-2.5,6.3-6.3C21,10.8,19.7,9,15.9,9z M15.8,15.3c-0.3,1.7-1.3,2.8-2.7,2.8c-1.3,0-2-1.1-1.8-2.8
		c0.3-1.7,1.4-2.8,2.7-2.8C15.3,12.6,16,13.7,15.8,15.3z"/>
</g>
</svg>
