<?xml version="1.0" encoding="utf-8"?>
<!-- Generator: Adobe Illustrator 22.0.1, SVG Export Plug-In . SVG Version: 6.00 Build 0)  -->
<svg version="1.1" id="Layer_1" xmlns="http://www.w3.org/2000/svg" xmlns:xlink="http://www.w3.org/1999/xlink" x="0px" y="0px"
	 width="26px" height="27px" viewBox="0 0 26 27" style="enable-background:new 0 0 26 27;" xml:space="preserve">
<style type="text/css">
	.st0{enable-background:new    ;}
	.st1{fill:#253069;}
</style>
<title></title>
<desc>Created with Sketch.</desc>
<g id="studio-big-letter-light_x40_2x" transform="translate(-777.000000, -7329.000000)">
	<g id="footer" transform="translate(0.000000, 7182.000000)">
		<g id="social" transform="translate(330.000000, 120.000000)">
			<g id="icon-copy-2" transform="translate(420.000000, 0.000000)">
				<g class="st0">
					<path class="st1" d="M52.9,40.3c0,2.6,0,4.3-0.1,5.3c-0.1,2.3-0.8,4.1-2.1,5.4s-3.1,2-5.4,2.1c-1,0.1-2.8,0.1-5.3,0.1
						s-4.3,0-5.3-0.1c-2.3-0.1-4.1-0.8-5.4-2.1s-2-3.1-2.1-5.4c-0.1-1-0.1-2.8-0.1-5.3s0-4.3,0.1-5.3c0.1-2.3,0.8-4.1,2.1-5.4
						s3.1-2,5.4-2.1c1-0.1,2.8-0.1,5.3-0.1s4.3,0,5.3,0.1c2.3,0.1,4.1,0.8,5.4,2.1s2,3.1,2.1,5.4C52.8,36,52.9,37.7,52.9,40.3z
						 M41.3,29.7c-0.8,0-1.2,0-1.3,0s-0.5,0-1.3,0c-0.8,0-1.4,0-1.8,0c-0.4,0-0.9,0-1.6,0c-0.7,0-1.2,0.1-1.7,0.2
						c-0.5,0.1-0.9,0.2-1.2,0.3c-0.6,0.2-1,0.5-1.5,1c-0.4,0.4-0.7,0.9-1,1.5c-0.1,0.3-0.2,0.7-0.3,1.2c-0.1,0.5-0.1,1-0.2,1.7
						c0,0.7,0,1.2-0.1,1.6c0,0.4,0,1,0,1.8c0,0.8,0,1.2,0,1.3s0,0.5,0,1.3s0,1.4,0,1.8c0,0.4,0,0.9,0.1,1.6s0.1,1.2,0.2,1.7
						c0.1,0.5,0.2,0.9,0.3,1.2c0.2,0.6,0.5,1,1,1.5c0.4,0.4,0.9,0.7,1.5,1c0.3,0.1,0.7,0.2,1.2,0.3c0.5,0.1,1,0.1,1.7,0.2
						c0.7,0,1.2,0,1.6,0c0.4,0,1,0,1.8,0c0.8,0,1.2,0,1.3,0s0.5,0,1.3,0c0.8,0,1.4,0,1.8,0c0.4,0,0.9,0,1.6,0c0.7,0,1.2-0.1,1.7-0.2
						c0.5-0.1,0.9-0.2,1.2-0.3c0.6-0.2,1-0.5,1.5-1s0.7-0.9,1-1.5c0.1-0.3,0.2-0.7,0.3-1.2c0.1-0.5,0.1-1,0.2-1.7
						c0-0.7,0-1.2,0.1-1.6c0-0.4,0-1,0-1.8c0-0.8,0-1.2,0-1.3s0-0.5,0-1.3c0-0.8,0-1.4,0-1.8c0-0.4,0-0.9-0.1-1.6
						c0-0.7-0.1-1.2-0.2-1.7c-0.1-0.5-0.2-0.9-0.3-1.2c-0.2-0.6-0.5-1-1-1.5c-0.4-0.4-0.9-0.7-1.5-1c-0.3-0.1-0.7-0.2-1.2-0.3
						s-1-0.1-1.7-0.2c-0.7,0-1.2,0-1.6,0S42.1,29.7,41.3,29.7z M44.7,35.6c1.3,1.3,1.9,2.8,1.9,4.7c0,1.8-0.6,3.4-1.9,4.7
						c-1.3,1.3-2.8,1.9-4.7,1.9c-1.8,0-3.4-0.6-4.7-1.9c-1.3-1.3-1.9-2.8-1.9-4.7c0-1.8,0.6-3.4,1.9-4.7c1.3-1.3,2.8-1.9,4.7-1.9
						C41.8,33.7,43.4,34.3,44.7,35.6z M43,43.3c0.8-0.8,1.3-1.8,1.3-3c0-1.2-0.4-2.2-1.3-3S41.2,36,40,36c-1.2,0-2.2,0.4-3,1.3
						c-0.8,0.8-1.3,1.8-1.3,3c0,1.2,0.4,2.2,1.3,3c0.8,0.8,1.8,1.3,3,1.3C41.2,44.6,42.2,44.2,43,43.3z M48,32.3
						c0.3,0.3,0.5,0.7,0.5,1.1s-0.2,0.8-0.5,1.1c-0.3,0.3-0.7,0.5-1.1,0.5c-0.4,0-0.8-0.2-1.1-0.5c-0.3-0.3-0.5-0.7-0.5-1.1
						s0.2-0.8,0.5-1.1c0.3-0.3,0.7-0.5,1.1-0.5C47.3,31.9,47.7,32,48,32.3z"/>
				</g>
			</g>
		</g>
	</g>
</g>
</svg>
