<?xml version="1.0" encoding="utf-8"?>
<!-- Generator: Adobe Illustrator 22.0.1, SVG Export Plug-In . SVG Version: 6.00 Build 0)  -->
<svg version="1.1" id="Layer_1" xmlns="http://www.w3.org/2000/svg" xmlns:xlink="http://www.w3.org/1999/xlink" x="0px" y="0px"
	 width="26px" height="26px" viewBox="0 0 26 26" style="enable-background:new 0 0 26 26;" xml:space="preserve">
<style type="text/css">
	.st0{enable-background:new    ;}
	.st1{fill:#253069;}
</style>
<title></title>
<desc>Created with Sketch.</desc>
<g id="studio-big-letter-light_x40_2x" transform="translate(-637.000000, -7329.000000)">
	<g id="footer" transform="translate(0.000000, 7182.000000)">
		<g id="social" transform="translate(330.000000, 120.000000)">
			<g id="icon-copy" transform="translate(280.000000, 0.000000)">
				<g class="st0">
					<path class="st1" d="M33.3,30.6c0,0.8-0.3,1.5-0.8,2s-1.3,0.8-2.3,0.8h0c-0.9,0-1.7-0.3-2.2-0.8s-0.8-1.2-0.8-2
						c0-0.8,0.3-1.5,0.9-2.1c0.6-0.5,1.3-0.8,2.3-0.8s1.7,0.3,2.2,0.8C33,29.1,33.3,29.8,33.3,30.6z M33,35.7v16.6h-5.5V35.7H33z
						 M52.9,42.8v9.5h-5.5v-8.9c0-1.2-0.2-2.1-0.7-2.8c-0.5-0.7-1.2-1-2.1-1c-0.7,0-1.3,0.2-1.8,0.6s-0.8,0.9-1.1,1.4
						c-0.1,0.3-0.2,0.8-0.2,1.4v9.3H36c0-4.5,0-8.1,0-10.8s0-4.4,0-5l0-0.8h5.5v2.4h0c0.2-0.4,0.5-0.7,0.7-0.9
						c0.2-0.3,0.5-0.6,0.9-0.9s0.9-0.6,1.5-0.7c0.6-0.2,1.2-0.3,1.9-0.3c1.9,0,3.4,0.6,4.6,1.9C52.3,38.5,52.9,40.4,52.9,42.8z"/>
				</g>
			</g>
		</g>
	</g>
</g>
</svg>
