<?xml version="1.0" encoding="UTF-8"?>
<svg width="539px" height="268px" viewBox="0 0 539 268" version="1.1" xmlns="http://www.w3.org/2000/svg" xmlns:xlink="http://www.w3.org/1999/xlink">
    <!-- Generator: Sketch 53.2 (72643) - https://sketchapp.com -->
    <title>alarm</title>
    <desc>Created with Sketch.</desc>
    <g id="projects" stroke="none" stroke-width="1" fill="none" fill-rule="evenodd">
        <g id="project-snooze-2@2x" transform="translate(-68.000000, -3406.000000)">
            <g id="story" transform="translate(0.000000, 2775.000000)">
                <g id="copy" transform="translate(69.000000, 0.000000)">
                    <g id="alarm" transform="translate(0.000000, 632.000000)">
                        <g id="Group-35" transform="translate(36.000000, 47.000000)">
                            <path d="M480.696307,126.382449 C481.276403,129.193243 480.536228,132.087828 479.728209,134.838445 C478.310364,139.606131 476.641728,144.306023 474.712392,148.892417 L474.026339,148.602196 C471.388842,144.702886 467.615546,141.579019 463.285784,139.721153 C461.807719,139.080536 460.222172,138.586171 458.612995,138.669962 L458.399556,138.532088 C461.380079,133.931222 464.6274,129.513171 468.103407,125.278698 C469.89477,123.099381 472.143502,120.798947 474.971568,120.852269 C477.837749,120.913207 480.116972,123.579272 480.696307,126.382449" id="Fill-1" fill="#CCF9FF"></path>
                            <path d="M469.300037,158.87066 L469.910625,159.175353 C468.065902,162.732645 466.068723,166.213765 463.918326,169.595858 C462.104856,172.459974 460.069563,175.362176 457.088278,176.984667 C456.067582,177.548349 454.969134,177.921599 453.841719,178.195822 L453.803604,177.715931 C453.590165,170.631815 451.204223,163.623873 447.056646,157.865173 L446.668644,157.788999 C446.760118,157.728061 446.859215,157.667122 446.950688,157.606183 C448.406647,156.608313 449.213904,154.940118 449.992194,153.355714 C451.646346,149.996472 453.422463,146.705786 455.335791,143.483656 L456.242145,144.016869 C461.296075,146.926689 465.541986,151.207627 468.416552,156.273151 C468.873159,157.080588 469.308422,157.948963 469.300037,158.87066" id="Fill-3" fill="#CCF9FF"></path>
                            <path d="M441.652447,162.298458 C443.177011,167.371599 444.716821,172.741815 443.489547,177.891129 L443.558152,179.186075 C435.942954,179.62788 428.31251,179.97066 420.689689,180.214414 L420.651575,179.026111 C422.282859,176.573331 422.130402,173.381671 421.909341,170.441382 C421.711147,167.645822 421.505331,164.850263 421.299515,162.054703 C421.23091,161.09492 421.086076,160.005642 420.293303,159.464812 L420.278057,158.847808 C427.092859,158.718313 433.82381,158.664992 440.379436,158.741165 L440.371813,159.579071 C441.050244,160.333187 441.355157,161.331057 441.652447,162.298458" id="Fill-5" fill="#CCF9FF"></path>
                            <path d="M413.150948,163.737904 C413.432992,168.971009 413.37201,174.22011 412.951992,179.444836 L412.975623,180.427471 C412.846035,180.427471 412.708824,180.435088 412.579236,180.435088 L412.464894,180.587435 C411.175875,179.627652 409.789284,178.828594 408.325702,178.165125 C404.453309,176.397904 400.062565,175.583612 395.671057,175.339096 C395.000249,175.301771 394.32258,175.278157 393.643387,175.271301 L393.659395,174.676388 C393.598412,171.774948 393.54429,168.879601 393.491693,165.977399 C393.452816,164.118771 393.400219,162.192348 392.53884,160.547005 L392.515972,159.556753 C399.109712,159.380792 405.733943,159.183504 412.304815,159.015922 L412.327683,159.808125 C412.968,160.995666 413.073958,162.389637 413.150948,163.737904" id="Fill-7" fill="#CCF9FF"></path>
                            <path d="M393.643539,175.270997 C394.322733,175.278614 395.000402,175.301466 395.67121,175.339553 C395.351051,182.33226 393.240292,188.548 389.238311,194.283849 L389.306917,195.220018 C380.403462,195.868253 371.286568,195.913957 362.588929,195.791318 C365.599944,191.610166 368.663555,187.336845 370.188119,182.416051 C370.714856,180.694535 371.057121,178.919697 371.186709,177.128863 L371.202717,176.383127 C375.973841,176.4593 380.784603,175.948939 385.593841,175.590925 C387.454571,175.445434 389.313777,175.331935 391.174508,175.286231 C391.989387,175.262618 392.821037,175.255 393.643539,175.270997" id="Fill-9" fill="#CCF9FF"></path>
                            <path d="M384.13811,160.379272 C385.616938,164.979377 386.097175,169.892553 385.533087,174.69147 L385.594069,175.591077 C380.784832,175.94833 375.974069,176.458691 371.202183,176.383279 C369.311724,176.35281 367.428887,176.223315 365.553673,175.964326 C365.530805,175.964326 365.515559,175.955947 365.49269,175.955947 C363.785179,172.208221 362.062421,168.45364 360.339664,164.705914 C359.615496,163.128366 358.883705,161.551579 358.151914,159.975553 L358.159537,159.975553 C366.582754,160.089052 375.295638,159.975553 384.122865,159.769124 L384.13811,160.379272 Z" id="Fill-11" fill="#CCF9FF"></path>
                            <path d="M365.553749,175.96425 L365.530881,176.154683 C361.71947,183.954066 355.415397,190.50573 347.769708,194.603853 L347.69348,195.311503 C345.688678,195.083744 343.72199,194.641939 341.907759,193.781181 C337.097759,191.488365 336.412467,185.782986 336.252388,179.940495 C336.167775,177.07638 336.205889,174.181033 335.946713,171.652842 C344.416429,170.814174 353.029455,169.215297 360.255889,164.743925 L360.33974,164.705838 C362.062497,168.453564 363.785255,172.208145 365.492767,175.955871 C365.515635,175.955871 365.530881,175.96425 365.553749,175.96425" id="Fill-13" fill="#CCF9FF"></path>
                            <path d="M349.362725,141.145517 C351.726562,146.156958 354.081251,151.185156 356.413835,156.219449 C349.470207,159.38064 341.800887,160.965806 334.170443,160.789846 L333.164231,161.094539 C333.088003,160.836312 333.012537,160.58494 332.935546,160.332806 C331.441473,155.358691 329.909286,150.460748 328.079809,145.646597 C334.003503,145.373135 339.887559,144.390499 345.581806,142.745156 C346.863202,142.371145 348.158319,141.952954 349.256006,141.198077 L349.362725,141.145517 Z" id="Fill-15" fill="#CCF9FF"></path>
                            <path d="M222.816428,175.842296 C223.738789,174.867278 224.623036,173.861029 225.476792,172.825834 C228.144779,170.251177 231.216776,168.065004 233.084367,164.827639 C235.211134,161.14847 236.202101,157.24078 238.656649,153.622549 C245.49432,143.537206 252.469201,132.971971 260.488409,124.05208 C274.148504,108.870744 287.335984,92.0745347 306.812291,84.4419715 C309.411673,83.4212495 312.18638,82.5224047 314.96871,82.8575671 C320.274193,83.5050401 323.986507,88.303957 326.814573,92.8362675 C334.688947,105.435329 338.942481,119.230311 345.223686,132.415145 C345.292291,132.560636 345.360897,132.705365 345.429502,132.850094 L345.071229,133.016914 C344.026903,133.764174 342.792006,134.198361 341.572355,134.586845 C336.205889,136.315217 330.648852,137.450961 325.030833,137.968177 L324.863131,138.05273 C323.902656,136.011286 322.858329,133.992694 321.707283,131.989336 C318.825857,126.95352 314.983955,119.06273 310.234938,115.558758 C304.548313,111.36161 300.72928,115.832982 295.698218,120.593813 C282.274431,133.284282 274.567759,150.263307 263.54516,164.766701 C259.771863,169.732437 255.60218,174.417856 250.685461,178.538831 C247.133226,181.517206 243.420913,184.312766 239.579011,186.909513 C221.619645,199.075148 200.786475,207.020022 179.274874,209.861286 C174.876507,210.440203 170.455271,210.805073 166.018789,210.950564 C179.191023,204.391282 189.15405,199.01421 202.516855,190.078322 C204.864684,189.043127 207.159153,187.877675 209.385017,186.567495 C214.324605,183.657675 218.875429,180.023448 222.816428,175.842296" id="Fill-17" fill="#CCF9FF"></path>
                            <path d="M335.946865,171.652766 C336.206041,174.180957 336.167927,177.076304 336.251778,179.940419 L334.772951,179.985361 C303.04677,182.294174 271.305344,184.602224 239.579163,186.909513 C243.421065,184.312766 247.133379,181.517206 250.685613,178.538831 C255.602333,174.417856 259.772016,169.732437 263.545312,164.766701 C286.017388,162.542441 308.588561,161.239878 331.174979,160.859011 L332.935851,160.333416 C333.012079,160.584787 333.088307,160.836159 333.164536,161.095148 C333.888704,163.494607 334.596864,165.923773 335.33704,168.36208 C335.63433,169.351571 335.8249,170.463701 335.946865,171.652766" id="Fill-19" fill="#CCF9FF"></path>
                            <path d="M180.151728,25.2627939 C181.935468,32.0879202 181.249414,39.4157903 178.947322,46.0809527 L177.384644,46.179978 C173.824786,42.4551043 170.493613,39.3243823 168.91569,37.7704473 C157.793994,26.7710249 144.126276,17.8663679 129.109319,13.8368011 L129.452346,12.5342379 C137.341965,6.54701769 147.769984,4.32275776 157.588178,5.67864224 C161.125167,6.16615126 164.631664,7.1107 167.772266,8.81698159 C173.977243,12.1838408 178.367987,18.4300502 180.151728,25.2627939" id="Fill-21" fill="#CCF9FF"></path>
                            <path d="M143.409578,83.1467209 C140.505284,81.9736523 137.852542,80.1378762 135.702906,77.8222083 C135.390371,77.4870458 135.093081,77.1442661 134.803413,76.7862516 C132.76812,74.3030025 131.289293,71.3550964 130.626108,68.1329664 C129.398833,62.2676235 130.892906,57.7657823 133.881052,54.6579123 C135.977328,52.4793563 138.797772,50.9863599 141.938374,50.1941578 C148.928501,48.4193202 157.46606,50.0951325 162.863017,55.3282372 C167.38335,59.7082011 169.609214,66.5637968 167.78736,72.5891036 C165.874032,78.9267209 159.714792,83.4971181 153.143921,84.4111975 C149.805125,84.8758545 146.466329,84.3807282 143.409578,83.1467209" id="Fill-23" fill="#CCF9FF"></path>
                            <path d="M54.3751824,7.77348375 C56.4333441,9.63211191 58.4991285,11.4831227 60.5572902,13.3417509 C56.776371,15.6117148 53.0106975,17.9045307 49.2526468,20.2125812 C49.2297783,20.2278159 49.199287,20.2506679 49.1764185,20.2659025 C41.3325358,25.0952888 33.5496357,30.0313177 25.8353409,35.0587545 C25.8353409,35.0587545 24.1506975,35.9728339 22.9462918,35.416769 C21.7342632,34.8683213 20.9719811,33.6647834 20.3011729,32.5145668 C17.8390017,28.2336282 15.7503488,23.4956498 15.9866563,18.5672383 C16.2763235,12.5495487 20.1410937,7.04983755 25.2712521,3.88864621 C33.0465295,-0.910270758 43.7337244,-0.460848375 51.0668781,4.98554152 C52.2255469,5.84629964 53.3003647,6.81370036 54.3751824,7.77348375" id="Fill-25" fill="#CCF9FF"></path>
                            <path d="M57.1038474,145.410917 C58.9104559,148.130303 60.1682214,150.887014 59.162009,153.081566 C58.0795685,155.457411 55.7241168,156.958787 53.4677618,158.268967 C50.9293624,159.746729 48.3299805,161.178787 45.6391247,162.389942 C42.6814702,157.766223 39.9829916,153.020628 37.5665574,148.259797 C30.5611849,134.457198 24.9965257,119.82431 21.7644496,104.658209 C21.5586334,103.675574 21.3375716,102.654852 21.108887,101.60366 L21.5433878,101.260881 C22.6486968,100.37727 35.7447032,90.1395809 36.0038791,90.8556097 C37.879093,95.9973065 39.1749726,101.382758 40.478475,106.791061 C41.9496794,112.92301 43.4361295,119.093047 45.7610899,124.981242 C47.4762246,129.300267 49.3971754,133.543119 51.5696794,137.656476 C52.6444971,139.69792 55.1828965,142.531566 57.1038474,145.410917" id="Fill-27" fill="#CCF9FF"></path>
                            <path d="M58.4988998,33.8628339 L58.6437334,34.1218231 C57.3783452,36.3613177 55.9300092,38.5398736 54.0319268,40.2766245 C52.3472834,41.8077076 48.9932422,43.9938809 46.5691851,43.7044224 C45.3952707,43.5596931 44.5262691,42.7522563 43.7868555,41.7620036 C47.7888365,38.1590072 51.981388,34.7540614 56.3492643,31.615722 C57.0276954,32.3774549 57.7442406,33.1239531 58.4988998,33.8628339" id="Fill-29" fill="#FFFFFF"></path>
                            <path d="M56.3494168,31.6155697 C51.9815404,34.753909 47.7889889,38.1588549 43.7870079,41.7618513 C43.0247258,40.7487466 42.3996545,39.5452087 41.7364691,38.7149199 C39.3810174,35.7517791 36.7892583,32.9790715 33.9993059,30.4272664 L49.1763423,20.2657502 C49.1992108,20.2505155 49.2297021,20.2276635 49.2525705,20.2124289 C51.0591791,24.5771581 53.3231569,28.2258585 56.3494168,31.6155697" id="Fill-31" fill="#FFFFFF"></path>
                            <path d="M45.6395059,162.389942 C42.1634995,163.959112 38.5502824,165.162649 34.7769861,165.657776 C23.2893949,167.15839 11.2453379,161.293047 5.10896704,151.481927 C-1.0274038,141.670808 -1.07314073,128.446364 4.75831727,118.445574 C8.72218415,111.650917 14.9500288,106.532072 21.1092681,101.60366 C21.3379528,102.654852 21.5590146,103.675574 21.7648307,104.658209 C24.9969068,119.82431 30.5615661,134.457198 37.5669385,148.259797 C39.9833727,153.020628 42.6818513,157.766223 45.6395059,162.389942" id="Fill-33" fill="#CCF9FF"></path>
                        </g>
                        <path d="M214.582434,219.881143 C221.866561,219.393111 229.112512,217.021582 235.411678,213.292716 C243.138656,208.710556 249.651613,202.22126 254.889465,194.961027 C256.783033,192.338619 257.997054,187.648177 260.112047,184.247969 C261.753648,181.579046 263.95263,179.703175 267.434351,180.21332 C270.251797,180.62586 272.466049,183.035516 273.367021,185.734941 C274.267993,188.425978 274.069474,191.362556 273.618988,194.167975 C272.114823,203.494718 267.884837,212.187019 261.868179,219.477754 C261.013019,220.514059 260.127318,221.520624 259.20344,222.49745 C255.255962,226.683084 250.697656,230.320445 245.749947,233.234146 C243.520424,234.544969 241.222183,235.712432 238.870494,236.748737 C226.149995,242.338224 211.749718,244.001345 197.883916,242.445744 C190.622694,241.629816 183.445462,239.967458 176.627091,237.351151 C174.603723,236.580976 172.618531,235.720058 170.671516,234.797373 C120.843198,211.211718 64.799703,132.210832 104.389011,78.5959802 C110.107891,70.8492403 118.155554,65.2284883 127.165271,61.8427687 C136.037552,58.4951766 145.841346,57.3139875 155.263372,58.3807942 C158.68401,58.7696944 162.043566,59.4262495 165.342039,60.3176698 C180.383685,64.3523189 194.073874,73.2657595 205.213855,84.2769736 C206.794373,85.8325745 210.131023,88.9666527 213.696733,92.6955196 C220.873965,100.229508 228.944534,110.218906 225.241388,114.733199 C224.378593,115.777891 223.256196,116.563317 222.080351,117.264863 C221.683313,117.493628 221.286274,117.71553 220.889236,117.936669 C205.32075,126.522213 192.653699,135.939699 182.193264,150.664529 C180.368415,153.241946 178.635189,155.956622 177.115754,158.77043 C172.572719,167.143223 169.816356,176.424212 171.572487,185.627421 C172.473459,190.34074 174.527369,194.770389 177.054671,198.842403 C182.208535,207.154955 189.66064,214.314532 198.838335,217.723128 C203.870033,219.591374 209.237686,220.247167 214.582434,219.881143 Z" id="Stroke-36" stroke="#00D5FF" stroke-width="1.8" stroke-linecap="round" stroke-linejoin="round"></path>
                        <path d="M81,210 C88.8423712,222.124575 98.5461613,233.420248 109.813848,241.897655 C125.933431,254.029765 146.233576,260.465059 166.022595,264.813026 C169.875121,265.656999 173.84208,266.342727 177.755637,265.815244 C181.661565,265.280225 191.044947,263.117545 194.584694,261.399457 C196.987755,260.231459 199.276385,259.116209 201.473469,258.038636 C214.655977,251.550595 224.626774,246.230551 238,237.391442" id="Stroke-38" stroke="#00D5FF" stroke-width="1.8" stroke-linecap="round" stroke-linejoin="round"></path>
                        <path d="M80,90 C72.2729725,96.7065937 65.2222542,104.089104 58.9799976,111.621818 C51.1519123,121.077138 54.2536065,137.066319 56.8733331,149" id="Stroke-40" stroke="#00D5FF" stroke-width="1.8" stroke-linecap="round" stroke-linejoin="round"></path>
                        <path d="M127,62 C114.485037,65.3617978 102.730437,71.3901124 92,79" id="Stroke-42" stroke="#00D5FF" stroke-width="1.8" stroke-linecap="round" stroke-linejoin="round"></path>
                        <path d="M70,77.4242399 C72.8301887,80.0283565 75.4593257,82.8579041 77.8487473,85.8817888 C78.5214971,86.7290983 79.155583,87.9573086 79.9288586,88.9911817 C80.678936,90.0017344 81.5604702,90.8257236 82.7513146,90.9734197 C85.210331,91.2688121 88.6127436,89.0378226 90.3216826,87.4753527 C92.2471389,85.7029987 93.7163625,83.4797827 95,81.1943789 L94.8530776,80.9300805 C94.0875348,80.1760527 93.3606557,79.4142514 92.6724405,78.6369032 C89.6025363,75.1777035 87.3059078,71.4542054 85.4732447,67" id="Stroke-44" stroke="#00D5FF" stroke-width="1.8" stroke-linecap="round" stroke-linejoin="round"></path>
                        <path d="M84.8446637,66.1872355 C88.5530796,63.8147957 92.2690177,61.4580157 96,59.1247251 C93.9690217,57.2142455 91.9305213,55.3115959 89.899543,53.4011163 C88.838921,52.4145572 87.778299,51.4201683 86.6349335,50.535397 C79.398633,44.9370656 68.8525902,44.4751054 61.1800056,49.4079009 C56.1176042,52.6572821 52.3038783,58.3104223 52.0180369,64.4959913 C51.7848505,69.561894 53.8459173,74.4320509 56.2755691,78.8324177 C56.9375176,80.0147226 57.6897318,81.2518364 58.8857523,81.8155845 C60.0742507,82.3871624 61.7366441,81.4475823 61.7366441,81.4475823 C69.3490516,76.2798917 77.0291584,71.2061592 84.7694423,66.2420443 C84.7920087,66.2263847 84.8220973,66.2028952 84.8446637,66.1872355 Z" id="Stroke-46" stroke="#00D5FF" stroke-width="1.8" stroke-linecap="round" stroke-linejoin="round"></path>
                        <path d="M76.3058548,153.956184 C77.750287,160.082331 79.2096874,166.246527 81.4923393,172.12915 C83.1762628,176.444088 85.0622571,180.682925 87.1952269,184.79315 C88.2504857,186.831901 90.7426925,189.662866 92.6286869,192.539491 C94.4024197,195.257065 95.6372969,198.011167 94.6493951,200.203643 C93.5866523,202.577239 91.2740639,204.076432 89.058769,205.385373 C86.5665622,206.862497 84.0144825,208.292439 81.3725936,209.502448 C77.9598419,211.070132 74.4123763,212.272531 70.7077446,212.767189 C59.4291989,214.266383 47.6043137,208.406591 41.5796095,198.604756 C35.5549053,188.802922 35.5100007,175.591754 41.2353407,165.599667 C45.1270751,158.811441 51.2415885,153.69744 57.288745,148.773693 L57.715339,148.431237 C58.8005342,147.548463 71.6582258,137.320463 71.9126854,138.035814 C73.7537751,143.172645 75.0260729,148.552999 76.3058548,153.956184 Z" id="Stroke-48" stroke="#00D5FF" stroke-width="1.8" stroke-linecap="round" stroke-linejoin="round"></path>
                        <path d="M126,119.925227 C132.697552,120.421963 139.562162,118.427603 144.885273,114.424054 C148.272017,111.888474 151.187957,108.159242 150.990524,104" id="Stroke-50" stroke="#00D5FF" stroke-width="1.8" stroke-linecap="round" stroke-linejoin="round"></path>
                        <path d="M175,83.7920012 C177.808018,84.4665013 180.94093,83.4666541 182.882562,81.284448 C184.83193,79.0943066 185.512662,75.8090944 184.599863,73" id="Stroke-52" stroke="#00D5FF" stroke-width="1.8" stroke-linecap="round" stroke-linejoin="round"></path>
                        <path d="M165,59.2774401 C172.933852,53.2588361 183.420335,51.022917 193.293573,52.3859088 C196.850391,52.8759732 200.376548,53.8254731 203.534757,55.5406987 C209.774521,58.9252063 214.189882,65.204157 215.983623,72.0727166 C217.777363,78.9336189 217.087463,86.2999001 214.772465,93" id="Stroke-54" stroke="#00D5FF" stroke-width="1.8" stroke-linecap="round" stroke-linejoin="round"></path>
                        <path d="M260,184.824099 C259.840776,184.808007 259.689135,184.793448 259.529911,184.770459 C257.44484,184.540576 255.344605,184.309927 253.259534,184.080044 C252.47858,183.99652 251.667298,183.91223 250.931836,184.195752 C250.090226,184.517588 249.491242,185.267773 248.922586,185.981176 C244.987488,190.884577 240.377585,195.245455 235.28243,198.885268 C231.802257,201.398654 228.087039,203.581775 224.205016,205.382524 C222.180601,206.32581 220.087948,207.184039 218.34407,208.578662 C214.886643,211.351816 213.264079,216.249087 214.317988,220.577782 C214.348316,220.724141 214.386226,220.861304 214.424137,221" id="Stroke-56" stroke="#00D5FF" stroke-width="1.8" stroke-linecap="round" stroke-linejoin="round"></path>
                        <path d="M78,154.453227 C78.8251718,153.655745 80.2491409,153.989928 81.0231959,154.840576 C81.7972509,155.691224 82.0893471,156.88365 82.3741409,158.015315 C84.6378866,167.11421 87.7706186,176.015633 92.1520619,184.233499 C93.415378,186.603161 94.8174399,189.018393 95,191.714643 C94.2405498,191.965281 93.5687285,192.45896 93.0794674,193.096946 C92.8603952,193.370369 92.6851375,193.674171 92.5463918,194" id="Stroke-58" stroke="#00D5FF" stroke-width="1.8" stroke-linecap="round" stroke-linejoin="round"></path>
                        <path d="M191.168475,157 C190.405919,162.242697 192.331186,167.53059 194.943508,172.14808 C202.908828,186.241595 217.888159,196.15451 234,198" id="Stroke-60" stroke="#00D5FF" stroke-width="1.8" stroke-linecap="round" stroke-linejoin="round"></path>
                        <path d="M185.421769,200.94963 C186.57476,201.833872 187.757505,202.695245 189.014637,203.411786 C194.348149,206.468517 201.057811,206.842033 206.68143,204.402746 C207.313715,204.128326 207.946,203.815792 208.474144,203.358426 C210.013945,202.009195 210.348684,199.585154 209.656889,197.626101 C208.972534,195.674672 207.440172,194.150117 205.751598,192.999079 C204.063025,191.848802 202.195924,191.009535 200.440403,189.972838 C197.888946,188.455906 195.582964,186.519722 193.634038,184.248136 C192.68933,183.150457 191.566094,181.846963 190.137873,182.014664 C188.590634,182.189988 187.742628,184.171908 188.181508,185.711708 C188.620389,187.244648 189.907275,188.349188 191.216477,189.225806 C192.518241,190.103187 193.939023,190.879948 194.89117,192.145328 C195.627596,193.11342 195.947458,194.707342 194.987873,195.445989 C194.258885,196.010836 193.217474,195.743277 192.384345,195.354515 C190.666017,194.554124 189.133655,193.342866 187.95091,191.832794 C186.723533,190.270126 185.808579,188.341565 184.09769,187.36585 C181.218932,185.711708 177.075604,187.838462 178.183963,191.360183 C179.478288,195.484102 182.104132,198.396001 185.421769,200.94963 Z" id="Stroke-62" stroke="#00D5FF" stroke-width="1.8" stroke-linecap="round" stroke-linejoin="round"></path>
                        <path d="M170.071515,124 C162.897503,130.345396 156.095201,137.147908 149.724084,144.368798 C148.638689,145.592941 147.493821,147.30519 148.237242,148.785008 C149.144216,150.605726 151.753623,150.063385 153.537833,149.203386 C163.053621,144.593483 171.744212,138.124123 179,130.22918" id="Stroke-64" stroke="#00D5FF" stroke-width="1.8" stroke-linecap="round" stroke-linejoin="round"></path>
                        <path d="M177,97.4948393 C167.566027,86.4702652 156.392402,76.9294726 144.023245,69.3491169 C142.275929,68.2804866 140.436649,67.2272324 138.405778,67.0273447 C136.374906,66.827457 134.091134,67.7269515 133.294112,69.6105085 C132.535409,71.4018096 133.332431,73.5467581 134.681236,74.9459718 C136.030041,76.3451856 137.838666,77.1831762 139.562991,78.0749828 C150.836244,83.8640374 160.055634,92.8436068 168.899505,102" id="Stroke-66" stroke="#00D5FF" stroke-width="1.8" stroke-linecap="round" stroke-linejoin="round"></path>
                        <path d="M170.580172,123.996736 C170.86811,124.364225 171.163625,124.716076 171.474294,125.060107 C173.611096,127.437055 176.248,129.321412 179.134955,130.525523 C182.173456,131.792186 185.492318,132.300415 188.811179,131.823462 C195.34282,130.885193 201.465287,126.193849 203.367191,119.688518 C205.178168,113.503763 202.965594,106.466747 198.472249,101.970875 C193.107514,96.5992858 184.620927,94.8791263 177.672534,96.7009316 C174.550682,97.514098 171.747078,99.0466037 169.663317,101.282811 C166.693012,104.472925 165.207859,109.093899 166.427806,115.114458 C167.087032,118.421855 168.55703,121.447772 170.580172,123.996736 Z" id="Stroke-68" stroke="#00D5FF" stroke-width="1.8" stroke-linecap="round" stroke-linejoin="round"></path>
                        <path d="M220.985255,118 C222.831467,120.00306 224.472543,122.329922 224.905605,125.010709 C225.338667,127.683966 224.275006,130.741267 221.851379,131.983767 C219.199825,133.346751 215.993647,132.232267 213.228129,131.102722 C215.963257,133.241327 214.724852,138.068249 211.65543,139.679733 C208.586009,141.298748 204.749233,140.455354 201.664616,138.8514 C203.244912,141.215915 204.209805,143.972004 204.452927,146.795867 C204.513708,147.443473 204.521305,148.14379 204.179414,148.708563 C203.495632,149.823047 201.862153,149.815517 200.58576,149.506775 C197.987389,148.87423 195.563762,147.556427 193.633977,145.719034 C193.861904,148.188972 194.082234,150.658911 194.310161,153.128849 C194.355747,153.633379 194.386137,154.190621 194.105027,154.612318 C193.839112,155.018954 193.345269,155.207212 192.881817,155.335227 C191.9929,155.576196 191.073593,155.66656 190.154287,155.613848 C188.475222,155.538545 186.81895,154.973772 185.466581,153.994833 C186.279522,155.327697 187.10006,156.705741 187.358378,158.241923 C187.616696,159.778104 187.176036,161.532664 185.884448,162.413709 C184.364933,163.45289 182.252806,162.970951 180.664912,162.052254 C179.069421,161.133558 177.701857,159.815755 176,159.130498" id="Stroke-70" stroke="#00D5FF" stroke-width="1.8" stroke-linecap="round" stroke-linejoin="round"></path>
                        <path d="M258.082172,224.837902 C258.318163,224.431575 258.56938,224.032149 258.843434,223.657255 C259.619921,222.545607 260.533436,221.556623 261.500238,220.621305 C264.164655,218.030015 267.232541,215.829718 269.097633,212.571439 C271.221554,208.868501 272.211195,204.935566 274.662458,201.29396 C281.490979,191.143463 288.456526,180.509973 296.465002,171.532456 C310.106817,156.253043 323.27665,139.348325 342.726894,131.666453 C345.322798,130.639136 348.093791,129.734485 350.872398,130.071812 C356.170781,130.723468 359.878127,135.553388 362.702409,140.114979 C370.566246,152.795434 374.814088,166.679536 381.086887,179.949549 C381.1554,180.09598 381.223914,180.241644 381.292428,180.387308 C382.609411,183.162595 383.918781,185.945549 385.22054,188.736169 C387.580452,193.779985 389.932751,198.840668 392.262213,203.907484 C392.848385,205.165563 393.426944,206.422108 393.99789,207.687854 C394.728702,209.274061 395.459513,210.861801 396.182712,212.448775 C397.903165,216.220712 399.623617,219.999549 401.328844,223.771486 C401.351681,223.771486 401.366907,223.779919 401.389745,223.779919 C403.262449,224.040582 405.142766,224.170913 407.030696,224.201579 C411.796196,224.278245 416.599759,223.764586 421.403323,223.404259 C423.260802,223.257828 425.118281,223.143597 426.975761,223.096831 C427.790311,223.073831 428.620086,223.066165 429.442249,223.082264 C430.119773,223.089931 430.797296,223.112931 431.467206,223.151263 C435.852076,223.396593 440.236945,224.216146 444.104156,225.995549 C445.565779,226.662538 446.951276,227.467525 448.237808,228.432742 C449.128485,229.092831 449.973486,229.836485 450.757586,230.664472 C452.264884,232.243779 453.55903,234.504641 452.752092,236.537041 C452.006055,238.437576 449.798395,239.227996 447.826727,239.733987 C444.225958,240.653972 440.472936,241.37386 436.605725,241.926617 C432.852703,242.478608 429.000717,242.876502 425.110669,243.160164 C416.219128,243.812586 407.114435,243.858585 398.428435,243.735154 C394.949468,243.682255 391.546627,243.604823 388.24275,243.528924 C386.689775,243.490591 385.10635,243.436926 383.553376,243.252929 C381.551257,243.022933 379.587201,242.578273 377.775397,241.711954 C372.971834,239.404326 372.287459,233.662088 372.127594,227.781853 C372.043094,224.899234 372.081157,221.985183 371.822328,219.440658 C371.700526,218.243912 371.510211,217.124597 371.213319,216.128714 C370.474894,213.674654 369.766921,211.229795 369.043722,208.814835 C368.967596,208.554173 368.892231,208.301177 368.815343,208.048181 C367.32327,203.041165 365.793133,198.112347 363.966104,193.266327 C362.99245,190.691137 361.933535,188.145846 360.753579,185.623555 C359.794389,183.568922 358.75146,181.537289 357.601954,179.520989 C354.724384,174.45264 350.887623,166.510873 346.144961,162.984265 C340.465946,158.760002 336.652024,163.26026 331.627694,168.051847 C318.22187,180.824301 310.525512,197.913017 299.517663,212.510107 C295.749416,217.507924 291.585313,222.223612 286.675173,226.37121 C283.127692,229.368826 279.420346,232.182446 275.583585,234.795969 C257.648253,247.040199 236.842962,255.036399 215.360148,257.896018 C210.967666,258.478675 206.552347,258.845903 202.121802,258.992333 C202.083739,259 202.038063,259 202,259" id="Stroke-72" stroke="#00D5FF" stroke-width="1.8" stroke-linecap="round" stroke-linejoin="round"></path>
                        <path d="M393,206.740769 C401.440789,206.853157 410.17185,206.740769 419.018255,206.536359 C421.805625,206.476016 424.617439,206.401342 427.427725,206.325914 C434.035985,206.15243 440.673271,205.956317 447.257851,205.790375 C449.931404,205.730032 452.598082,205.66969 455.247955,205.624433 C462.077738,205.496205 468.82273,205.443406 475.391268,205.518834 C475.612791,205.518834 475.834314,205.526376 476.055837,205.526376 C477.989198,205.549005 480.050889,205.533165 481.693215,204.575983 C481.784879,204.51564 481.884183,204.455298 481.975848,204.394955 C483.435608,203.406847 484.244548,201.754972 485.024462,200.186068 C486.682065,196.858934 488.461887,193.601195 490.378443,190.410587 C491.364602,188.758712 492.395066,187.121922 493.44921,185.507761 C496.435951,180.951904 499.690047,176.577075 503.173304,172.383273 C504.968404,170.226029 507.221828,167.948101 510.055794,168.000901 C512.927954,168.061243 515.211932,170.701226 515.792475,173.476226 C516.373782,176.260277 515.632062,179.126544 514.822357,181.849498 C513.401555,186.571297 511.729438,191.22521 509.796077,195.765981 C508.337081,199.228131 506.733713,202.622395 504.984446,205.948774 C503.135875,209.471266 501.134529,212.917575 498.979645,216.267337 C497.161629,219.103433 495.12209,221.977243 492.135349,223.583862 C491.11176,224.141275 490.011784,224.511627 488.882017,224.783168 C487.002891,225.228194 485.008421,225.371507 483.068185,225.491438 C481.570995,225.590249 480.073805,225.680008 478.576616,225.763734 C470.945531,226.201217 463.299169,226.540643 455.660446,226.781259 C453.086197,226.864984 450.504308,226.932869 447.930058,226.993211 C447.8002,226.993211 447.663467,227 447.533609,227" id="Stroke-74" stroke="#00D5FF" stroke-width="1.8" stroke-linecap="round" stroke-linejoin="round"></path>
                        <path d="M366,208 C343.607913,208.380952 321.23094,209.68381 298.952212,211.908571 C298.634808,211.939048 298.316648,211.969524 298,212" id="Stroke-76" stroke="#00D5FF" stroke-width="1.8" stroke-linecap="round" stroke-linejoin="round"></path>
                        <path d="M273,235 C273.459462,234.969635 273.911265,234.930919 274.370727,234.900553 C306.242046,232.601128 338.128681,230.300943 370,228" id="Stroke-78" stroke="#00D5FF" stroke-width="1.8" stroke-linecap="round" stroke-linejoin="round"></path>
                        <path d="M2.44959147,159 C-3.07042018,179.559288 0.862291982,202.352443 13,220" id="Stroke-80" stroke="#00D5FF" stroke-width="1.8" stroke-linecap="round" stroke-linejoin="round"></path>
                        <path d="M326,109.539903 C339.94754,100.984004 360.404937,104.919275 370,118" id="Stroke-82" stroke="#00D5FF" stroke-width="1.8" stroke-linecap="round" stroke-linejoin="round"></path>
                        <path d="M377,102 C385.562137,107.090418 392.395664,115.354588 396,125" id="Stroke-84" stroke="#00D5FF" stroke-width="1.8" stroke-linecap="round" stroke-linejoin="round"></path>
                        <path d="M22,203 C26.3489675,213.143486 32.3115095,222.74312 40.4331679,230.246133 C48.5548263,237.750676 58.9585401,243.058394 70,244" id="Stroke-86" stroke="#00D5FF" stroke-width="1.8" stroke-linecap="round" stroke-linejoin="round"></path>
                        <path d="M277,92 C284.566107,81.3333333 292.154643,70.6363636 300.999213,61.030303 C310.681139,50.5151515 321.82096,41.3939394 334,34" id="Stroke-88" stroke="#00D5FF" stroke-width="1.8" stroke-linecap="round" stroke-linejoin="round"></path>
                        <path d="M464,8.19820069 C436.787104,7.1879524 407.78449,9.61407896 385.70365,25.4948759 C385.465786,25.6555972 385.229451,25.8316253 385,26" id="Stroke-90" stroke="#00D5FF" stroke-width="1.8" stroke-linecap="round" stroke-linejoin="round"></path>
                        <path d="M453,74 C467.760911,74 483.192088,74.1957987 497.817439,76.718589 C511.606841,79.0982957 525.238091,84.0535077 536,93" id="Stroke-92" stroke="#00D5FF" stroke-width="1.8" stroke-linecap="round" stroke-linejoin="round"></path>
                        <path d="M267,95.3745262 C270.447533,93.8051554 273.940931,92.3419257 277.480195,91 C277.296734,94.343442 277.464906,97.702047 278,101" id="Stroke-94" stroke="#00D5FF" stroke-width="1.8" stroke-linecap="round" stroke-linejoin="round"></path>
                        <path d="M374,25 C377.643362,25.1905752 381.286723,25.3811504 384.930085,25.5717256 L385,25.5717256 C383.430791,28.8572419 382.436441,32.3943174 382.071328,36" id="Stroke-96" stroke="#00D5FF" stroke-width="1.8" stroke-linecap="round" stroke-linejoin="round"></path>
                        <path d="M443.278024,66 C445.787212,67.7622222 448.294761,69.5244444 450.803948,71.2866667 C451.573673,71.8283333 452.345037,72.37 453,73.02 C448.828404,74.7244444 444.810916,76.725 441,79" id="Stroke-98" stroke="#00D5FF" stroke-width="1.8" stroke-linecap="round" stroke-linejoin="round"></path>
                        <path d="M320,33 C324.992424,33.3601801 330,33.4652326 335,33.3076538 C332.045455,37.5697849 330.590909,42.8374187 330.939394,48" id="Stroke-100" stroke="#00D5FF" stroke-width="1.8" stroke-linecap="round" stroke-linejoin="round"></path>
                        <path d="M454.429336,0 C455.800857,1.43432407 457.179872,2.86864813 458.551392,4.3029722 C460.192719,6.01342282 461.879015,7.75455417 464,8.7746884 C458.888651,10.0786194 454.069593,12.5714286 450,16" id="Stroke-102" stroke="#00D5FF" stroke-width="1.8" stroke-linecap="round" stroke-linejoin="round"></path>
                        <path d="M534.192125,83 C533.951513,87.0117836 534.943128,91.0910552 537,94.5104446 C532.231498,93.8505624 527.273423,94.7279057 523,97" id="Stroke-104" stroke="#00D5FF" stroke-width="1.8" stroke-linecap="round" stroke-linejoin="round"></path>
                        <path d="M360,185 C365.887029,184.581538 371.710156,183.664615 377.333587,182.268308 C378.611639,181.954462 379.905668,181.603077 381,181" id="Stroke-106" stroke="#00D5FF" stroke-width="1.8" stroke-linecap="round" stroke-linejoin="round"></path>
                        <path d="M364,192 C369.874406,191.75411 375.709503,190.870548 381.356371,189.390411 C382.627106,189.054795 383.911447,188.678082 385,188" id="Stroke-108" stroke="#00D5FF" stroke-width="1.8" stroke-linecap="round" stroke-linejoin="round"></path>
                        <path d="M369,207.988692 C376.505794,208.139854 384.04908,206.772828 390.880027,204.045348 C390.917519,204.032204 390.962509,204.012487 391,204" id="Stroke-110" stroke="#00D5FF" stroke-width="1.8" stroke-linecap="round" stroke-linejoin="round"></path>
                        <path d="M370,219 C370.153129,218.984666 370.307027,218.969332 370.461695,218.953998 C379.010742,218.110624 387.705993,216.500548 395,212" id="Stroke-112" stroke="#00D5FF" stroke-width="1.8" stroke-linecap="round" stroke-linejoin="round"></path>
                        <path d="M384,242 C391.318026,238.001652 397.351931,231.610239 401,224" id="Stroke-114" stroke="#00D5FF" stroke-width="1.8" stroke-linecap="round" stroke-linejoin="round"></path>
                        <path d="M397,243 C397,243 397,242.991922 397.008769,242.991922 C400.157573,238.960997 403.361382,234.841214 404.955713,230.097222 C405.506554,228.437559 405.864482,226.72649 406,225" id="Stroke-116" stroke="#00D5FF" stroke-width="1.8" stroke-linecap="round" stroke-linejoin="round"></path>
                        <path d="M423,242 C427.354781,236.247286 429.652447,230.013269 430,223" id="Stroke-118" stroke="#00D5FF" stroke-width="1.8" stroke-linecap="round" stroke-linejoin="round"></path>
                        <path d="M435,241 C438.57551,236.039722 442.053061,231.876365 443,226" id="Stroke-120" stroke="#00D5FF" stroke-width="1.8" stroke-linecap="round" stroke-linejoin="round"></path>
                        <path d="M419,208 C420.820764,212.49976 421.412043,217.305764 420.717525,222" id="Stroke-122" stroke="#00D5FF" stroke-width="1.8" stroke-linecap="round" stroke-linejoin="round"></path>
                        <path d="M428,208 C428.768707,209.630189 428.815646,211.538868 428.85034,213.381132 C428.897279,216.255849 428.945578,219.124528 429,222" id="Stroke-124" stroke="#00D5FF" stroke-width="1.8" stroke-linecap="round" stroke-linejoin="round"></path>
                        <path d="M447,208 C447.642827,209.149773 447.749199,210.498545 447.826492,211.802359 C448.109642,216.865782 448.04842,221.944684 447.626756,227" id="Stroke-126" stroke="#00D5FF" stroke-width="1.8" stroke-linecap="round" stroke-linejoin="round"></path>
                        <path d="M455,207 C455.905028,207.525312 456.070529,208.583333 456.148924,209.514836 C456.384981,212.230179 456.619295,214.945522 456.84577,217.661604 C457.098376,220.517523 457.272588,223.617601 455.409397,226" id="Stroke-128" stroke="#00D5FF" stroke-width="1.8" stroke-linecap="round" stroke-linejoin="round"></path>
                        <path d="M476,207 C476.761721,207.741265 477.104067,208.722879 477.437855,209.673045 C479.149586,214.659734 480.877579,219.938436 479.500491,225" id="Stroke-130" stroke="#00D5FF" stroke-width="1.8" stroke-linecap="round" stroke-linejoin="round"></path>
                        <path d="M482,204 C486.302339,210.092667 488.777765,217.506044 489,225" id="Stroke-132" stroke="#00D5FF" stroke-width="1.8" stroke-linecap="round" stroke-linejoin="round"></path>
                        <path d="M492,191 C497.031478,193.742564 501.258526,197.777436 504.120321,202.551795 C504.5749,203.312821 505.008229,204.131282 505,205" id="Stroke-134" stroke="#00D5FF" stroke-width="1.8" stroke-linecap="round" stroke-linejoin="round"></path>
                        <path d="M494,186.009334 C495.565282,185.92505 497.108309,186.422323 498.547478,187.066709 C502.761128,188.935506 506.433234,192.07775 509,196" id="Stroke-136" stroke="#00D5FF" stroke-width="1.8" stroke-linecap="round" stroke-linejoin="round"></path>
                    </g>
                </g>
            </g>
        </g>
    </g>
</svg>