<?xml version="1.0" encoding="UTF-8"?>
<svg width="336px" height="331px" viewBox="0 0 336 331" version="1.1" xmlns="http://www.w3.org/2000/svg" xmlns:xlink="http://www.w3.org/1999/xlink">
    <!-- Generator: Sketch 53.2 (72643) - https://sketchapp.com -->
    <title>moon</title>
    <desc>Created with Sketch.</desc>
    <defs>
        <polygon id="path-1" points="0.504178257 0.502735724 217.638903 0.502735724 217.638903 234 0.504178257 234"></polygon>
        <polygon id="path-3" points="0 0.47754694 49.8083565 0.47754694 49.8083565 71.2793434 0 71.2793434"></polygon>
        <polygon id="path-5" points="0.0377675921 0.186554054 37.5771589 0.186554054 37.5771589 54.7439431 0.0377675921 54.7439431"></polygon>
    </defs>
    <g id="projects" stroke="none" stroke-width="1" fill="none" fill-rule="evenodd">
        <g id="project-snooze-2@2x" transform="translate(-849.000000, -5934.000000)">
            <g id="brand" transform="translate(-678.000000, 5934.000000)">
                <g id="copy" transform="translate(933.000000, 0.000000)">
                    <g id="moon" transform="translate(762.000000, 165.500000) scale(-1, 1) translate(-762.000000, -165.500000) translate(594.000000, 0.000000)">
                        <path d="M97.9727434,93.0368588 C118.465051,71.4247666 142.024235,51.7175816 170.038459,41.8532791 C200.691811,31.0597895 230.924018,35.3076071 242.84815,37.8735814 C266.915055,43.0528019 289.540236,54.2636131 309.077263,69.3315106 C313.18086,72.4972463 317.227229,75.9126364 319.972743,80.3229509 C317.261713,82.7781319 313.026783,81.2358883 309.662024,79.8206877 C282.339681,68.3299386 250.264413,74.0173313 224.071972,87.9204212 C204.668478,98.2197724 186.52035,114.562532 182.349252,136.2411 C180.86057,143.980386 175.541227,141.950652 169.690684,140.405454 C162.635402,138.542648 155.674034,136.341553 148.716334,134.142674 C142.071192,132.042771 135.395234,129.93031 129.14629,126.834744 C119.98088,122.294432 111.941703,115.738419 104.521037,108.67128 C101.76305,106.044 98.8487841,102.638212 99.6177042,98.8948733 C100.160644,96.2498663 99.6309108,95.086536 97.9727434,93.0368588" id="Fill-1" fill="#FFFFFF"></path>
                        <path d="M189.393675,119.848493 C179.985408,113.732128 170.57714,107.615763 161.168873,101.499398 C157.833208,99.3308483 154.48864,97.1557009 151.443807,94.6044663 C145.958805,90.0107777 141.565164,84.3027568 137.217522,78.6438544 C134.074756,74.5523486 130.931989,70.4608427 127.788481,66.3693368 L145.590071,53.8484931 C145.590071,53.8484931 148.96209,58.2625688 152.19908,62.8621223 C155.43607,67.4616758 169.556261,85.494066 179.377776,93.128709 C189.199292,100.763352 197.788481,106.438383 197.788481,106.438383 L194.293304,112.030572 L189.393675,119.848493 Z" id="Fill-3" fill="#CCF9FF"></path>
                        <path d="M208.230918,98.3513443 C208.087016,98.2011814 207.94238,98.0510185 207.799212,97.9008556 C192.199057,81.5838893 178.70971,63.2397237 167.778295,43.4719549 L189.890751,37.3513443 C191.585271,47.3629408 195.06168,57.0521287 200.024097,65.902907 C205.220723,75.1703138 212.658108,82.6350296 220.778295,89.4748027" id="Fill-5" fill="#CCF9FF"></path>
                        <path d="M251.628198,77.6970652 C246.802441,65.4116702 245.562454,51.905709 246.773737,38.6970652 L256.107362,40.8453513 L262.870599,43.6158431 C262.145121,44.9086896 261.888943,46.419867 261.667209,47.8990026 C261.276843,50.5085406 260.962541,53.1620428 260.796061,55.820016 C260.570022,59.4422217 260.6181,63.0718789 261.121845,66.6046658 C261.530868,69.4668118 262.237689,72.2648744 263.340617,74.9466926 L251.628198,77.6970652 Z" id="Fill-7" fill="#CCF9FF"></path>
                        <path d="M273.641509,74.7572434 C272.825048,66.7118629 272.361728,58.2101375 275.680541,50.8997744 L279.574974,52.3351593 L291.050625,58.9466294 C291.050625,58.9466294 286.264866,64.6218185 286.362333,74.7572434 C284.903863,75.077938 273.641509,74.7572434 273.641509,74.7572434" id="Fill-9" fill="#CCF9FF"></path>
                        <path d="M299.122533,76.0571166 C299.357937,72.3400197 300.573049,68.6855077 302.620074,65.5450861 L304.418745,65.5450861 L316.153144,74.9641158 L321.122533,80.8262361 L317.092475,82.5450861 L310.416598,80.3195963 L302.299346,77.5055103 L299.122533,76.0571166 Z" id="Fill-11" fill="#CCF9FF"></path>
                        <path d="M97.9232511,93.4073133 C104.288481,99.7577412 132.986647,127.313853 165.76293,136.818258 C177.012451,141.101429 177.934531,142.721256 179.573456,141.698246 C181.211642,140.675235 183.923251,131.824766 183.923251,131.824766 L173.057622,126.094588 C173.057622,126.094588 138.68228,106.382778 124.299606,92.63914 C119.833167,82.3277499 112.685387,78.9950934 112.685387,78.9950934 L97.9232511,93.4073133 Z" id="Fill-13" fill="#CCF9FF"></path>
                        <path d="M216.592695,35.2217626 L208.560057,35.908576 C208.737606,42.1469461 208.924773,48.451997 210.533076,54.4814335 C212.013396,60.0292856 214.655185,65.1844612 217.27848,70.2907375 C220.487688,76.5387392 222.76624,80.9737609 225.975449,87.2217626 L233.584187,84.3678195 L242.560057,81.0574825 C239.219166,76.0297415 236.294037,70.5596838 234.161963,64.8599474 C230.799618,55.8713601 229.411033,46.3107987 231.481704,37.0139974 L226.221059,35.2217626 L216.592695,35.2217626 Z" id="Fill-15" fill="#CCF9FF"></path>
                        <path d="M98.8397661,93.762389 C122.001323,69.464434 149.32076,47.2094751 182.632175,39.4462372 C212.169831,32.5616202 243.530592,36.2977843 271.248076,48.2781079 C279.818937,51.9833398 288.072386,56.4309438 295.927787,61.4861439 C304.114528,66.7556598 313.470489,72.5731169 318.916344,80.8614652 C319.04756,80.3577127 319.17951,79.8539603 319.310726,79.3502078 C315.232017,82.3005475 309.381517,78.4053037 305.264689,76.9861064 C300.65305,75.3960456 295.8926,74.2574472 291.071308,73.539379 C282.485786,72.2615858 273.762449,72.291045 265.159334,73.3920829 C247.747848,75.6214085 230.693359,81.9897529 215.837298,91.3533622 C202.721505,99.6203526 190.652513,110.870088 184.492665,125.405261 C183.058812,128.787915 182.217267,132.227277 181.303882,135.766801 C180.647799,138.309131 179.865631,140.34108 176.985464,140.549504 C175.245929,140.675442 173.398634,140.05017 171.743399,139.614174 C162.434353,137.162431 153.225003,134.306361 144.075029,131.314778 C133.027914,127.702343 123.081844,122.773817 114.010308,115.422272 C109.916937,112.105165 104.46082,108.224651 101.783709,103.556103 C100.247229,100.878261 101.381996,98.7535154 100.908443,96.0594708 C100.641612,94.5423215 99.7597482,93.38973 98.8397661,92.2003145 C97.9718308,91.0786551 96.4258211,92.6525133 97.2842267,93.762389 C99.2920601,96.3562723 98.2159376,98.1790608 98.5560745,101.018192 C98.7598633,102.715042 99.5654891,104.254286 100.519925,105.639605 C103.102472,109.390499 107.041901,112.435845 110.485053,115.350097 C117.509905,121.296438 125.153453,126.375942 133.671534,129.892635 C143.298726,133.867419 153.503563,136.755894 163.497281,139.637741 C167.990165,140.932473 177.213444,145.333679 181.360327,140.961933 C183.538229,138.66706 183.618132,134.98024 184.440618,132.102076 C185.70147,127.686877 187.583218,123.479365 189.930455,119.541406 C194.482717,111.904842 200.715871,105.379628 207.627099,99.8589722 C222.446508,88.0215258 240.778709,80.01304 259.346953,76.5294886 C270.375742,74.4607157 281.815775,74.0924756 292.887081,76.0625602 C298.102757,76.9905252 303.205542,78.450229 308.131661,80.4011651 C312.102612,81.9735503 316.529521,84.0725189 320.420569,81.2576916 C320.882393,80.924066 321.167551,80.2833282 320.814952,79.7464342 C316.335995,72.9295734 309.438695,68.0953173 302.858074,63.4886336 C295.374332,58.2500499 287.497672,53.5697182 279.293338,49.5647388 C265.589636,42.8760255 250.919771,37.8930005 235.83353,35.5907633 C220.706239,33.2826344 205.185298,33.222243 190.077799,35.7203839 C172.612067,38.6081227 156.171144,45.4242471 141.233714,54.87918 C124.939402,65.1928488 110.568622,78.264636 97.2842267,92.2003145 C96.3056003,93.2269679 97.8582076,94.7919883 98.8397661,93.762389" id="Fill-17" fill="#00D5FF"></path>
                        <path d="M178.343231,141.487619 C179.866654,143.038911 176.664011,147.12621 176.054788,148.808307 C175.006838,151.702191 174.352052,154.732759 174.044134,157.793456 C173.456958,163.626785 174.125706,169.575487 175.796843,175.186153 C179.16998,186.5111 186.663637,194.218325 192.756596,203.86044 C187.981292,207.922018 180.905052,207.598679 175.067833,208.511377 C174.119092,208.659084 173.097598,208.89277 172.48764,209.632775 C171.841673,210.416872 171.845348,211.533127 171.89973,212.5465 C172.142243,217.033563 172.765428,221.499315 173.756058,225.882763 C174.046338,227.165831 176.593462,236.080433 178.08308,236.080433 C172.689734,236.790309 167.110462,236.030462 162.102933,233.905978 C166.477723,238.890543 173.316594,241.597771 179.917362,240.959177 C181.849383,244.479163 184.200291,247.75003 186.614399,250.9577 C203.441138,273.320998 224.834474,293.860371 251.739472,301.570535 C264.38984,305.194871 277.35621,305.560832 290.365204,306.156805 C291.05306,306.188404 291.994452,306.542607 291.805585,307.204717 C291.736506,307.446486 291.520449,307.612565 291.31762,307.761742 C281.457622,314.938397 270.367422,318.635484 259.204468,323.270989 C257.24893,324.083011 255.285308,324.897972 253.235704,325.431481 C251.130249,325.978953 248.960124,326.222192 246.798817,326.464696 C231.308105,328.201173 215.54475,329.930302 200.219388,327.078305 C196.440592,326.375043 192.719117,325.397678 189.001317,324.421047 C172.877131,320.185307 154.864282,316.017908 141.44816,305.530703 C139.158248,303.739846 137.021193,301.763804 134.886342,299.789967 C124.199595,289.103614 112.401697,279.968553 103.225146,267.827175 C94.8995961,256.812339 88.2980939,244.504148 83.6616832,231.500777 C78.6556236,217.459783 75.9387413,202.589865 75.8336523,187.677325 C75.7270934,172.523016 78.0544849,157.410593 80.7382972,142.539941 C82.2609859,134.099324 84.452423,125.743216 87.7182669,117.800836 C89.3658867,113.795842 91.2868849,109.898872 93.5312339,106.194437 C94.8562377,104.008224 98.0985651,97.0755429 101.315906,97.6274237 C102.152209,97.7707216 102.86946,98.2968823 103.507344,98.8561118 C106.307268,101.314223 108.084963,104.858459 111.081103,107.054959 C114.570353,109.613011 118.235241,112.086554 121.745803,114.67694 C125.507697,117.451776 129.273999,120.231022 133.240192,122.7053 C143.497764,129.106676 154.91499,133.373281 166.244764,137.597264 C169.190196,138.695146 172.157675,139.799643 175.25523,140.337561 C176.356827,140.528625 177.55984,140.690295 178.343231,141.487619" id="Fill-19" fill="#FFFFFF"></path>
                        <g id="Group-23" transform="translate(74.700722, 96.579224)">
                            <mask id="mask-2" fill="white">
                                <use xlink:href="#path-1"></use>
                            </mask>
                            <g id="Clip-22"></g>
                            <path d="M102.684145,46.0899057 C103.698064,47.7095094 100.916004,51.0348113 100.295655,52.5697925 C99.2802725,55.0819811 98.7528295,57.8767358 98.4075409,60.5493396 C97.6138161,66.6877925 98.1800309,72.9704717 99.8559973,78.9183396 C103.030165,90.1886038 110.872313,98.8848679 117.03191,108.546566 L117.203823,107.208792 C112.144467,111.161038 105.954877,110.297151 100.079118,111.581208 C94.8046886,112.734283 96.0702591,117.748358 96.5911181,122.064849 C97.1141718,126.398264 97.9356953,130.647792 99.3205074,134.785472 C99.9752389,136.739887 100.822366,140.647981 103.080642,141.317604 C103.177937,140.594264 103.275964,139.87166 103.372528,139.148321 C97.9693463,139.748774 92.8031852,139.040887 87.7569973,137.010679 C86.6713866,136.573585 86.0100711,138.118868 86.6896752,138.855453 C89.3385946,141.726 92.5347087,143.909264 96.2414403,145.163151 C98.0673732,145.781264 99.9825544,146.162434 101.906514,146.287528 C103.095272,146.364792 103.921185,146.087377 104.907306,146.861491 C105.600078,147.404547 106.532796,149.509811 107.031709,150.263321 C112.180313,158.032415 118.230179,165.354849 124.519259,172.210755 C136.657031,185.443528 150.974803,197.04566 167.676675,203.861094 C177.105541,207.708113 187.059655,209.597774 197.160809,210.495509 C199.917997,210.739811 202.680306,210.917887 205.444078,211.068736 C206.827427,211.143792 208.21297,211.210019 209.597051,211.275509 C210.251051,211.306415 213.303783,211.045925 213.756608,211.463887 C213.998017,211.587509 214.240158,211.710396 214.481568,211.834019 C213.777823,212.327038 213.065299,212.806075 212.341803,213.271868 C211.270091,213.964302 210.177165,214.625094 209.071071,215.260132 C206.877172,216.51917 204.621091,217.667094 202.335017,218.744377 C197.446111,221.049057 192.405044,222.999792 187.401286,225.030736 C182.132709,227.169849 177.456682,228.974151 171.775514,229.654075 C160.585823,230.994792 149.255675,232.186868 137.973078,231.675453 C126.809722,231.168453 116.154058,228.130868 105.42085,225.245604 C95.8595745,222.675283 86.2536752,219.832698 77.4371114,215.22334 C68.2050309,210.396906 61.2509772,203.155415 53.7248564,196.118491 C46.2411651,189.121302 38.5409369,182.285264 32.0353195,174.324113 C18.3774,157.608566 9.19872215,136.937094 5.08598389,115.760094 C0.629420134,92.805283 3.36246711,69.6584151 7.52860805,46.8802075 C9.76127919,34.6790943 13.2865879,22.6612075 19.493004,11.8677736 C21.1675074,8.95454717 24.0746617,1.04196226 28.3600443,3.62479245 C30.4500644,4.88383019 31.8699906,7.76835849 33.4830443,9.5564717 C35.1838832,11.4424528 37.2322054,12.8280566 39.2863799,14.2946038 C49.2397624,21.4036415 58.8171315,28.8033396 69.9373262,34.0271321 C74.8745141,36.3465283 79.9397221,38.3811509 85.0298027,40.3333585 C87.9493933,41.4533208 90.8682523,42.5938868 93.8178362,43.631434 C96.6591517,44.6321887 100.598514,44.801434 103.077715,46.4857925 C104.251843,47.2834528 105.351353,45.3709811 104.185272,44.5799434 C102.384212,43.3562264 100.306628,43.2774906 98.2356282,42.729283 C95.642306,42.042 93.135306,41.0441887 90.6261114,40.1023019 C84.8622792,37.9381698 79.098447,35.7563774 73.4772658,33.2360943 C62.9715678,28.5251887 53.9882121,22.098283 44.6676148,15.4241321 C40.3398027,12.3247358 36.2907087,9.54837736 32.9117087,5.38273585 C31.1911181,3.26201887 28.6760711,-0.311264151 25.4645946,0.669622642 C22.9436953,1.43932075 21.2413933,4.45483019 19.994843,6.56377358 C17.6356148,10.5550189 15.3634403,14.6169057 13.4892255,18.8642264 C9.02973557,28.967434 6.54980268,39.6379811 4.67266174,50.4873396 C2.71578255,61.7951321 1.06395705,73.193434 0.611131544,84.6756226 C-0.251358389,106.560509 4.11303087,128.358566 13.3260913,148.20883 C17.7204738,157.674792 23.1755946,166.71617 29.6702389,174.878208 C36.3441114,183.265415 44.3749973,190.388434 52.1732523,197.679226 C59.2202121,204.268019 65.7653329,211.210019 74.2388027,215.994509 C82.713004,220.779736 92.0445745,223.824679 101.371024,226.427377 C111.533628,229.264075 121.849856,232.395113 132.370185,233.474604 C144.093172,234.676981 155.895897,233.610736 167.564017,232.332566 C172.517299,231.790245 177.378407,231.381113 182.071991,229.583434 C187.219132,227.611358 192.328964,225.461943 197.409534,223.320623 C201.763682,221.485415 206.073937,219.52217 210.178628,217.166717 C211.858984,216.201283 218.693064,213.415358 217.499917,210.619132 C217.079279,209.632358 216.071212,209.520509 215.144346,209.319623 C212.126729,208.663981 208.534118,209.029698 205.444078,208.861189 C198.639259,208.488849 191.827125,207.948736 185.121796,206.684547 C173.741172,204.538811 163.016742,200.101642 153.230152,193.905057 C143.791776,187.928491 135.332937,180.498623 127.672212,172.371906 C119.731306,163.948642 111.844534,154.710057 106.146541,144.581094 C105.966581,144.261736 105.573011,144.008604 105.199192,144.034358 C98.6701651,144.484698 92.6956483,142.121151 88.2412792,137.294717 C87.885749,137.909887 87.5294872,138.524321 87.1732255,139.139491 C92.3993732,141.241075 97.7769503,141.97766 103.372528,141.355868 C104.548118,141.226358 104.927789,139.562604 103.664413,139.188057 C102.214494,138.759057 101.06085,133.083453 100.666548,131.733906 C99.4938832,127.723528 98.8720711,123.535811 98.5055678,119.380472 C98.3438966,117.547472 97.8025544,115.238377 99.7126148,113.902811 C100.50195,113.350189 102.102568,113.514283 103.005293,113.410528 C104.744172,113.210377 106.488903,113.066151 108.22193,112.818906 C112.125447,112.260396 115.616373,111.222113 118.755427,108.769528 C119.121199,108.484019 119.165091,107.805566 118.92734,107.432491 C112.355883,97.1254528 104.034574,87.9928302 101.312501,75.7063585 C99.7711383,68.7481698 99.7652859,61.2263208 101.988447,54.4064717 C102.875809,51.6853019 106.422333,47.9192264 104.578843,44.9758302 C103.828279,43.7763962 101.92846,44.8831132 102.684145,46.0899057" id="Fill-21" fill="#00D5FF" mask="url(#mask-2)"></path>
                        </g>
                        <path d="M135.534514,161.738505 C139.054781,165.711968 143.141315,168.650067 148.704115,168.846181 C153.928328,169.030037 158.718475,166.617552 161.983149,162.696 C162.873315,161.626749 161.32287,160.087401 160.424625,161.166747 C157.50882,164.669394 153.384093,166.837458 148.704115,166.683163 C143.768544,166.520216 140.185849,163.699641 137.092304,160.209251 C136.160274,159.156582 134.607626,160.692325 135.534514,161.738505" id="Fill-24" fill="#00D5FF"></path>
                        <path d="M155.89742,167.399781 C156.857288,168.277086 157.636979,169.319725 158.121761,170.520579 C158.361728,171.11626 158.932963,171.532367 159.612466,171.349628 C160.19178,171.193786 160.700801,170.488936 160.459218,169.890091 C159.81769,168.300818 158.891757,166.89191 157.611932,165.721907 C156.471887,164.680059 154.754143,166.354769 155.89742,167.399781" id="Fill-26" fill="#00D5FF"></path>
                        <path d="M151.090895,168.39757 C151.405074,169.335284 151.719253,170.272999 152.03411,171.210714 C152.220039,171.76664 152.726932,172.139686 153.286076,171.974292 C153.785505,171.827114 154.183827,171.188127 153.997219,170.630016 C153.682362,169.692301 153.368183,168.754586 153.054004,167.816871 C152.868075,167.260946 152.361182,166.8879 151.802038,167.053293 C151.302609,167.200472 150.904287,167.839458 151.090895,168.39757" id="Fill-28" fill="#00D5FF"></path>
                        <path d="M148.163221,167.913697 C148.037752,169.134159 147.912836,170.354621 147.78792,171.575866 C147.723804,172.202547 147.89736,172.837846 148.367177,173.02115 C148.756848,173.172337 149.322286,172.832362 149.386955,172.200197 C149.511871,170.979735 149.63734,169.75849 149.762256,168.538028 C149.826372,167.911347 149.652816,167.276048 149.183,167.092744 C148.793328,166.940774 148.22789,167.281532 148.163221,167.913697" id="Fill-30" fill="#00D5FF"></path>
                        <path d="M143.80322,165.452889 C143.23966,166.966891 142.417579,168.356716 141.391122,169.574604 C140.421859,170.724831 142.033992,172.420322 143.008592,171.26293 C144.311873,169.717089 145.295625,168.005678 146.009416,166.088102 C146.543235,164.654496 144.3317,164.033612 143.80322,165.452889" id="Fill-32" fill="#00D5FF"></path>
                        <path d="M141.350433,164.335895 C140.575898,165.752449 139.434109,166.788449 138.071125,167.306862 C136.786787,167.795556 137.336616,170.187849 138.631486,169.695027 C140.528148,168.972716 142.091261,167.557813 143.16915,165.585699 C143.904361,164.240963 142.08143,162.997763 141.350433,164.335895" id="Fill-34" fill="#00D5FF"></path>
                        <path d="M175.569914,227.73976 C177.217752,226.170778 177.306408,223.495569 176.783262,221.245309 C176.547333,220.232843 176.194173,219.210547 175.496645,218.458192 C174.423242,217.299036 172.702868,216.991288 171.17446,217.275595 C169.646052,217.559146 168.256857,218.349308 166.899168,219.127372 C162.126374,221.861559 157.354312,224.595747 152.582251,227.329934 C150.350453,228.60856 148.004355,229.921212 145.453101,229.982459 C142.901114,230.043706 140.114664,228.402135 139.749048,225.794978 C139.354856,222.980641 142.545755,220.368191 145.111663,221.404853 C145.511716,221.56591 145.90371,221.814679 146.105934,222.206357 C146.816651,223.586305 144.748978,225.437326 145.692693,226.659998 C147.85928,226.476257 149.273387,223.716361 148.484272,221.626401 C147.694423,219.535686 145.214974,218.442313 143.095279,218.939851 C140.976317,219.437388 139.299171,221.261188 138.529106,223.358708 C137.975186,224.867956 137.850627,226.617654 138.540829,228.065654 C139.85016,230.810427 143.395685,231.417604 146.344061,231.100027 C151.48467,230.548048 156.401072,228.275104 161.620812,229.027459 C165.477734,229.583219 172.405392,230.752205 175.569914,227.73976" id="Fill-36" fill="#CCF9FF"></path>
                        <path d="M176.229926,228.408694 C178.406575,225.822586 178.668006,221.706259 176.915181,218.733686 C175.030547,215.537725 171.311527,215.776752 168.349128,217.079114 C162.719986,219.552782 157.441119,223.258817 152.059572,226.251494 C150.667944,227.024422 149.239176,227.885962 147.705545,228.32604 C146.447908,228.775053 145.18299,228.830156 143.910061,228.492093 C141.406441,227.847986 140.719729,226.08842 141.849927,223.213394 C142.940072,223.258072 144.029489,223.30275 145.118907,223.345939 C144.923016,223.857501 144.735135,224.371298 144.555993,224.888072 C144.420544,225.711636 144.418359,226.086186 144.709647,226.852412 C144.930298,227.434715 145.427672,227.77948 146.053213,227.632787 C151.521418,226.349786 150.549244,218.750068 145.317711,217.82598 C139.878635,216.865404 135.033787,224.012385 137.938657,228.877812 C141.469068,234.790193 150.556526,231.127346 155.518618,230.251659 C162.151247,229.080352 170.404165,233.102856 176.229926,228.408694 C177.333179,227.519603 175.777701,225.947684 174.684643,226.828584 C171.807445,229.147369 167.42356,228.536771 164.027141,228.110841 C160.69335,227.691613 157.638467,227.571727 154.309773,228.22328 C150.727658,228.923979 146.769782,230.510046 143.07989,229.712545 C139.367424,228.910576 138.392338,224.474801 140.860276,221.669027 C141.612527,220.8127 142.953908,219.99286 144.100127,219.954139 C146.795998,219.864038 148.856132,224.684788 145.472093,225.478566 C145.919949,225.738442 146.368532,225.999064 146.81566,226.25894 C146.135502,224.465121 148.240058,222.89767 146.735555,221.139593 C145.643225,219.864038 143.596927,219.840955 142.162333,220.410598 C138.165861,221.998899 137.746407,227.05942 141.102773,229.54128 C145.773577,232.99265 151.339363,229.214386 155.533182,226.833797 C159.090537,224.814354 162.64498,222.789699 166.205248,220.775468 C167.773834,219.887122 170.152201,218.064262 172.016444,218.335308 C175.829405,218.887825 177.044076,224.025788 174.684643,226.828584 C173.772183,227.913513 175.310912,229.500325 176.229926,228.408694" id="Fill-38" fill="#00D5FF"></path>
                        <path d="M331.011336,187.662548 C329.460699,182.169888 321.967191,180.859468 317.073411,181.488025 C315.24455,181.722716 313.465398,182.242442 311.705537,182.791782 C309.696386,183.4196 308.753391,185.591788 308.295619,187.512997 C305.902148,197.565475 309.444129,208.848415 304.762542,218.064297 C307.770332,217.377992 310.332963,215.011832 311.252958,212.073381 C312.943078,214.076029 314.169491,216.466621 314.809778,219.006022 C316.54664,217.882911 317.890278,216.165298 318.560242,214.210773 C319.641236,215.921723 320.721488,217.632672 321.802482,219.343622 C322.237996,217.533465 322.910186,215.448639 324.670789,214.832667 C328.180867,213.603686 331.234657,219.496134 334.762542,218.320458 C331.121142,215.329442 330.950498,209.924884 331.08182,205.220698 C331.192367,201.205037 331.304399,197.189377 331.415689,193.173716 C331.466882,191.325061 331.514366,189.44235 331.011336,187.662548" id="Fill-40" fill="#FFFFFF"></path>
                        <path d="M332.00108,187.477497 C330.638401,183.605841 327.298473,181.563673 323.374962,180.774771 C319.444073,179.984397 313.530032,180.130108 310.152478,182.494608 C306.249624,185.226329 306.403083,192.04901 306.318238,196.231959 C306.175109,203.396105 307.016915,210.741286 303.876926,217.434446 C303.488854,218.260144 304.133673,219.347828 305.125986,219.05567 C308.655523,218.018027 311.050356,215.735951 312.353274,212.329394 C311.737228,212.492031 311.120445,212.653933 310.503661,212.81657 C312.04562,214.768957 313.071134,216.836882 313.756531,219.219779 C313.936549,219.84678 314.789422,220.312615 315.381859,219.879896 C317.382717,218.419102 318.687111,216.739741 319.619664,214.453984 C318.946072,214.542294 318.271741,214.629868 317.597411,214.718178 C318.672355,216.418145 319.746562,218.118848 320.821507,219.819551 C321.317295,220.604038 322.595867,220.501009 322.843761,219.556093 C323.460544,217.207048 324.746494,215.180334 327.67843,216.488793 C328.689187,216.93991 329.530256,217.844351 330.484943,218.404384 C331.973044,219.278652 333.25678,219.648082 334.9581,219.309561 C335.771133,219.148395 336.029356,218.006253 335.44651,217.464618 C331.524474,213.821832 332.029853,208.119216 332.165604,203.228316 C332.308734,198.077637 333.061269,192.549433 332.00108,187.477497 C331.710394,186.087351 329.576736,186.676084 329.866684,188.064023 C331.826226,197.440333 325.825865,211.542699 333.881679,219.026233 C334.044729,218.411007 334.20704,217.795781 334.370089,217.180555 C331.007291,217.849503 328.820512,213.252969 325.370655,213.515691 C322.452738,213.737938 321.349757,216.529269 320.709365,218.968831 C321.383695,218.881257 322.057288,218.792947 322.732356,218.705373 C321.657411,217.004671 320.582467,215.303968 319.50826,213.603265 C318.960827,212.737091 317.836451,213.006437 317.485268,213.867459 C316.778475,215.59907 315.776571,216.869998 314.264861,217.973137 L315.890189,218.633254 C315.099289,215.88019 313.842851,213.501709 312.068491,211.255692 C311.501139,210.535966 310.480052,211.06141 310.219616,211.742132 C309.195578,214.417924 307.243413,216.131138 304.537976,216.926663 C304.954821,217.466826 305.370929,218.007725 305.787775,218.548623 C309.589552,210.445448 308.053495,201.74618 308.662901,193.119032 C308.81267,190.990026 308.852511,187.079367 310.417341,185.350699 C312.368768,183.195936 316.351301,182.657981 319.11281,182.600579 C323.257655,182.513741 328.341693,183.731683 329.866684,188.064023 C330.335911,189.396031 332.475472,188.823488 332.00108,187.477497" id="Fill-42" fill="#00D5FF"></path>
                        <path d="M198.578375,108.826439 C199.910846,108.826439 199.912916,106.826439 198.578375,106.826439 C197.246595,106.826439 197.243835,108.826439 198.578375,108.826439" id="Fill-44" fill="#00D5FF"></path>
                        <path d="M147.81925,54.8497319 C149.15103,54.8497319 149.15379,52.8497319 147.81925,52.8497319 C146.486779,52.8497319 146.484709,54.8497319 147.81925,54.8497319" id="Fill-46" fill="#00D5FF"></path>
                        <path d="M318.841798,81.3584832 C325.138379,114.534268 310.812432,148.213087 319.735398,181.180261 C320.109391,182.560643 322.328062,181.975497 321.953302,180.589936 C313.045664,147.678244 327.354751,113.943944 321.058936,80.7688986 C320.792236,79.3663235 318.575864,79.9603466 318.841798,81.3584832" id="Fill-48" fill="#00D5FF"></path>
                        <path d="M319.549424,182.183626 C316.31857,181.944459 312.111773,182.298425 311.222307,185.229242 C310.85969,186.425759 311.241928,187.733659 311.940275,188.790775 C313.809316,191.621825 317.590274,192.783492 321.12125,193.057508 C323.017906,193.204425 324.990863,193.146342 326.729101,192.416542 C328.466612,191.686742 329.927254,190.167008 330.071138,188.382142 C330.275338,185.839459 327.802419,183.714292 325.197243,183.004992 C322.592066,182.295692 319.814665,182.576542 317.109206,182.401609" id="Fill-50" fill="#CCF9FF"></path>
                        <path d="M319.844808,181.269183 C315.789275,181.040917 309.556274,181.838376 309.95472,187.134893 C310.360727,192.527872 316.793329,194.835571 321.480177,195.195643 C325.943986,195.538779 332.620041,193.66994 331.879853,188.048695 C330.999037,181.361226 322.284631,181.71688 317.305942,181.504076 C315.84598,181.441487 315.849004,183.651253 317.305942,183.713106 C320.607678,183.854484 325.2227,183.235219 327.83188,185.62539 C333.466834,190.78642 325.415496,193.318704 321.480177,192.986613 C318.433991,192.72963 314.503964,191.736303 312.907155,188.935989 C309.957744,183.760232 316.594484,183.294863 319.844808,183.478213 C321.303258,183.560683 321.297965,181.350917 319.844808,181.269183" id="Fill-52" fill="#00D5FF"></path>
                        <path d="M325.314644,208.881203 C324.606634,206.939651 324.195676,204.87328 324.087911,202.711771 C324.014765,201.253514 322.339105,201.242098 322.412809,202.711771 C322.541792,205.288837 323.02478,207.720534 323.867914,210.0335 C324.34811,211.349433 325.793164,210.194091 325.314644,208.881203" id="Fill-54" fill="#00D5FF"></path>
                        <path d="M316.556676,206.339443 C316.646963,204.400645 316.736675,202.461848 316.827538,200.522294 C316.895397,199.064415 315.17016,199.069708 315.1023,200.522294 C315.011438,202.461848 314.921726,204.400645 314.831438,206.339443 C314.763579,207.797322 316.488816,207.792029 316.556676,206.339443" id="Fill-56" fill="#00D5FF"></path>
                        <path d="M36.7213547,137.371188 C35.5680369,134.325146 32.8969266,132.177779 30.3331866,130.198037 C22.9589647,124.503969 15.4043314,118.827624 9.71224424,111.418174 C4.02088752,104.008724 0.332315721,94.4836593 1.94067911,85.2451071 C2.52208567,81.9051686 3.89452654,78.5342158 6.5546807,76.4688149 C10.0920576,73.7211007 15.3115693,73.9293392 19.1688658,76.1948558 C23.0268928,78.4603723 25.6527177,82.4412719 27.2523162,86.6518246 C28.0499242,82.7846439 28.8862439,78.8192514 31.0000512,75.4962969 C33.1131281,72.1726039 36.8163081,69.5821762 40.7057427,69.9691158 C46.0318943,70.4978348 49.4918477,76.3639572 49.5605062,81.7737273 C49.6291648,87.1842357 47.2779742,92.2742637 45.3935157,97.3384465 C40.4785851,110.546083 38.5291201,124.87171 39.7335666,138.930761" id="Fill-58" fill="#FFFFFF"></path>
                        <g id="Group-62" transform="translate(0.432566, 68.913724)">
                            <mask id="mask-4" fill="white">
                                <use xlink:href="#path-3"></use>
                            </mask>
                            <g id="Clip-61"></g>
                            <path d="M36.8957971,68.1135429 C34.1530435,61.9472571 26.9023188,58.1944408 21.9457971,54.0933796 C15.6349275,48.8719102 9.64217391,43.0083184 5.86753623,35.5893796 C2.31318841,28.6053796 -0.0773913043,18.094849 4.73565217,11.0704408 C7.52188406,7.00537959 12.8363768,6.25158367 17.0892754,8.27125714 C21.2262319,10.237298 23.847971,14.3471755 25.5146377,18.5004 C25.8769565,19.4033388 27.366087,19.6817878 27.6110145,18.5004 C28.9255072,12.1577878 32.9530435,-1.06082449 42.0856522,3.40317551 C50.082029,7.31248163 47.5052174,17.9457061 45.066087,24.4653796 C39.5073913,39.3230939 36.6124638,54.2799918 37.8581159,70.2213796 C37.9675362,71.6261143 40.1428986,71.6378694 40.032029,70.2213796 C39.1907246,59.4529714 40.032029,48.6441551 42.7573913,38.1887265 C44.9755072,29.6817061 50.9965217,20.3496245 49.6008696,11.2981959 C48.7015942,5.46325714 44.074058,-0.442212245 37.6878261,0.597379592 C29.5131884,1.92644082 26.9624638,10.9315837 25.5146377,17.914849 L27.6110145,17.914849 C24.7733333,10.8441551 18.9530435,3.99533878 10.6465217,5.07386939 C2.01101449,6.19501224 -0.513623188,15.8709306 0.0827536232,23.4177061 C0.826231884,32.8247265 5.78130435,41.2274204 12.0755072,47.9469306 C15.6805797,51.7967265 19.7327536,55.1755837 23.8588406,58.4317469 C27.8305797,61.5666857 32.8776812,64.4121551 35.0189855,69.2258694 C35.5928986,70.5167265 37.4668116,69.3977878 36.8957971,68.1135429" id="Fill-60" fill="#00D5FF" mask="url(#mask-4)"></path>
                        </g>
                        <path d="M75.3042517,54.3145791 C67.4518506,44.737638 59.4007639,34.7908736 55.9309644,22.7856734 C55.0822312,19.847798 54.5207284,16.7405436 55.037599,13.7227865 C55.5537496,10.7050293 57.3116854,7.77898825 60.0457723,6.55487351 C62.9807044,5.23978227 66.6203945,6.17617457 68.8908816,8.49570558 C71.1620885,10.8137573 72.1101645,14.3019296 71.7444677,17.5696872 C74.0790237,12.7989682 72.9437802,5.82928043 77.4106072,3.09998533 C80.9970265,0.909152787 85.9015378,3.59998627 87.6515549,7.49126582 C89.4015721,11.383285 88.8803823,15.9091811 88.2152174,20.140698 C86.3255444,32.1658687 83.3898924,44.4403001 76.2256922,54.1452001" id="Fill-63" fill="#FFFFFF"></path>
                        <g id="Group-67" transform="translate(52.968559, 0.331616)">
                            <mask id="mask-6" fill="white">
                                <use xlink:href="#path-5"></use>
                            </mask>
                            <g id="Clip-66"></g>
                            <path d="M23.1279922,52.7954662 C16.2134824,44.6019527 9.11940392,36.1943851 4.99752157,26.1851284 C2.8576,20.9861419 0.386109804,13.7685068 4.31426667,8.81553378 C6.81705098,5.65823649 10.9620314,5.32377703 14.1450902,7.74823649 C16.963051,9.89397973 17.7677569,13.277223 17.5352863,16.6604662 C17.4622667,17.7277635 19.1640706,18.2309392 19.6178353,17.2231014 C21.4187373,13.2274257 20.9269725,5.47688514 25.0816392,3.08289865 C28.9263451,0.866547297 33.2710118,4.55972297 34.5145804,8.02026351 C35.7596392,11.4845203 35.1680314,15.4244527 34.6233647,18.9474257 C32.7717961,30.9158716 29.6289725,42.9705338 22.3262667,52.8512095 C21.4716392,54.0069527 23.4111294,55.1203311 24.2560706,53.9764797 C29.0708941,47.4619527 32.1414431,39.9945878 34.1837569,32.1979662 C36.0420314,25.1066824 38.7608941,15.9774257 37.0173647,8.65127703 C35.8192471,3.61803378 30.6184627,-1.33047973 25.0995216,0.622763514 C18.8556,2.83168243 19.9084235,11.1716149 17.6880314,16.0978311 C18.3817176,16.2851284 19.076149,16.4724257 19.7705804,16.6604662 C20.1677176,10.8862095 17.0792863,4.81762838 10.8383451,3.97925 C4.9848549,3.19289865 0.810070588,8.01060135 0.161090196,13.4466824 C-0.719615686,20.8285743 3.28081569,28.8102635 6.93924706,34.9836419 C11.0715608,41.95675 16.332698,48.1933041 21.5468941,54.3726284 C22.4752863,55.4711419 24.0489333,53.8872905 23.1279922,52.7954662" id="Fill-65" fill="#00D5FF" mask="url(#mask-6)"></path>
                        </g>
                        <path d="M19.8794952,34.8189321 C13.7418546,34.5323778 8.77610758,29.7187035 4.89166943,24.8407008 C3.58568223,23.2003234 2.30679908,21.4722253 1.67769985,19.4553799 C1.04931387,17.4392654 1.17698821,15.057648 2.49153458,13.4245807 C2.91877998,12.8931393 3.48439868,12.4450327 4.14416829,12.3185687 C5.08995694,12.1380102 6.02861295,12.6365563 6.81463037,13.2045479 C8.51219974,14.4297139 9.92802966,16.0620502 10.9173274,17.9341564 C10.6826634,16.0145348 10.7062012,14.0620179 10.9858008,12.1489753 C11.1477119,11.0385772 11.5428604,9.76443383 12.5806601,9.4055099 C13.2233114,9.18328409 13.9415687,9.39819984 14.5207394,9.7600478 C16.1605344,10.7849182 16.9258671,12.85001 17.0407027,14.814954 C17.1555383,16.779167 16.7389918,18.7302219 16.5735145,20.6915109 C16.1412762,25.8114767 17.4857797,31.0710646 20.3124467,35.3152852" id="Fill-68" fill="#FFFFFF"></path>
                        <path d="M20.5709634,34.6909857 C15.0359282,34.1965751 10.7810092,30.5638628 7.22224165,26.4992948 C5.15756209,24.1410465 2.45913957,21.1693069 2.35066774,17.8199763 C2.26448464,15.1821146 4.81208674,13.6928533 7.11897053,15.1225743 C8.50384376,15.9810099 9.47340361,17.6149768 10.2735691,18.9836501 C10.8010691,19.8873061 12.4608367,19.5760385 12.350136,18.4131183 C12.1970867,16.8221109 12.1071888,15.2318572 12.278812,13.6363277 C12.5774811,10.8484848 15.2179529,10.6058015 16.1852838,13.4810707 C17.1362698,16.3081047 16.0292627,19.5963877 15.9415937,22.4754253 C15.7840867,27.6373437 17.3220092,32.5867258 20.0598085,36.9037748 C20.8339704,38.1239743 22.7634317,36.9912011 21.984069,35.7627112 C19.2009493,31.3733095 17.8569388,26.4789456 18.2417909,21.2559795 C18.5018261,17.7212449 19.5360233,13.8051509 17.2774317,10.6713712 C16.0144036,8.91907741 13.5143508,7.50593724 11.6004916,9.16929743 C9.35378741,11.1220687 9.87534375,15.8476095 10.1212628,18.4131183 C10.8129564,18.2224386 11.505393,18.0325126 12.1978296,17.8425865 C10.7022557,15.2838607 7.40352334,10.7565365 3.88487548,11.5335751 C0.448695924,12.2917719 -0.297233649,16.8884343 0.40709029,19.7493837 C1.51558324,24.2518367 5.5617311,28.4324705 8.88052333,31.4313424 C12.2513226,34.4776958 16.0307486,36.546533 20.5709634,36.95201 C21.9996711,37.079381 21.9907556,34.8176031 20.5709634,34.6909857" id="Fill-70" fill="#00D5FF"></path>
                        <path d="M112.615319,80.352057 C130.543497,104.245668 155.063951,122.477091 183.068486,132.697871 C184.399837,133.184189 184.973556,131.05204 183.652463,130.5694 C156.237035,120.564189 132.069019,102.635152 114.513062,79.2381597 C113.672633,78.1169051 111.763166,79.2160878 112.615319,80.352057" id="Fill-72" fill="#00D5FF"></path>
                        <path d="M128.547805,66.9366621 C133.521625,71.0153902 136.110918,77.1673002 140.226778,82.0223688 C144.771985,87.3839701 149.985799,92.2735916 155.270804,96.8926703 C165.462842,105.799266 176.630268,113.509738 188.516942,119.966009 C189.763149,120.643101 190.875782,118.739008 189.628107,118.061916 C177.529328,111.490224 166.17842,103.629041 155.86822,94.4886615 C150.933298,90.1136596 146.041678,85.5107546 141.783436,80.4623361 C137.669778,75.5866828 135.103971,69.4766776 130.104463,65.3766295 C129.016784,64.4848672 127.449851,66.0360778 128.547805,66.9366621" id="Fill-74" fill="#00D5FF"></path>
                        <path d="M146.115239,53.9021369 C158.04946,76.0934994 176.206319,94.587157 198.305793,107.088083 C199.553296,107.794189 200.678801,105.893643 199.432042,105.189004 C177.639794,92.8611214 159.809503,74.6724897 148.041913,52.7920188 C147.369436,51.5403864 145.442018,52.6505045 146.115239,53.9021369" id="Fill-76" fill="#00D5FF"></path>
                        <path d="M166.037951,44.8289829 C173.295385,54.00296 178.261505,64.6614229 185.44773,73.8936151 C192.422552,82.8536516 200.659858,90.7432573 208.875654,98.5899294 C209.902999,99.5708544 211.477767,98.0281534 210.448938,97.0465007 C201.740611,88.7297415 192.944755,80.362044 185.77114,70.6910552 C179.222833,61.8649135 174.44438,51.9232244 167.611235,43.2848265 C166.734468,42.176556 165.170085,43.7316277 166.037951,44.8289829" id="Fill-78" fill="#00D5FF"></path>
                        <path d="M189.010608,38.5242997 C190.925047,49.2483235 193.622202,59.6912948 199.627642,68.9007172 C205.257788,77.5370273 212.719867,84.7387223 220.107471,91.8325459 C221.126753,92.8114598 222.677581,91.2572322 221.656108,90.2761168 C214.406501,83.3151143 207.044452,76.2653198 201.518717,67.789716 C195.614767,58.7351293 193.003039,48.4734111 191.122917,37.9394463 C190.873937,36.5466588 188.763089,37.1366489 189.010608,38.5242997" id="Fill-80" fill="#00D5FF"></path>
                        <path d="M208.309647,35.6043253 C210.731604,53.9322557 216.492362,71.54802 225.292045,87.670009 C225.97071,88.9133443 227.830939,87.7970759 227.15084,86.5507855 C218.437246,70.5868915 212.782664,53.1580338 210.385098,35.0155325 C210.19929,33.6081922 208.124557,34.2073276 208.309647,35.6043253" id="Fill-82" fill="#00D5FF"></path>
                        <path d="M230.92167,35.8003586 C226.893872,51.787321 234.160517,66.8502455 241.736041,80.4737322 C242.42446,81.7129003 244.313424,80.6003732 243.622819,79.3589962 C236.348889,66.2781518 229.150721,51.7792219 233.029179,36.3871779 C233.375938,35.0095882 231.269157,34.4212962 230.92167,35.8003586" id="Fill-84" fill="#00D5FF"></path>
                        <path d="M245.123537,40.1200634 C244.45688,53.0676162 245.063061,66.1480586 249.760248,78.3225026 C250.261841,79.6242328 252.327266,79.056699 251.817847,77.7373481 C247.187539,65.7339718 246.60128,52.8855355 247.257975,40.1200634 C247.331258,38.7030644 245.196819,38.7074696 245.123537,40.1200634" id="Fill-86" fill="#00D5FF"></path>
                        <path d="M260.345155,44.0193854 C257.236858,54.3960388 257.408139,65.2124857 260.863587,75.4908409 C261.312435,76.8247844 263.527623,76.2546546 263.075715,74.9105172 C259.736494,64.97657 259.552214,54.6312264 262.557284,44.5997091 C262.962547,43.2461059 260.749654,42.6679666 260.345155,44.0193854" id="Fill-88" fill="#00D5FF"></path>
                        <path d="M275.945071,49.6237442 C272.217116,57.4450313 271.13613,65.7946351 272.769011,74.2594412 C273.037357,75.6506749 275.235816,75.0614552 274.968231,73.6738903 C273.45698,65.8393952 274.462707,57.9755493 277.914714,50.7346766 C278.523623,49.456444 276.558541,48.33744 275.945071,49.6237442" id="Fill-90" fill="#00D5FF"></path>
                        <path d="M291.226705,59.3342128 C287.751982,63.2117808 284.036691,71.3503493 287.156454,76.492091 C287.869146,77.6661724 289.669596,76.5821831 288.952744,75.4008943 C286.347395,71.1074607 289.896992,63.9887359 292.697153,60.8636179 C293.608817,59.8459364 292.140449,58.3129277 291.226705,59.3342128" id="Fill-92" fill="#00D5FF"></path>
                        <path d="M302.536035,65.6113781 C299.89249,68.9023348 298.466527,72.8010454 298.429262,77.0811687 C298.415573,78.5935051 300.697113,78.5942882 300.710802,77.0811687 C300.742744,73.4518748 301.895683,70.0779002 304.149084,67.2733034 C305.079192,66.1165345 303.472988,64.445211 302.536035,65.6113781" id="Fill-94" fill="#00D5FF"></path>
                        <path d="M60.9093145,15.6926792 C60.177817,19.2587043 61.7513425,22.7339425 65.0465353,24.7509601 C66.2823285,25.5075176 67.4367589,23.6798154 66.2086414,22.9281843 C63.8222557,21.4671485 62.5987436,18.8455887 63.1299044,16.2542912 C63.402393,14.9262688 61.1833382,14.3569153 60.9093145,15.6926792" id="Fill-96" fill="#00D5FF"></path>
                        <path d="M11.2111899,88.6832056 C9.2671662,96.562612 11.296423,104.665705 16.6810207,110.55341 C17.6292383,111.590369 19.1343119,110.017895 18.1875148,108.982417 C13.32639,103.666521 11.5109261,96.386329 13.2660166,89.2735315 C13.6076591,87.8884506 11.5528324,87.2966434 11.2111899,88.6832056" id="Fill-98" fill="#00D5FF"></path>
                    </g>
                </g>
            </g>
        </g>
    </g>
</svg>