<?xml version="1.0" encoding="UTF-8"?>
<svg width="247px" height="284px" viewBox="0 0 247 284" version="1.1" xmlns="http://www.w3.org/2000/svg" xmlns:xlink="http://www.w3.org/1999/xlink">
    <!-- Generator: Sketch 53.2 (72643) - https://sketchapp.com -->
    <title>Group 139</title>
    <desc>Created with Sketch.</desc>
    <defs>
        <polygon id="path-1" points="0.188822649 0.259840909 47.8749356 0.259840909 47.8749356 36.7149651 0.188822649 36.7149651"></polygon>
        <polygon id="path-3" points="0.0198394381 0.394041261 15.8746691 0.394041261 15.8746691 57 0.0198394381 57"></polygon>
    </defs>
    <g id="projects" stroke="none" stroke-width="1" fill="none" fill-rule="evenodd">
        <g id="project-snooze-2@2x" transform="translate(-305.000000, -24049.000000)">
            <g id="website" transform="translate(-1012.000000, 19844.000000)">
                <g id="sales" transform="translate(15.000000, 3861.000000)">
                    <g id="text" transform="translate(1252.000000, 0.000000)">
                        <g id="Group-139" transform="translate(50.000000, 344.000000)">
                            <path d="M105.499858,128 C106.166144,128 106.167284,127 105.499858,127 C104.833951,127 104.832811,128 105.499858,128" id="Fill-1" fill="#004DF1"></path>
                            <path d="M220.029168,108.15136 C218.888216,109.19062 217.504796,109.67083 216.239533,110.498866 C215.015707,111.299918 213.949424,112.291537 212.666109,113.00869 C209.728598,114.650005 206.489952,115.276091 203.174585,114.936276 C202.954682,114.913931 202.671598,115.129372 202.635495,115.358305 C201.909733,119.93864 196.622624,120.200879 193.239153,121.597662 C191.924248,122.14027 190.718063,122.897476 189.443774,123.526091 C187.492545,124.488619 185.866658,124.487776 183.804656,124.759291 C182.778989,124.894205 180.451135,125.723927 181.118229,127.24129 C181.702039,128.568508 184.153383,128.040234 185.156896,127.901947 C187.701371,127.550749 190.059585,127.220209 192.659036,127.30959 C194.788731,127.382949 196.957401,127.568878 199.038685,128.051196 C200.587853,128.409983 201.95117,129.146952 203.447003,129.650772 C205.332999,130.286133 207.416334,130.032748 209.205918,130.989795 C210.661135,131.768081 211.704033,133.07717 212.708777,134.364757 C214.568106,136.748099 218.242866,139.872205 217.436282,143.28469 C217.266431,144.002686 218.344202,144.309194 218.514463,143.589933 C219.104427,141.094864 217.753828,138.928649 216.309279,137.027203 C214.693648,134.900197 212.923346,132.296354 210.802267,130.683708 C209.634647,129.796226 208.415744,129.352696 206.985554,129.13599 C204.905501,128.82105 203.322692,128.271696 201.366539,127.549906 C198.163586,126.368142 194.548314,126.132464 191.173459,126.135837 C188.788988,126.137945 186.617856,126.639657 184.270309,126.862265 C184.006097,126.887562 182.68832,127.104689 182.509444,126.879129 C181.783682,125.964243 184.706423,125.85589 184.607138,125.861371 C186.117741,125.778314 187.353875,125.682188 188.780373,125.093203 C190.256513,124.48356 191.599727,123.592705 193.048379,122.924459 C194.906067,122.067332 196.92417,121.727096 198.817551,120.9779 C201.174534,120.04615 203.287819,118.349183 203.713676,115.663548 C203.533979,115.803943 203.354282,115.94476 203.174585,116.085155 C206.450977,116.421175 209.678136,115.830083 212.632057,114.321574 C214.249739,113.495225 215.537567,112.267506 217.067452,111.32142 C218.349536,110.5288 219.686185,109.995889 220.819753,108.963796 C221.359254,108.472624 220.566618,107.662296 220.029168,108.15136" id="Fill-3" fill="#004DF1"></path>
                            <path d="M103.776074,90.1093993 C101.887505,91.5257033 98.9157916,93.0381996 99.0221607,95.6792671 C99.0772078,97.0495845 99.2108935,97.6794749 98.3562155,98.7658565 C97.9477084,99.2847882 97.4034461,99.7104811 96.921267,100.157269 C95.8526091,101.14788 94.7802262,102.13385 93.7070156,103.119399 C91.3358532,105.297647 88.9340632,107.41936 86.2632462,109.213683 C85.8998529,109.457961 85.8837113,110.178137 86.3981736,110.264203 C100.128482,112.557629 113.768564,114.593698 127.724855,113.840614 C134.601185,113.469767 141.455578,112.597709 148.208569,111.225704 C149.786722,110.905485 151.359081,110.558265 152.925232,110.183199 C154.916446,109.706879 154.305548,109.724599 155.480161,108.335296 C157.055417,106.470939 159.627729,106.680199 161.799811,106.605523 C166.020637,106.460391 170.452132,106.259147 174.59432,105.370213 C175.304551,105.217908 175.004069,104.109166 174.295079,104.261471 C170.496832,105.076573 166.448597,105.238159 162.580817,105.422106 C160.9054,105.501844 159.174108,105.338992 157.545046,105.818266 C156.711476,106.063387 155.896532,106.440562 155.226861,107.008434 C154.506283,107.619761 154.216148,108.46524 153.407825,108.885026 C151.996468,109.617437 149.865361,109.714051 148.303349,110.035958 C146.595235,110.387397 144.880498,110.707194 143.160795,110.995349 C139.506581,111.606676 135.828361,112.067808 132.138139,112.383808 C125.046588,112.990494 117.91696,113.072342 110.820442,112.506579 C102.723558,111.861079 94.7061404,110.493293 86.6978283,109.155883 C86.742942,109.506057 86.7880558,109.85623 86.8327557,110.206404 C89.1641848,108.639905 91.307295,106.838832 93.3928749,104.950004 C95.3571856,103.17087 97.702273,101.418737 99.3520292,99.330353 C99.8693887,98.6751489 100.254718,97.978599 100.31349,97.1183535 C100.385093,96.068255 99.9550635,95.1805863 100.572998,94.2211953 C101.386287,92.9580394 103.163934,91.988523 104.345584,91.10212 C104.923785,90.6684111 104.361725,89.6697839 103.776074,90.1093993" id="Fill-5" fill="#004DF1"></path>
                            <path d="M169.309995,175.691511 C160.278522,178.740347 151.039434,181.085318 141.795373,183.380785 C133.496149,185.441631 125.356469,187.960488 116.79327,186.031929 C113.221956,185.227809 109.81433,185.479486 106.184584,185.266912 C101.68501,185.003171 97.2206592,184.357128 92.7687408,183.675311 C88.9666044,183.092916 85.1143253,182.632408 81.3453411,181.857407 C77.6741556,181.103206 74.1571276,179.75621 70.4726813,178.987033 C66.6436088,178.187488 62.8087346,177.048491 59.3178139,175.248059 C58.083311,174.611169 56.8106831,173.849064 56.1936388,172.537012 C55.308891,170.656293 55.8902967,168.451097 56.0142029,166.478443 C56.2441959,162.825996 54.511582,159.399435 54.8725259,155.768204 C55.2446587,152.028814 56.0660031,147.8597 57.5358862,144.430643 C58.2088747,142.859841 58.0020882,140.954994 58.8491255,139.482368 C59.4922771,138.365418 60.6936279,137.634928 61.454884,136.603674 C63.2160916,134.218351 61.2020989,131.76647 60.2879285,129.404859 C59.1429364,126.449206 57.205608,123.976524 54.1585116,122.900758 C52.8900278,122.45273 51.7910342,122.174845 50.9220337,121.032935 C50.3360695,120.262094 50.1259678,119.380598 49.7318717,118.520318 C48.9581836,116.829709 47.5454879,115.843382 47.1033212,113.936455 C46.6097686,111.808219 46.139837,109.649614 46.1261618,107.455234 C46.1137297,105.485492 46.137765,102.927947 46.8182127,101.120444 C47.2019488,100.100421 47.4472747,99.1914693 48.4012276,98.5907707 C49.4546369,97.9268407 50.0493035,98.3478289 51.1495403,98.6402743 C51.8627257,98.8299685 52.5638936,98.9739032 53.0876974,98.3494929 C53.5526562,97.7945539 52.7574192,96.9887693 52.2887308,97.5478682 C51.8971211,98.0150319 49.7501054,96.9987532 49.1264307,97.0000011 C48.0398692,97.0024971 47.247533,97.5566041 46.700937,98.4751238 C45.1025893,101.161211 45.0420867,104.046145 45.0014753,107.099557 C44.9786832,108.815958 45.2223515,110.514471 45.5679625,112.191351 C45.8998984,113.800841 46.1112433,115.527641 47.1240413,116.868397 C47.5550191,117.439144 48.1513433,117.885092 48.5069,118.517406 C48.8827625,119.185496 49.0398207,120.008336 49.3875038,120.702218 C49.9829992,121.890719 50.8258925,122.804663 52.0363601,123.366258 C53.8373503,124.201994 55.5281096,124.486952 56.9627686,126.015322 C58.6203757,127.781642 59.1139282,129.92527 60.0653948,132.075139 C60.4599053,132.966203 61.1722619,133.948786 61.0649319,134.976713 C60.9866099,135.732994 60.0633227,136.497179 59.5635542,137.002614 C58.6257629,137.951918 57.7468167,138.791814 57.3833864,140.117594 C57.1239709,141.063569 57.1500782,142.065288 56.8790594,143.010016 C56.6200583,143.911895 56.1115873,144.725584 55.7738498,145.596264 C55.0569347,147.444535 54.9284702,149.477925 54.5248428,151.408147 C53.8091709,154.830964 53.5352514,157.631867 54.2861474,161.070076 C54.7407462,163.152137 55.0055489,165.106071 54.8178249,167.238468 C54.6636674,168.992724 54.3578389,170.838499 54.9781984,172.541172 C55.8612886,174.967262 58.307088,176.085043 60.5088047,177.045163 C64.0834345,178.604317 67.771196,179.579412 71.5787197,180.365645 C75.4886006,181.173925 79.1751189,182.683576 83.1239535,183.322546 C91.4824376,184.67495 100.053095,186.40799 108.542531,186.494101 C110.739689,186.516149 112.870957,186.34351 115.044909,186.778226 C116.926708,187.155535 118.762922,187.632683 120.676629,187.851497 C124.597285,188.299941 128.449978,187.666794 132.27615,186.833138 C144.822164,184.098795 157.431167,180.89604 169.610436,176.784749 C170.295856,176.553455 170.001631,175.458137 169.309995,175.691511" id="Fill-7" fill="#004DF1"></path>
                            <path d="M86.4608517,87.0006313 C83.3905572,87.1327544 80.7029728,88.7319425 77.872231,89.7710616 C74.4676292,91.0212452 70.8550596,91.5065275 67.2830991,91.9889015 C61.6798629,92.7454932 56.0589884,93.6383628 52.2610115,98.3690345 C48.536049,103.008716 50.093962,110.401377 52.0944732,115.466511 C54.6155193,121.849137 59.0435525,127.177271 63.3682172,132.377021 C63.3386833,132.148507 63.3099698,131.919576 63.2804359,131.691061 C62.4711251,132.853163 61.6614042,134.016096 60.8520934,135.178613 C60.4365679,135.775244 61.4050336,136.34113 61.8172775,135.7499 C62.6269985,134.587383 63.4363092,133.424866 64.2460302,132.262348 C64.396571,132.045883 64.3100203,131.758369 64.1582489,131.576389 C60.0940568,126.688665 55.9322388,121.697071 53.42678,115.766073 C51.1338012,110.339886 49.4114009,102.490195 54.1774332,97.9464899 C58.4680518,93.8556596 64.0077081,93.6072017 69.5366993,92.8119702 C72.4556326,92.392334 75.389743,91.889186 78.1692107,90.8629468 C80.8805863,89.8616365 83.5185374,88.2595401 86.4608517,88.1328183 C87.177869,88.1020726 87.1815608,86.9694702 86.4608517,87.0006313" id="Fill-9" fill="#004DF1"></path>
                            <path d="M86.4643102,108.852239 C80.7803202,108.259522 75.1292261,107.499737 69.521719,106.365096 C64.8710696,105.42397 56.9086315,104.603737 56.1261217,98.5430842 C56.033191,97.8235968 54.9114428,97.8143618 55.0056072,98.5430842 C55.7338388,104.184386 61.4186512,105.754749 66.0668334,106.795361 C72.803079,108.304018 79.6075835,109.281245 86.4643102,109.996535 C87.1810283,110.070834 87.1760939,108.926538 86.4643102,108.852239" id="Fill-11" fill="#004DF1"></path>
                            <path d="M73.13688,96.815436 C74.5624957,98.461454 76.2451295,99.8325491 78.1607496,100.926375 C78.531817,101.138335 78.9839408,100.864194 78.995753,100.466475 C79.0666265,98.1231776 78.2487304,95.9593815 76.6707776,94.1764886 C76.2076561,93.6532356 75.4256041,94.4103491 75.8858743,94.9300825 C77.2756459,96.5002327 77.9481292,98.4106148 77.8858094,100.466475 C78.1644155,100.312784 78.4426142,100.159484 78.7208129,100.006185 C76.8785101,98.9542035 75.2915962,97.6437245 73.9217832,96.0618421 C73.4647716,95.5338962 72.6831269,96.2914008 73.13688,96.815436" id="Fill-13" fill="#004DF1"></path>
                            <path d="M84.6170581,92.4986708 C85.8572475,92.5322752 86.9810891,92.9717853 87.9208202,93.8180856 C88.4765614,94.3181721 89.244115,93.7004702 88.9249048,93.014233 C88.3129076,91.6987976 88.1270923,90.2675155 88.3845061,88.8318118 C88.534096,87.9970077 87.3024303,87.6392977 87.1519881,88.4789656 C86.8276637,90.287855 87.0501306,92.0268827 87.8210937,93.683668 C88.1556465,93.4157171 88.4901993,93.1477663 88.8251782,92.8798154 C87.6271809,91.8013795 86.2050119,91.2150711 84.6170581,91.1721813 C83.7941009,91.1500732 83.7945271,92.4765626 84.6170581,92.4986708" id="Fill-15" fill="#004DF1"></path>
                            <path d="M89.6174957,95.1420955 C88.7414494,95.823919 88.797473,97.1939064 89.7860182,97.7590632 C90.2265263,98.0114182 90.805286,98.0701742 91.2927816,97.9133506 C91.5692851,97.8241598 91.8033191,97.6635319 92.0079859,97.471201 C92.1778639,97.3118412 92.331477,97.0434234 92.5718362,96.9715635 C93.3240884,96.7479525 93.0028564,95.6353925 92.244279,95.8606943 C91.9352456,95.9528441 91.6971454,96.0957184 91.4694366,96.3117207 C91.2828419,96.4888342 91.1143194,96.7771191 90.8382677,96.8392568 C90.190382,96.9855128 90.0837565,96.271141 90.4881203,95.9566484 C91.0980545,95.4819505 90.2229118,94.671202 89.6174957,95.1420955" id="Fill-17" fill="#004DF1"></path>
                            <path d="M82.0412471,100.666495 C83.119784,103.394778 86.320106,105.252341 88.8239828,102.980401 C89.3533136,102.500426 88.5696606,101.717307 88.0423579,102.195246 C86.2016657,103.865382 83.8722044,102.306072 83.1072098,100.371094 C82.8476146,99.7150997 81.7784069,100.001129 82.0412471,100.666495" id="Fill-19" fill="#004DF1"></path>
                            <path d="M65.4917011,126.297718 C64.6537447,122.258815 65.5144076,118.26312 67.9012077,114.823778 C68.3212775,114.218045 67.2916261,113.655521 66.8737396,114.257961 C64.3092176,117.952847 63.4463715,122.26828 64.3445873,126.596058 C64.4908694,127.303431 65.6384199,127.003857 65.4917011,126.297718" id="Fill-21" fill="#004DF1"></path>
                            <path d="M75.269946,114.049201 C78.1391066,115.853048 80.059974,118.49993 80.8228467,121.604553 C80.9928154,122.297032 82.1530176,122.004013 81.9830489,121.311534 C81.1490984,117.91713 79.0021946,115.061007 75.8769772,113.09689 C75.2372767,112.694597 74.6346603,113.649741 75.269946,114.049201" id="Fill-23" fill="#004DF1"></path>
                            <path d="M85.8729459,116.270055 C84.8152053,117.911428 83.5515484,119.546527 82.7762826,121.333427 C82.0898951,122.917508 82.0362161,124.627044 82.0067367,126.31818 C81.934578,130.455275 82.4445286,134.563514 83.4199908,138.591881 C83.5929076,139.306557 84.7492065,139.00421 84.5762896,138.289116 C83.6861859,134.613278 83.1973549,130.880986 83.1991148,127.106876 C83.1995548,125.14852 83.187675,123.137055 84.0883386,121.331754 C84.8671243,119.770674 85.9618243,118.314557 86.908247,116.845058 C87.3121596,116.2182 86.2755386,115.64487 85.8729459,116.270055" id="Fill-25" fill="#004DF1"></path>
                            <path d="M63.4118504,132.106234 C66.9554771,132.600477 68.961516,135.823312 71.8435544,137.592712 C74.4523644,139.194713 77.4124085,139.639992 80.4112469,139.257069 C82.0001432,139.054098 83.2448968,138.964122 84.7528674,139.645014 C85.5579527,140.008687 86.3067237,140.493305 87.1022147,140.877484 C88.5839053,141.59353 90.1461044,142.140085 91.7529378,142.492877 C94.862319,143.175444 98.1097744,143.171259 101.214567,142.466512 C102.836835,142.098236 104.602599,140.980015 106.259907,140.94821 C107.959346,140.915149 109.860265,141.8802 111.568881,142.111209 C114.966091,142.570717 118.45966,142.274004 121.727139,141.22902 C123.174206,140.766164 124.484034,139.883557 125.905239,139.428652 C128.00013,138.757804 130.802077,140.223794 132.930755,140.513393 C136.527776,141.003033 140.128969,140.660703 143.601264,139.632041 C144.301229,139.424467 144.002972,138.323405 143.298835,138.532234 C139.296769,139.717833 135.10532,139.951353 131.022328,139.015597 C129.590694,138.687496 128.023907,137.81284 126.525113,138.02711 C125.097651,138.231754 123.759875,139.2872 122.415841,139.789395 C118.805472,141.138625 114.830937,141.53243 111.029933,140.88418 C109.4669,140.61718 107.851306,139.786466 106.259907,139.807809 C104.862896,139.826223 103.546811,140.626805 102.234064,141.019772 C98.6099284,142.104513 94.7083934,142.137156 91.0596468,141.146158 C88.0424542,140.326325 85.2976557,137.843391 82.0998403,137.930438 C80.0716928,137.986098 78.2275052,138.479085 76.1839235,138.077748 C74.1228217,137.672644 72.3441256,136.702153 70.7410464,135.370081 C68.5685676,133.564273 66.6467915,131.415716 63.7138617,131.006427 C62.9984621,130.906407 62.6893594,132.005376 63.4118504,132.106234" id="Fill-27" fill="#004DF1"></path>
                            <path d="M96.2288599,115.166142 C98.0723946,116.714006 99.6731147,118.585571 100.993902,120.732103 C101.383643,121.366093 102.297677,120.758035 101.903297,120.117339 C100.472315,117.791072 98.758307,115.791636 96.7605,114.114113 C96.2114607,113.652705 95.684847,114.709652 96.2288599,115.166142" id="Fill-29" fill="#004DF1"></path>
                            <path d="M181.789243,160 C181.919929,158.996895 182.465906,158.105668 183.008978,157.256919 C184.512903,154.906668 186.118472,152.585017 188.182894,150.72265 C189.195606,149.809551 190.306643,149.018003 191.415191,148.228137 C192.215487,147.657818 193.016612,147.087079 193.862543,146.588681 C194.770707,146.05243 195.726165,145.603241 196.67955,145.154052 C197.91505,144.572378 199.150965,143.990704 200.38688,143.408608 C202.492789,142.41686 204.67794,141.406185 207,141.367911 C206.825337,140.448924 205.925057,139.799114 205.285733,139.176643 C204.430259,138.344297 203.470652,137.623408 202.451302,137.011031 C200.256609,135.692905 197.661976,135.228995 195.12501,135.109969 C192.6872,134.995568 191.270814,135.255913 189.124662,134.034102 C183.978543,131.103859 178.871837,128.134501 173.894157,124.915314 C173.135349,124.424487 172.365755,123.918098 171.795301,123.212349 C170.79628,121.976239 171.209081,120.47011 170.763919,119.040107 C170.297184,117.54239 169.621351,116.06402 168.850512,114.703836 C167.308834,111.984308 165.09879,109.556248 162.093015,108.547255 C158.778988,107.434377 155.16293,108.219196 151.788331,109.125985 C148.922369,109.895663 146.045205,110.763338 143.488741,112.285029 C140.932276,113.80672 138.694436,116.058132 137.708276,118.892481 C137.116249,120.594604 136.99635,122.42711 137.000083,124.231857 C137.006721,127.758495 137.483414,131.349904 138.998125,134.524509 C140.513252,137.699114 143.169286,140.425371 146.502398,141.434785 C149.036045,142.202359 151.743524,141.948324 154.382964,142.108568 C158.817156,142.378586 161.863174,144.97362 165.245242,147.624171 C169.131383,150.669235 173.317065,153.321889 177.718482,155.531243 C178.512554,155.92954 180.186578,156.333726 180.754543,157.006669 C181.295956,157.647646 181.431205,159.105828 181.800445,159.903685" id="Fill-31" fill="#D9E7FF"></path>
                            <path d="M182.82981,160.589158 C183.327944,158.24114 185.229045,155.943463 186.699865,154.116901 C188.353968,152.06464 190.334092,150.484331 192.470194,148.97618 C194.616638,147.460477 196.902925,146.366385 199.268234,145.252157 C201.88923,144.018367 204.488712,142.592859 207.427455,142.424215 C207.765888,142.404917 208.101839,142.070984 207.9711,141.700973 C207.31492,139.841688 205.362515,138.4338 203.778333,137.392987 C201.721668,136.040894 199.391526,135.391906 196.968295,135.141037 C194.13133,134.847378 191.799119,135.071818 189.186398,133.645051 C186.36681,132.105017 183.601421,130.436611 180.848031,128.778692 C179.584078,128.017695 178.326331,127.246628 177.076444,126.462557 C175.816215,125.672613 174.219207,124.916649 173.179083,123.832626 C171.926301,122.527099 172.263493,121.004264 171.834866,119.430249 C171.528704,118.305533 171.018985,117.1955 170.503061,116.157623 C168.491079,112.110574 165.267275,108.664688 160.633883,108.094569 C158.047227,107.776158 155.441539,108.312297 152.943008,108.950377 C150.273605,109.632087 147.584343,110.40567 145.106498,111.643655 C141.08088,113.654804 137.871556,117.045314 137.236477,121.676745 C135.931978,131.187121 139.973732,142.425473 150.626932,143.037963 C154.031124,143.233457 157.110536,143.065651 160.20567,144.788174 C162.750125,146.204033 164.928014,148.204274 167.267258,149.926798 C169.942867,151.897254 172.748388,153.684382 175.658583,155.275178 C176.729323,155.8604 177.799235,156.414997 178.924588,156.878979 C179.878655,157.272902 180.597309,157.39582 181.139299,158.459706 C181.446702,159.063806 181.512485,159.851233 181.754105,160.493089 C182.01062,161.173541 183.100805,160.877783 182.841395,160.188942 C182.38422,158.973611 182.322574,157.525449 181.234457,156.685583 C180.653577,156.237962 179.888585,156.052956 179.22413,155.776497 C177.855089,155.207636 176.553073,154.481878 175.261399,153.751085 C170.858043,151.261271 167.027707,148.108625 162.923479,145.182517 C161.327713,144.044796 159.613618,143.051807 157.730308,142.49763 C155.410923,141.815081 153.007136,142.038682 150.626932,141.894369 C144.795785,141.541138 140.718864,137.67532 139.102411,132.070197 C137.566635,126.74489 137.323774,119.755792 141.460687,115.589182 C145.181798,111.841666 151.143271,110.237865 156.190809,109.402613 C159.065837,108.926884 162.08112,109.038895 164.590822,110.695554 C166.797258,112.151686 168.361994,114.380563 169.529548,116.734874 C170.17042,118.027395 170.751714,119.372776 170.951547,120.815064 C171.072357,121.687652 171.047947,122.531714 171.428994,123.351444 C172.277974,125.178845 174.576672,126.234761 176.166233,127.236141 C178.663109,128.808897 181.19267,130.327537 183.738367,131.81723 C186.080507,133.187781 188.589382,135.125096 191.228582,135.836591 C193.705599,136.504037 196.359694,136.029987 198.878084,136.584584 C200.423789,136.925229 201.878473,137.50206 203.209451,138.380103 C204.424584,139.181793 206.365403,140.535564 206.88381,142.004701 C207.065025,141.763481 207.24624,141.52226 207.427455,141.28104 C204.677788,141.438777 202.271105,142.584469 199.808569,143.742746 C196.851208,145.134273 193.997281,146.485527 191.324982,148.398929 C189.11565,149.980915 187.147937,151.68456 185.474389,153.855544 C184.032945,155.724897 182.24562,157.914758 181.742521,160.285011 C181.590681,161.002799 182.677143,161.309463 182.82981,160.589158" id="Fill-33" fill="#004DF1"></path>
                            <path d="M109.107794,137.447621 C108.836293,132.352931 109.783623,127.412319 111.936539,122.86827 C112.247382,122.212384 111.331604,121.631433 111.019982,122.289424 C108.783318,127.010284 107.763925,132.150861 108.045943,137.447621 C108.085285,138.181809 109.147525,138.18644 109.107794,137.447621" id="Fill-35" fill="#004DF1"></path>
                            <path d="M115.536655,118.186945 C121.077452,118.285813 123.570933,124.31847 125.960825,128.712628 C126.319717,129.373341 127.280975,128.776217 126.920452,128.113761 C124.300951,123.296694 121.555023,117.107243 115.536655,117.0001 C114.821319,116.987469 114.820911,118.174315 115.536655,118.186945" id="Fill-37" fill="#004DF1"></path>
                            <path d="M128.068273,120.71746 C128.697209,119.659654 129.301238,118.859838 130.472347,118.447231 C131.107095,118.22355 131.76177,118.129087 132.387386,117.859512 C133.772291,117.262435 134.923474,116.299537 135.862935,115.064836 C136.320418,114.46464 135.524181,113.600216 135.063376,114.206204 C133.712096,115.980948 132.168192,116.673824 130.17137,117.276248 C128.695964,117.721382 127.893914,118.75379 127.091034,120.104788 C126.698727,120.765137 127.677627,121.375135 128.068273,120.71746" id="Fill-39" fill="#004DF1"></path>
                            <path d="M172.689539,114.735187 C174.52068,114.361713 177.60198,113.166358 179.449304,113.713615 C180.806274,114.115388 181.227444,115.876733 182.715094,115.991924 C185.632943,116.217522 188.414448,111.657318 189.889961,109.775202 C190.323269,109.222365 189.366026,108.681088 188.937978,109.22675 C187.694696,110.812717 186.399223,112.587614 184.823374,113.877035 C183.800994,114.713265 182.62204,114.717649 181.617057,113.961933 C181.148551,113.609584 180.920366,113.16038 180.366493,112.889741 C178.11135,111.789249 174.627894,113.232523 172.396217,113.687707 C171.702358,113.829204 171.996085,114.876684 172.689539,114.735187" id="Fill-41" fill="#004DF1"></path>
                            <path d="M183.180429,124.443448 C183.22849,121.675649 184.954819,119.174732 187.604714,118.154149 C188.303126,117.885151 187.999168,116.769826 187.290797,117.042631 C184.140799,118.25608 182.05812,121.121581 182.0001,124.443448 C181.987543,125.185306 183.167439,125.185729 183.180429,124.443448" id="Fill-43" fill="#004DF1"></path>
                            <path d="M195.119593,119.471222 C195.099227,117.493102 194.966028,114.909976 196.010028,113.146782 C197.30739,110.955745 200.096006,110.570485 202.179117,111.854014 C202.786454,112.228025 203.344503,111.281146 202.739203,110.908341 C200.671163,109.634454 198.034483,109.648514 196.155446,111.281548 C193.878444,113.260472 193.981092,116.727003 194.009605,119.471222 C194.016937,120.175456 195.127333,120.177062 195.119593,119.471222" id="Fill-45" fill="#004DF1"></path>
                            <path d="M208.646891,109.58746 C209.57946,109.342607 210.487419,109.487022 211.374552,109.951754 C211.999294,110.278587 212.268501,108.849644 211.64906,108.524983 C210.582834,107.96687 209.48556,107.86806 208.372383,108.160689 C207.72038,108.331706 207.996402,109.757935 208.646891,109.58746" id="Fill-47" fill="#004DF1"></path>
                            <path d="M162.709129,109.989055 C171.059508,108.495068 179.432737,107.303403 187.601974,105.05322 C188.300367,104.86094 188.003311,103.830617 187.300764,104.024072 C179.131527,106.274255 170.758297,107.465921 162.408334,108.959908 C161.693323,109.087964 161.996195,110.11672 162.709129,109.989055" id="Fill-49" fill="#004DF1"></path>
                            <path d="M96.0585363,143.181392 C94.7353021,144.695769 92.7406815,145.239371 91.1788245,146.462874 C89.5737327,147.720152 88.784282,149.551233 88.0418075,151.349332 C87.7740844,151.99784 88.8695044,152.279178 89.1343176,151.637028 C89.9985977,149.54408 90.939786,147.770221 93.0179662,146.570163 C94.3948281,145.775423 95.8091048,145.149566 96.8596272,143.947124 C97.3239855,143.415841 96.5266361,142.645738 96.0585363,143.181392" id="Fill-51" fill="#004DF1"></path>
                            <path d="M87.0387256,142.487631 C86.9142375,143.56162 87.0905511,144.619946 87.558049,145.646575 C87.8406849,146.267475 89.2469186,146.002334 88.9621456,145.376587 C88.5304447,144.428642 88.3797767,143.47846 88.495182,142.487631 C88.5705159,141.835779 87.1140595,141.839136 87.0387256,142.487631" id="Fill-53" fill="#004DF1"></path>
                            <path d="M82.8308007,147.003699 C80.601292,144.742803 78.2662544,141.399026 74.9253416,141.00307 C74.5949354,140.964074 74.3855526,141.304322 74.3545639,141.58672 C73.8424135,142.24022 73.2393908,142.481051 72.5463336,142.308784 C71.8155874,142.239791 71.8201938,143.407949 72.5463336,143.476942 C74.0430022,143.618355 75.3101873,143.267393 75.4957005,141.58672 L74.9253416,142.170799 C77.7545227,142.506334 80.1247366,145.904105 82.0238391,147.829465 C82.54604,148.359122 83.3534203,147.533783 82.8308007,147.003699" id="Fill-55" fill="#004DF1"></path>
                            <path d="M64.67143,139.332814 C66.5673662,138.688327 68.5301791,138.890961 70.1910209,139.911514 C70.7765004,140.2714 71.3357216,139.440463 70.7551655,139.083744 C68.8871288,137.935489 66.5119774,137.681845 64.3739719,138.4083 C63.7129996,138.632744 64.0010211,139.560424 64.67143,139.332814" id="Fill-57" fill="#004DF1"></path>
                            <path d="M66.5921626,143.140337 C61.8243316,142.095859 59.5824871,147.097192 60.0639851,150.992825 C60.4311586,153.967656 61.8781559,156.736222 62.040046,159.741459 C62.1581256,161.926153 61.4200235,164.138786 63.2016494,165.839453 C63.7269578,166.341559 64.532236,165.550599 64.0056758,165.047671 C62.421823,163.536013 63.3289083,160.912902 63.1077698,158.97844 C62.9262692,157.387891 62.4289161,155.86103 61.9899769,154.327594 C61.489703,152.580086 60.9714877,150.755331 61.1171054,148.919071 C61.3253094,146.303767 63.3222325,143.569716 66.2896617,144.220152 C67.0027293,144.376289 67.3073164,143.296886 66.5921626,143.140337" id="Fill-59" fill="#004DF1"></path>
                            <path d="M69.5432619,146.680521 C71.5519192,146.769341 73.1102105,147.535797 74.8843797,148.401038 C76.3405219,149.111602 77.912047,149.427889 79.4686841,149.810467 C82.9454768,150.66531 86.4164796,151.576911 89.9259435,152.277943 C97.030478,153.698204 104.293819,153.419611 111.429784,154.6462 C114.565804,155.184755 117.643512,154.613271 120.7816,154.443863 C122.740216,154.338578 124.600406,154.496288 126.488304,155.073405 C127.896473,155.504076 129.33111,156.094623 130.828195,155.987172 C133.69292,155.782235 135.814892,153.144917 138.476146,152.25628 C140.987278,151.417034 143.483108,153.40618 145.485149,151.200399 C146.164626,150.452141 146.449155,149.855961 147.396619,149.441754 C148.366002,149.017582 149.080219,149.247216 150.088063,149.093838 C151.399873,148.893667 151.85851,147.599921 153.072307,147.315695 C154.418442,147.001141 155.582611,147.21301 156.901865,146.55054 C158.130964,145.932696 159.08794,144.988166 159.892312,143.849531 C160.324068,143.238186 159.346414,142.648938 158.919208,143.253351 C157.800116,144.837821 156.140916,145.934429 154.244334,146.121602 C153.261717,146.219088 152.510693,146.049679 151.645114,146.581302 C150.80807,147.094728 150.321724,147.842552 149.273765,147.95347 C148.713392,148.012395 148.152606,147.895845 147.588511,147.99983 C146.703081,148.163606 146.105487,148.64367 145.509135,149.321305 C145.196484,149.676587 144.915677,150.311761 144.520315,150.564791 C143.404946,151.278388 142.179569,150.861148 141.024085,150.740266 C139.826831,150.615051 138.663075,150.897976 137.55515,151.364175 C134.642038,152.589898 132.350093,155.376694 128.982893,154.611538 C125.973836,153.927404 123.556996,153.083393 120.415186,153.287897 C116.894556,153.517963 113.72297,153.859381 110.213093,153.212508 C103.595731,151.991551 96.8369323,152.460783 90.2253604,151.139741 C86.4582491,150.386717 82.7324938,149.403193 79.0001215,148.48336 C75.7367253,147.678776 72.9414783,145.650204 69.5432619,145.499859 C68.8182925,145.467797 68.8195332,146.648459 69.5432619,146.680521" id="Fill-61" fill="#004DF1"></path>
                            <path d="M67.5872623,150.106228 C64.9599328,151.868894 66.2648203,155.395054 66.7995586,157.853106 C67.5093921,161.117824 68.6508873,164.212935 70.9824903,166.809982 C71.4852703,167.369683 72.3490437,166.568396 71.8498646,166.012832 C70.1281694,164.094624 69.1122566,161.843408 68.4451841,159.449889 C67.9113461,157.534164 66.1964026,152.427768 68.2061723,151.080017 C68.8376856,150.656415 68.2264276,149.677662 67.5872623,150.106228" id="Fill-63" fill="#004DF1"></path>
                            <path d="M84.8938002,167.179636 C82.5340367,163.874282 81.5784106,159.836747 82.2777445,155.720765 C82.400421,154.997442 81.3744708,154.687447 81.251013,155.414987 C80.5020616,159.821986 81.434637,164.201991 83.9745082,167.75956 C84.3870761,168.337375 85.3122284,167.765886 84.8938002,167.179636" id="Fill-65" fill="#004DF1"></path>
                            <path d="M74.2985146,153.224905 C75.2867189,153.772835 76.3378635,154.044843 77.4373907,153.993964 C78.1858228,153.959229 78.1892481,152.625606 77.4373907,152.66083 C76.5459516,152.701925 75.6926192,152.519934 74.8872412,152.073273 C74.2145943,151.700974 73.6224423,152.849671 74.2985146,153.224905" id="Fill-67" fill="#004DF1"></path>
                            <path d="M87.2507209,157.532325 C88.410193,158.31463 89.9011626,158.098238 90.8479687,157.012379 C91.3213718,156.469449 90.5806941,155.632938 90.1069064,156.176302 C89.4823682,156.892691 88.5436381,157.027123 87.7795017,156.511513 C87.1995734,156.120361 86.6719462,157.14204 87.2507209,157.532325" id="Fill-69" fill="#004DF1"></path>
                            <path d="M94.0304189,158.547679 C93.8070593,162.876544 94.816166,167.032705 96.9783664,170.730825 C97.3425223,171.353644 98.2830257,170.783387 97.9168755,170.156813 C95.8460132,166.615128 94.9035155,162.691742 95.1173025,158.547679 C95.154795,157.816398 94.0679114,157.818484 94.0304189,158.547679" id="Fill-71" fill="#004DF1"></path>
                            <path d="M113.115438,159.400778 C112.280405,162.287909 111.408837,165.473564 112.537914,168.406014 C113.549021,171.03287 115.96124,172.902187 116.815201,175.603051 C117.035294,176.299888 118.193423,176.003025 117.972009,175.301616 C117.277836,173.106332 115.682162,171.491884 114.465488,169.558538 C112.486852,166.413212 113.313081,163.017591 114.272247,159.702214 C114.476053,158.997478 113.318804,158.69729 113.115438,159.400778" id="Fill-73" fill="#004DF1"></path>
                            <path d="M131.548678,174.443035 C131.575072,172.096449 131.98582,169.889541 132.486884,167.612371 C132.801544,166.184695 133.103007,164.722312 132.966091,163.250193 C132.710817,160.50997 130.887191,158.645907 128.812003,157.107336 C128.224747,156.672219 127.663473,157.672396 128.244955,158.10328 C131.224121,160.312305 132.281098,162.855286 131.558576,166.599919 C131.046789,169.252526 130.455822,171.71678 130.42448,174.443035 C130.416232,175.185443 131.540018,175.185867 131.548678,174.443035" id="Fill-75" fill="#004DF1"></path>
                            <path d="M124.450744,155.000865 C123.057166,155.071173 121.705831,155.338084 120.389627,155.822863 C119.703294,156.075452 119.998991,157.218612 120.692852,156.962985 C121.913278,156.51336 123.156289,156.249053 124.450744,156.183519 C125.180993,156.146629 125.185175,154.963541 124.450744,155.000865" id="Fill-77" fill="#004DF1"></path>
                            <path d="M135.072638,158.874796 C136.977944,157.545935 138.88325,156.216677 140.789004,154.887816 C141.40444,154.458449 140.537376,153.70023 139.927303,154.125244 C138.022443,155.454106 136.11669,156.783363 134.210937,158.112224 C133.5955,158.541195 134.463011,159.29981 135.072638,158.874796" id="Fill-79" fill="#004DF1"></path>
                            <path d="M145.375144,155.155562 C146.828636,155.726654 148.823625,156.173337 150.02469,157.216588 C151.352782,158.369388 151.676866,160.77222 151.829951,162.545365 C152.118614,165.881476 151.45701,169.158568 149.984383,172.124849 C149.657042,172.785533 150.613822,173.371061 150.942792,172.709104 C152.729732,169.107615 153.414135,165.055197 152.752125,161.040994 C152.508654,159.565921 152.178056,157.430589 151.04417,156.375873 C149.706713,155.132209 147.31069,154.684252 145.670321,154.039704 C145.001389,153.776874 144.712319,154.89528 145.375144,155.155562" id="Fill-81" fill="#004DF1"></path>
                            <path d="M155.181499,167.817543 C156.123872,168.534698 157.231384,168.936075 158.47052,168.999015 C159.177502,169.035341 159.175484,168.054916 158.47052,168.01931 C157.53824,167.971476 156.670562,167.665408 155.959946,167.124484 C155.424562,166.716634 154.64248,167.406815 155.181499,167.817543" id="Fill-83" fill="#004DF1"></path>
                            <path d="M154.800916,152.890305 C156.005836,151.969431 157.189152,150.993561 158.428719,150.123421 C160.068567,148.971903 161.547814,149.103639 163.330736,149.820727 C163.998008,150.089315 164.287417,148.966361 163.625852,148.700331 C162.226499,148.137575 160.794535,147.692486 159.332001,148.27059 C157.481414,149.00132 155.821592,150.678929 154.240033,151.887149 C153.66896,152.324138 154.222506,153.332409 154.800916,152.890305" id="Fill-85" fill="#004DF1"></path>
                            <path d="M87.4285912,176.776845 C89.4787678,177.077652 91.5241215,177.074491 93.572106,176.766502 C94.3214113,176.653879 94.0044144,175.898558 93.2546706,176.011468 C91.4149483,176.288429 89.5883795,176.291876 87.7460266,176.021811 C86.9971597,175.912061 86.6770936,176.666807 87.4285912,176.776845" id="Fill-87" fill="#004DF1"></path>
                            <path d="M170.804129,154.185428 C168.063613,157.327309 173.021721,160.132005 175.317073,160.964845 C176.000042,161.212457 176.293801,160.079468 175.614535,159.833148 C174.20334,159.321128 169.65707,157.23946 171.597361,155.015253 C172.082845,154.458448 171.292082,153.626039 170.804129,154.185428" id="Fill-89" fill="#004DF1"></path>
                            <path d="M149.021336,119.56071 L149.021336,119.56071 C147.106198,120.072344 145.006141,120.912377 144.264797,122.754761 C143.32476,125.092881 145.065415,127.581186 146.698375,129.498872 C147.819991,130.815816 148.941608,132.133179 150.063224,133.450123 C151.640249,135.302547 153.377147,137.25621 155.738093,137.830595 C157.74256,138.318383 159.879767,137.700072 161.65632,136.649612 C165.776705,134.212345 168.322987,129.329443 167.966925,124.547361 C167.905147,123.725317 167.76197,122.897834 167.413005,122.150673 C164.470171,115.854189 153.954444,118.243348 149.021336,119.56071" id="Fill-91" fill="#FFFFFF"></path>
                            <path d="M148.391668,119.616834 C146.495647,120.1224 144.380153,120.951312 143.44293,122.808788 C142.310711,125.053533 143.549555,127.454347 144.90996,129.275711 C146.78814,131.790672 148.945123,134.453401 151.253124,136.586489 C153.122592,138.314876 155.327701,139.318121 157.90911,138.908854 C166.729547,137.509624 173.175187,121.44567 162.236352,118.50982 C157.753943,117.307337 152.764547,118.46001 148.391668,119.616834 C147.689269,119.802789 147.986741,120.894031 148.692459,120.707661 C152.362939,119.736377 156.257871,118.860146 160.075635,119.264433 C162.054632,119.474047 164.135691,120.099155 165.472863,121.663586 C167.415351,123.936971 167.045274,127.508722 166.100998,130.132434 C165.064202,133.012663 162.966133,135.572868 160.213377,136.96006 C156.729594,138.715427 153.724589,137.613809 151.189646,134.917874 C149.192394,132.792672 147.054911,130.486911 145.425661,128.068663 C144.298006,126.395067 143.411813,124.126247 145.087115,122.444349 C146.035126,121.492574 147.424988,121.045534 148.692459,120.707661 C149.394858,120.52046 149.096971,119.428804 148.391668,119.616834" id="Fill-93" fill="#004DF1"></path>
                            <path d="M202.705232,141.969629 C199.868694,140.686011 196.102576,140.624654 193.312579,142.099657 C190.185049,143.753041 188.055443,148.124005 188.000096,151.465312 C187.987937,152.178026 189.130938,152.178433 189.142259,151.465312 C189.190478,148.580321 191.158654,144.48851 193.889111,143.055767 C196.295871,141.792872 199.680849,141.818065 202.128281,142.925739 C202.790349,143.225616 203.371494,142.271131 202.705232,141.969629" id="Fill-95" fill="#004DF1"></path>
                            <path d="M47.1545543,97.5498902 C46.5537534,105.791404 47.6780804,115.142571 50.9928021,122.702999 C51.286527,123.37274 52.2372894,122.791654 51.9447782,122.125274 C48.7061175,114.737953 47.670798,105.593087 48.2574386,97.5498902 C48.3108431,96.8150236 47.2079588,96.8183849 47.1545543,97.5498902" id="Fill-97" fill="#004DF1"></path>
                            <path d="M80.5059437,90.2784312 C83.5096995,87.0568243 88.3395763,86.2460609 92.6647525,86.8814673 C96.9895144,87.5172941 101.030848,89.3747328 105.177846,90.7738042 C123.324277,96.8965814 143.023346,94.169086 162.145199,94.3549561 C182.135569,94.548816 203.949573,97.8078492 221,109 C218.995701,106.343573 215.992359,104.655604 213.170097,103.042487 C198.080461,94.416352 182.866515,86.248584 167.010712,79.1329581 C160.222945,76.0867082 153.185728,73.1569425 145.771851,72.8205262 C135.344687,72.3474407 124.902606,77.0467563 114.672267,74.9449953 C110.602342,74.1085802 106.817502,72.2309566 102.835837,71.0349965 C98.853343,69.839457 94.3785798,69.3810897 90.6869727,71.3112784 C87.4084907,73.0257401 85.2500463,76.3697185 83.8155033,79.8175654 C82.3809602,83.2654122 81.521146,86.9424427 80,90.3520222" id="Fill-99" fill="#CCF9FF"></path>
                            <path d="M81.5385037,90.1945868 C89.0413726,82.6847672 100.284502,89.4237168 108.487584,91.7480256 C117.585381,94.3263663 127.099499,94.8904176 136.504778,94.8732871 C146.343758,94.855321 156.175289,94.2214946 166.01551,94.4905679 C174.944049,94.7345723 183.880864,95.6073893 192.620278,97.5092864 C202.669487,99.6961338 212.414526,103.284335 221.100142,108.893929 C221.735796,109.304224 222.268405,108.427647 221.852912,107.909555 C218.692851,103.970806 213.744185,101.783959 209.450624,99.3739979 C204.423743,96.5529063 199.369136,93.7832059 194.273144,91.0916371 C184.187931,85.7653225 173.94339,80.6182507 163.417854,76.2316036 C158.417045,74.1475389 153.225457,72.381014 147.808742,71.8842312 C142.496727,71.397058 137.216992,72.3442463 131.995607,73.2174811 C126.284654,74.1726078 120.402785,75.0901311 114.672381,73.7552099 C109.501485,72.5506472 104.776705,69.8281601 99.471726,69.1446136 C94.4808491,68.5015952 89.8566319,69.9798272 86.7069168,74.0430849 C83.2099922,78.5542411 82.287549,84.3694002 80.0582079,89.5081156 C79.7407947,90.2401287 80.8101501,90.8789689 81.1304602,90.1411064 C83.096187,85.6086416 84.0206993,80.5731266 86.6291154,76.3389822 C89.7490342,71.2758915 94.811505,69.4955787 100.525356,70.5710364 C105.416084,71.4910666 109.846211,73.9791591 114.700108,75.0425001 C119.298668,76.0498538 124.004411,75.693457 128.622006,75.0191024 C133.994027,74.2340267 139.339977,72.9906072 144.794351,72.9989635 C150.374946,73.0077376 155.773867,74.5524023 160.941038,76.5712878 C171.066394,80.5271669 180.873095,85.5200646 190.517157,90.5338532 C195.861037,93.3119098 201.157326,96.1818859 206.420094,99.1120275 C211.31703,101.838693 217.383056,104.318847 220.974749,108.795742 C221.225535,108.467757 221.475906,108.139772 221.727106,107.811368 C206.2169,97.7946546 187.572705,94.2018573 169.423874,93.3620477 C149.065565,92.4202911 127.976834,96.2031945 108.086989,90.32787 C99.5491136,87.8059344 88.4259966,81.535774 80.6607549,89.3083997 C80.0925564,89.8770469 80.9703051,90.763234 81.5385037,90.1945868" id="Fill-101" fill="#00D5FF"></path>
                            <path d="M17.0132597,23.7844863 C18.4034513,31.0214901 19.7944687,38.2710175 21.7713731,45.3723483 C23.6491846,52.11592 26.1409595,58.6528513 28.8717962,65.0854189 C34.0692217,77.3272933 39.4239572,89.542868 44.8687021,101.674952 C45.1977733,102.408003 46.2654999,101.771801 45.9384932,101.042925 C40.5994474,89.1471205 35.3764229,77.1649032 30.2491883,65.1751717 C27.3891179,58.4879565 24.7949469,51.6838538 22.8613956,44.6593348 C20.9398181,37.6786485 19.5731611,30.5597846 18.2077427,23.451357 C18.0558002,22.6611143 16.8617301,22.9954959 17.0132597,23.7844863" id="Fill-103" fill="#00D5FF"></path>
                            <path d="M82.2374672,89.4116405 C84.0171951,84.329585 85.2787166,78.0742996 88.9965363,74.0407506 C93.1036326,69.5848057 99.8278783,69.6035141 105.196082,71.3612801 C108.034194,72.2900523 110.509977,73.9646695 113.265591,75.0784478 C115.971043,76.1718548 118.83776,76.4034242 121.726864,76.1930577 C128.637664,75.6887601 135.286044,73.3368959 142.250738,73.3011419 C155.964136,73.2308812 168.537066,80.2303484 180.469493,86.1958601 L199.359566,95.639071 C205.21281,98.564662 211.621157,101.125646 216.907691,105.038213 C222.635322,109.277555 225.835765,116.082039 225.87349,123.186689 C225.91163,130.438929 222.061564,137.501173 217.499275,142.910835 C216.985629,143.5199 217.860776,144.406682 218.378983,143.792628 C226.227943,134.485366 230.356182,121.619334 223.59587,110.492775 C220.232089,104.956311 214.686451,101.914728 209.06868,99.1018034 C202.04802,95.5862715 195.0228,92.079886 187.999239,88.5689273 C175.368684,82.255022 162.348853,74.3563004 148.1301,72.4509453 C140.703581,71.455654 133.806047,73.0575159 126.532503,74.3134788 C122.772397,74.962871 118.727486,75.5195523 115.001789,74.3833238 C111.875969,73.4300226 109.17715,71.4469234 106.09859,70.3535165 C100.749456,68.4539818 94.1292666,68.2016251 89.4670677,71.9113095 C84.4844099,75.8766765 83.0504293,83.3342937 81.0381304,89.0798767 C80.7723942,89.8386097 81.9733892,90.1649688 82.2374672,89.4116405" id="Fill-105" fill="#00D5FF"></path>
                            <g id="Group-109" transform="translate(83.000000, 0.000000)">
                                <mask id="mask-2" fill="white">
                                    <use xlink:href="#path-1"></use>
                                </mask>
                                <g id="Clip-108"></g>
                                <path d="M5.23008,0.577115909 C2.22653217,6.43236591 -0.44978087,12.8712068 0.323645217,19.6052068 C0.985627826,25.3696386 4.11522783,30.1720705 9.34931478,32.6956386 C14.96448,35.4033659 21.8176278,36.3443432 27.98208,36.6571614 C34.7751235,37.0015136 41.3845148,35.8145705 47.5523061,32.9016614 C48.2810713,32.5577295 47.6466365,31.4700136 46.9199583,31.8126841 C41.1879235,34.5195705 35.0280626,35.6573205 28.7108452,35.4277523 C23.0597843,35.22215 16.9846539,34.3501273 11.6683409,32.3269 C5.78395826,30.0871386 2.04413217,25.3053091 1.50945391,18.9497182 C0.980201739,12.6550932 3.50541913,6.68337727 6.31112348,1.21368409 C6.68093217,0.493865909 5.60072348,-0.145225 5.23008,0.577115909" id="Fill-107" fill="#00D5FF" mask="url(#mask-2)"></path>
                            </g>
                            <path d="M126.961941,26.367846 C133.276586,23.6877616 140.201611,22.5888818 147.054679,23.25018 C150.62952,23.5954015 154.759098,24.1150809 157.344112,26.772999 C159.13969,28.6189692 160.787589,30.2551794 163.172629,31.363911 C171.686147,35.322259 182.214042,31.9102722 185.754577,23.1582304 C187.71164,18.3193829 187.381977,12.7634106 184.625438,8.29318245 C184.20792,7.61587515 183.121871,8.23407199 183.541481,8.9146632 C186.812596,14.2198265 186.392987,21.2708008 182.594745,26.2323846 C178.460145,31.6340129 170.733971,33.1015121 164.511364,30.5995799 C163.011981,29.9965712 161.609238,29.1735402 160.392662,28.1185828 C159.116262,27.0119037 158.154465,25.5887374 156.769711,24.5990478 C154.287613,22.8253236 150.750006,22.4316644 147.783871,22.0954737 C140.458481,21.2646434 133.081215,22.4382323 126.328552,25.3042683 C125.589319,25.6182926 126.227729,26.6794074 126.961941,26.367846" id="Fill-110" fill="#00D5FF"></path>
                            <path d="M210.280516,29.1892825 C220.731254,36.3343302 226.848375,47.7911021 231.385868,59.3429855 C236.394515,72.0962782 240.710727,85.3564155 243.341644,98.8238792 C244.988817,107.25335 245.830428,115.803379 245.75211,124.395541 C245.744651,125.201069 246.9878,125.201903 246.995259,124.395541 C247.134906,109.095928 244.177869,94.1108509 239.695075,79.5441812 C235.870734,67.1171044 231.738093,54.1306215 224.828258,43.0392783 C221.182103,37.1861627 216.604829,32.0034167 210.907892,28.1088485 C210.244051,27.6549828 209.621648,28.738754 210.280516,29.1892825" id="Fill-112" fill="#00D5FF"></path>
                            <path d="M105.0039,90.6109991 C105.587319,96.4242101 111.77398,100.517751 117.175396,98.4157889 C116.940697,98.3177656 116.705581,98.2201684 116.470465,98.1221451 C117.832055,100.909844 120.926842,101.487756 123.689554,101.820609 C128.974453,102.456056 134.272668,102.99007 139.56256,103.574801 C146.891508,104.384985 156.145906,106.444754 162.155294,100.737238 C161.807406,100.64305 161.459518,100.548862 161.112046,100.455101 C161.717937,105.014892 168.354022,104.890445 171.646056,104.994008 C174.383384,105.079672 177.213094,104.908771 179.794371,103.897425 C180.696549,103.544115 181.913324,102.393406 182.849209,102.439435 C183.328179,102.463301 184.289032,103.323776 184.755518,103.560736 C185.272356,103.823695 185.80043,104.064917 186.338075,104.280569 C188.729179,105.239493 191.318363,105.708726 193.886325,105.671222 C196.664018,105.63116 198.912388,104.716986 201.525708,103.972008 C202.784929,103.612731 203.535634,104.441242 204.742422,104.947554 C205.809389,105.395052 206.916305,105.697646 208.057344,105.863007 C210.688558,106.243167 213.243619,105.819535 215.673008,104.748524 C216.408732,104.423768 215.773296,103.322071 215.042981,103.644269 C210.931996,105.457275 206.315824,104.906213 202.657176,102.30348 C202.470332,102.17051 202.216907,102.204605 202.02715,102.30348 C195.924964,105.487961 188.589358,104.941587 182.961149,100.969937 C182.796776,100.854013 182.493831,100.843359 182.330707,100.969937 C179.131054,103.454615 175.214819,103.853528 171.314398,103.702231 C168.638658,103.598241 162.806127,103.806221 162.315921,100.115002 C162.248092,99.607412 161.576868,99.5434837 161.272674,99.8328657 C155.775131,105.054527 147.086674,103.128155 140.376517,102.386161 L127.759758,100.991672 C124.573838,100.63964 119.243581,100.946496 117.548252,97.4764695 C117.43548,97.2450492 117.086343,97.0882118 116.843321,97.1828256 C112.272092,98.9617364 106.7604,95.6702827 106.252301,90.6109991 C106.171155,89.8008148 104.921505,89.7918648 105.0039,90.6109991" id="Fill-114" fill="#00D5FF"></path>
                            <path d="M98.3730733,186.126274 C102.397352,194.638038 109.772628,197.182204 118.940821,199.035216 C125.596182,200.380151 132.439329,200.142069 139.150485,199.39297 C141.515919,199.129273 145.600572,199.316548 147.247341,197.683143 C148.022634,196.914308 148.491058,195.424928 149.323394,194.534743 C150.323947,193.465261 151.514783,192.587254 152.5424,191.542546 C153.796526,190.267734 154.803741,188.772055 155.925043,187.376732 C158.947936,183.614021 162.838141,180.563878 167.199268,178.537447 C168.251868,178.048685 169.535556,176.872969 168.76526,176 C156.682848,180.872083 144.096621,184.473553 131.277222,186.728409 C128.308875,187.250343 125.286814,187.701734 122.291819,187.371273 C120.714585,187.197435 119.16733,186.808609 117.594676,186.594881 C115.887116,186.363097 114.15957,186.339583 112.436604,186.316068 C107.624125,186.250984 102.812479,186.1859 98,186.120396" id="Fill-116" fill="#CCF9FF"></path>
                            <path d="M98.4359412,185.963787 C103.42489,196.082076 115.209059,199.130774 125.661678,199.859504 C129.417511,200.121663 133.191203,199.9937 136.939144,199.667558 C139.662466,199.430741 142.556072,199.424094 145.235784,198.861967 C147.689556,198.346787 148.415969,197.140271 149.695602,195.153091 C150.651277,193.669042 152.219149,192.687709 153.447696,191.449201 C154.780907,190.105995 155.838338,188.51891 157.039889,187.063529 C159.477047,184.111219 162.466596,181.630464 165.808344,179.765847 C167.30644,178.929927 171.032785,177.7097 169.727401,175.315362 C169.607786,175.095996 169.270538,174.93064 169.023832,175.029105 C157.920389,179.443445 146.429859,182.83158 134.693868,185.083412 C131.771604,185.643462 128.80656,186.249628 125.826149,186.35308 C122.717817,186.460686 119.758172,185.579895 116.682651,185.338924 C110.700647,184.870693 104.600275,185.101277 98.601658,185.020261 C97.799655,185.009459 97.7992397,186.25586 98.601658,186.266663 C104.711999,186.348925 110.962721,186.058929 117.049388,186.617732 C120.016092,186.890279 122.821234,187.703348 125.826149,187.599897 C128.661194,187.501016 131.478796,186.950522 134.259848,186.429941 C146.260404,184.183925 158.011346,180.740533 169.35485,176.230637 C169.120604,176.135495 168.885942,176.039937 168.65128,175.94438 C169.242711,177.028334 164.356764,179.151787 163.708433,179.561853 C162.314585,180.442643 160.986358,181.433948 159.741613,182.514994 C156.971359,184.920549 155.118155,187.985866 152.566781,190.567995 C151.389734,191.758724 149.919465,192.704743 148.922672,194.064567 C147.80128,195.594317 147.466523,196.976577 145.433897,197.539119 C142.43978,198.367976 138.857971,198.285298 135.774558,198.516714 C128.161552,199.088396 120.619152,198.50425 113.292309,196.277345 C107.256728,194.443058 102.355414,191.10187 99.5116469,185.33477 C99.1569547,184.615596 98.0820797,185.24586 98.4359412,185.963787" id="Fill-118" fill="#00D5FF"></path>
                            <path d="M80.0655351,182.958369 C88.1939448,200.513758 93.4642547,219.103765 95.7708057,238.401272 C95.8658581,239.194746 97.0905249,239.204392 96.9946566,238.401272 C94.659957,218.870169 89.3488521,200.091438 81.1225343,182.323003 C80.7839356,181.592437 79.7285682,182.230319 80.0655351,182.958369" id="Fill-120" fill="#00D5FF"></path>
                            <path d="M220.50228,166.255277 C221.54754,166.980364 223.540435,167.407968 224.589062,166.427239 C225.203425,165.853195 224.946739,164.845688 224.94716,164.039432 C224.948422,163.080042 224.949685,162.120651 224.950526,161.161261 C224.95263,159.493101 224.954313,157.821176 224.782207,156.161384 C224.586958,154.27482 224.166581,152.411686 223.532861,150.623027 C223.209689,149.709661 222.826763,148.809265 222.278885,148.009284 C221.66915,147.120185 220.871319,146.378362 220.080221,145.644071 C219.452391,145.062077 218.824983,144.479665 218.196733,143.897252 C216.80684,142.607326 215.565909,142.41277 213.76616,142.023658 C213.67106,142.003157 213.567544,141.983074 213.478756,142.022822 C213.405958,142.055875 213.356304,142.123238 213.309174,142.187671 C212.512605,143.292665 212.017327,144.719408 211.423582,145.956197 C210.747782,147.363275 210.105646,148.785416 209.498015,150.222619 C209.181575,150.970299 208.868502,151.78325 209.05702,152.57277 C209.267418,153.452665 210.040843,154.066875 210.742312,154.64343 C213.365982,156.798189 215.627346,159.389338 217.403951,162.275459 C218.291833,163.718101 219.108179,165.287518 220.50228,166.255277" id="Fill-122" fill="#CCF9FF"></path>
                            <path d="M219.58487,166.184252 C221.039793,167.051296 223.736009,167.637192 224.714085,165.74452 C225.2368,164.733384 224.882676,163.112336 224.883915,162.031223 C224.885982,160.378293 224.917386,158.720807 224.827305,157.069119 C224.658714,153.986437 224.094265,150.607701 222.552154,147.888564 C221.767875,146.506429 220.606333,145.453887 219.45884,144.379399 C218.490268,143.471778 217.573761,142.489212 216.361807,141.908285 C215.570504,141.528591 213.889966,140.811438 213.000318,141.04621 C212.153231,141.269803 211.803653,142.28715 211.449529,143.015069 C210.646242,144.668414 209.902459,146.367305 209.164047,148.050876 C208.661166,149.198238 207.896722,150.51992 208.011595,151.812618 C208.105808,152.868473 208.707033,153.551673 209.458255,154.247295 C210.739215,155.432751 212.055713,156.520075 213.220147,157.832647 C215.475465,160.375394 216.785764,163.97441 219.459253,166.087362 C220.079073,166.576782 220.962522,165.703942 220.335678,165.209139 C218.482417,163.743778 217.552687,161.492116 216.204373,159.601515 C214.994071,157.903866 213.619311,156.324224 212.095794,154.901925 C211.419778,154.271311 210.49542,153.731789 209.931384,153.000558 C208.600011,151.275581 209.823535,149.588283 210.547071,147.973032 C211.051605,146.846787 211.574319,145.729237 212.083398,144.605062 C212.639583,143.375716 212.838752,142.315306 214.351525,142.539313 C216.533704,142.862281 218.240687,144.87296 219.738998,146.351157 C221.61416,148.200766 222.483973,150.514951 223.050902,153.046933 C223.607913,155.537922 223.645929,158.067005 223.645929,160.606854 C223.645929,161.628342 223.735596,162.688752 223.653367,163.704029 C223.602128,164.337956 223.557914,165.353647 222.829006,165.703114 C222.100512,166.052167 220.806741,165.467513 220.210888,165.111835 C219.523301,164.701915 218.899349,165.775574 219.58487,166.184252" id="Fill-124" fill="#00D5FF"></path>
                            <path d="M174.195784,267.635641 C182.242819,257.864379 190.027912,247.878598 197.525699,237.678714 C205.039702,227.457169 212.59071,217.093167 219.216603,206.265136 C222.16782,201.441987 224.738182,196.257695 225.603423,190.611873 C226.547663,184.450372 225.555192,178.254714 225.201778,172.089463 C224.650867,162.4919 227.348458,150.582941 218.466534,143.854108 C210.061927,137.486834 198.82169,143.031436 191.374628,148.254883 C186.94115,151.365208 183.706786,155.182407 181.302737,160.038046 C180.054977,162.55938 178.944425,165.16194 177.411854,167.530402 C175.872631,169.908862 173.900579,171.946173 171.762215,173.788542 C167.555754,177.412048 162.773435,180.297856 158.664683,184.044243 C154.815378,187.553199 151.491205,191.587 148.263493,195.662872 C141.342395,204.402357 134.718995,212.879003 124.828385,218.424438 C118.89851,221.749699 113.124137,224.968742 107.708999,229.120008 C102.179105,233.359581 96.7914084,237.792846 91.3513235,242.146969 C85.8384768,246.558157 80.2574419,250.8977 74.8223463,255.40636 C70.1597728,259.27396 65.7595573,263.536026 63.0694511,269.05022 C62.7185315,269.770006 63.7937425,270.403984 64.1467409,269.680866 C66.5412265,264.771909 70.3086225,260.886814 74.4165436,257.373275 C78.8616635,253.571489 83.5188319,250.004216 88.0849441,246.349886 C93.0843007,242.349408 98.0828257,238.347265 103.083014,234.348037 C107.787581,230.584156 112.515017,226.815277 117.724343,223.763684 C122.512898,220.958268 127.59458,218.660618 132.025563,215.274541 C135.834953,212.36374 139.142495,208.873111 142.221772,205.21045 C148.63936,197.576469 154.209168,189.116068 162.034176,182.795447 C166.011542,179.582652 170.395542,176.875124 174.116786,173.346173 C177.93657,169.723084 180.076598,165.322309 182.380027,160.669109 C185.027724,155.320282 188.736494,151.373539 193.754145,148.165743 C198.590516,145.074162 204.169887,142.137118 210.059848,142.253334 C214.724916,142.34539 218.834916,144.839648 221.248943,148.810967 C224.073347,153.458752 224.068358,158.874642 223.920339,164.142659 C223.746958,170.312075 224.45254,176.35153 224.704919,182.502201 C224.966446,188.889885 223.858804,194.773553 221.006959,200.511014 C218.10023,206.358442 214.225562,211.730178 210.558786,217.113578 C206.71447,222.7569 202.785335,228.342323 198.772628,233.867347 C190.624558,245.087344 182.127648,256.049502 173.313912,266.752153 C172.806658,267.367804 173.684789,268.256706 174.195784,267.635641" id="Fill-126" fill="#00D5FF"></path>
                            <g id="Group-130" transform="translate(204.000000, 227.000000)">
                                <mask id="mask-4" fill="white">
                                    <use xlink:href="#path-3"></use>
                                </mask>
                                <g id="Clip-129"></g>
                                <path d="M0.168123077,1.49679485 C3.68812308,5.91722868 7.38740513,10.2425228 10.7174564,14.8146772 C13.9342769,19.231339 15.3213538,24.0507728 14.2953026,29.5257066 C12.3921231,39.683861 4.58412308,47.0666184 0.180430769,56.046214 C-0.173210256,56.7679346 0.888123077,57.4054125 1.24299487,56.6807581 C5.9137641,47.1563096 14.3490462,39.3175522 15.7225846,28.315714 C16.3646359,23.1773316 14.9467897,18.5993096 11.9802256,14.4588463 C8.55827692,9.68300074 4.69366154,5.19802279 1.03827692,0.607846324 C0.538174359,-0.0199919118 -0.327876923,0.874405147 0.168123077,1.49679485" id="Fill-128" fill="#00D5FF" mask="url(#mask-4)"></path>
                            </g>
                            <path d="M68.753705,179.441589 C66.8353169,185.176645 63.1946018,190.113121 57.8303055,192.863022 C55.1698955,194.22621 52.2202014,194.982443 49.2583841,195.198877 C47.0473677,195.360132 44.0370577,194.432805 42.2144009,195.939284 C41.586086,196.458125 42.4781845,197.361499 43.1010649,196.846507 C44.2067822,195.932868 46.7388538,196.580457 48.1091907,196.54025 C49.4832899,196.500043 50.8582253,196.353758 52.2105865,196.10054 C54.9771788,195.582126 57.6681058,194.563692 60.0676585,193.056358 C64.8997892,190.019875 68.1471281,185.211291 69.9630963,179.782493 C70.2252077,178.99974 69.0141442,178.663541 68.753705,179.441589" id="Fill-131" fill="#00D5FF"></path>
                            <path d="M62.0102326,190.783043 C64.0133079,202.776723 64.700949,215.037143 64.3056266,227.192698 C64.1305611,232.573667 63.0162487,238.03911 65.239988,243.120882 C67.8724848,249.138945 70.1169877,254.769176 70.7749083,261.40311 C70.8534843,262.194588 72.0756859,262.203327 71.9962957,261.40311 C71.4198009,255.591863 69.8645676,250.043194 67.3749731,244.787896 C65.889766,241.653194 64.943598,238.953346 65.0865003,235.431644 C65.2078248,232.439673 65.4635018,229.45769 65.548999,226.462807 C65.8918017,214.432923 65.1703689,202.319397 63.1880572,190.451388 C63.0557402,189.661158 61.8787299,189.995726 62.0102326,190.783043" id="Fill-133" fill="#00D5FF"></path>
                            <path d="M44.8711707,111.327296 C43.4332852,114.656415 42.4118366,118.153617 41.0405314,121.509429 C40.4020226,123.071805 39.4268906,124.457756 38.7739078,126.01179 C37.6738862,128.628956 36.7301834,131.299509 35.5222273,133.899575 C30.4418641,144.832033 23.8351176,154.493235 14.7036972,162.381438 C10.9954664,165.585017 7.05606552,168.642201 4.15506857,172.655746 C1.02662354,176.985019 -0.056856432,182.039591 0.00228007028,187.325642 C0.0721686638,193.603088 1.05433085,199.895549 1.57084478,206.14797 C2.1158931,212.738225 2.54969863,219.338073 2.87184783,225.94376 C3.61126088,241.082035 3.75517348,256.245335 3.33460129,271.396123 C3.31227003,272.201501 4.55289595,272.201084 4.57522722,271.396123 C5.30057984,245.259492 4.060781,219.259662 1.60971772,193.244401 C1.04027042,187.196765 0.772708767,180.834235 3.87386003,175.376348 C6.36710459,170.989935 10.3474461,167.727965 14.1234978,164.512291 C22.88852,157.04784 29.8149345,148.346335 34.9449227,137.977767 C36.4134102,135.009421 37.7723092,131.98602 39.1097039,128.955529 C39.5422688,127.975395 39.6708804,126.975658 40.1394234,126.000529 C40.6588321,124.918627 41.3258753,123.915137 41.8287424,122.825311 C43.4498269,119.312677 44.4088308,115.510174 45.9422444,111.958752 C46.2581905,111.228031 45.189598,110.590318 44.8711707,111.327296" id="Fill-135" fill="#00D5FF"></path>
                            <path d="M66.4037625,179.529713 C93.3535902,186.429614 121.46786,190.386947 148.791377,183.133068 C156.120439,181.187625 163.832782,179.23603 170.708079,176.024799 C171.368291,175.71635 170.791909,174.752447 170.134199,175.059666 C164.042982,177.904614 157.253601,179.61995 150.781188,181.430036 C143.989304,183.329129 137.104415,184.756526 130.071469,185.441102 C116.53483,186.758572 102.860976,185.69992 89.4919966,183.412394 C81.8238618,182.100666 74.2362204,180.379998 66.7061338,178.451782 C65.9975424,178.270487 65.6951711,179.348417 66.4037625,179.529713" id="Fill-137" fill="#004DF1"></path>
                        </g>
                    </g>
                </g>
            </g>
        </g>
    </g>
</svg>