<?xml version="1.0" encoding="UTF-8"?>
<svg width="308px" height="222px" viewBox="0 0 308 222" version="1.1" xmlns="http://www.w3.org/2000/svg" xmlns:xlink="http://www.w3.org/1999/xlink">
    <!-- Generator: Sketch 53.2 (72643) - https://sketchapp.com -->
    <title>smile-white</title>
    <desc>Created with Sketch.</desc>
    <g id="Page-1" stroke="none" stroke-width="1" fill="none" fill-rule="evenodd">
        <g id="smile-white" fill="#00D5FF" fill-rule="nonzero">
            <path d="M72.0322581,142.625698 C32.2524435,142.625698 -5.68434189e-14,110.697183 -5.68434189e-14,71.3113666 C-5.68434189e-14,31.9285154 32.2524435,-2.13162821e-13 72.0322581,-2.13162821e-13 C111.812073,-2.13162821e-13 144.064516,31.9285154 144.064516,71.3113666 C144.064516,110.697183 111.812073,142.625698 72.0322581,142.625698 Z M72.0322581,34.229456 C51.3469946,34.229456 34.5754839,50.8341817 34.5754839,71.3113666 C34.5754839,91.7944818 51.3469946,108.396242 72.0322581,108.396242 C92.7205228,108.396242 109.489032,91.7944818 109.489032,71.3113666 C109.489032,50.8341817 92.7205228,34.229456 72.0322581,34.229456 Z M235.969243,34.229456 C215.280547,34.229456 198.511688,50.8341817 198.511688,71.3113666 C198.511688,91.7944818 215.280547,108.396242 235.969243,108.396242 C256.657938,108.396242 273.423796,91.7944818 273.423796,71.3113666 C273.423796,50.8341817 256.657938,34.229456 235.969243,34.229456 Z M235.969243,142.625698 C196.185598,142.625698 163.935484,110.697183 163.935484,71.3113666 C163.935484,31.9285154 196.185598,-2.13162821e-13 235.969243,-2.13162821e-13 C275.749886,-2.13162821e-13 308,31.9285154 308,71.3113666 C308,110.697183 275.749886,142.625698 235.969243,142.625698 Z" id="Fill-51"></path>
            <path d="M283.038994,146.346369 C278.744378,146.346369 274.834755,147.955467 271.859263,150.58504 C213.841654,201.457973 97.1110592,201.221341 35.1927802,149.804155 C35.1927802,149.804155 35.2285936,149.795281 35.1927802,149.804155 C32.3515887,147.630098 28.6956436,146.346369 24.827803,146.346369 C15.5372259,146.346369 8.00747135,153.809152 8.00747135,163.017096 C8.00747135,167.953833 10.1682095,172.414347 13.60629,175.469858 C13.6003212,175.484648 13.6152434,175.455069 13.60629,175.469858 C13.7674501,175.602964 13.9375634,175.724237 14.0987235,175.854385 C14.1345368,175.883964 14.1733346,175.913543 14.2121324,175.943122 C89.1933268,237.61535 224.606547,237.363928 294.788754,175.111952 C294.788754,175.111952 294.773831,175.138573 294.788754,175.111952 C297.641883,172.124472 299.86231,167.456905 299.86231,163.017096 C299.86231,153.809152 292.329571,146.346369 283.038994,146.346369" id="Fill-11"></path>
        </g>
    </g>
</svg>