<?xml version="1.0" encoding="UTF-8"?>
<svg width="261px" height="171px" viewBox="0 0 261 171" version="1.1" xmlns="http://www.w3.org/2000/svg" xmlns:xlink="http://www.w3.org/1999/xlink">
    <!-- Generator: Sketch 53.2 (72643) - https://sketchapp.com -->
    <title>Group 114</title>
    <desc>Created with Sketch.</desc>
    <defs>
        <polygon id="path-1" points="0.380047222 0.394695652 65.57131 0.394695652 65.57131 88.9327392 0.380047222 88.9327392"></polygon>
    </defs>
    <g id="projects" stroke="none" stroke-width="1" fill="none" fill-rule="evenodd">
        <g id="project-snooze-2@2x" transform="translate(-124.000000, -20542.000000)">
            <g id="website" transform="translate(-1012.000000, 19844.000000)">
                <g id="copy" transform="translate(1123.000000, 0.000000)">
                    <g id="Group-114" transform="translate(154.009372, 767.608292) rotate(-20.000000) translate(-154.009372, -767.608292) translate(22.509372, 678.608292)">
                        <path d="M69.5262445,5.25691522 C72.3166901,10.5639435 77.7669437,13.1441807 83.3240324,14.6069442 C85.1618184,15.089906 87.0245143,15.4690587 88.8772462,15.8859602 C90.4205437,16.2340258 94.0092085,16.6037413 94.7398945,18.3029896 C96.2914952,21.907994 91.8420601,27.0995555 89.5105074,29.4272092 C88.3331065,30.6024162 87.0328175,31.6532744 85.6356573,32.5542479 C84.4837197,33.297565 83.0168121,33.8338191 82.0259576,34.8069593 C81.3240561,35.4958737 80.9636951,36.2158754 80.8009514,37.1817989 C80.6941162,37.8163108 80.8784484,38.4558188 80.8253076,39.0881101 C80.6791703,40.8117841 79.7713483,41.8154564 78.4400605,42.8280107 C72.5585915,47.2995706 66.0693246,51.6467817 59.4067965,54.8359948 C58.7286977,55.160745 58.9700455,56.1616416 59.6049674,56.357602 C77.0965946,61.7667739 94.5920966,67.0488214 112.840427,69.1444314 C122.348202,70.2363691 131.930153,70.6804719 141.498819,70.4673026 C146.191816,70.3629384 150.882599,70.1003626 155.557882,69.678465 C156.765175,69.5702149 158.467894,69.7939317 159.44491,69.0334057 C160.06544,68.550999 160.377642,67.6528012 161.080651,67.1426381 C162.131289,66.3798916 163.355188,66.0423735 164.627799,65.889158 C168.601181,65.4128578 172.345947,67.3241651 176.246261,67.7221922 C177.352807,67.8354384 178.488692,68.0402808 179.367176,67.3574728 C180.020365,66.8495303 180.434974,65.7642541 181.069896,65.1508371 C181.826045,64.4213983 182.7156,63.8213044 183.644457,63.3372324 C191.652111,59.165997 200.278081,63.6803018 208.485568,64.4624778 C212.126266,64.8094331 213.353486,62.6166756 215.890406,60.445013 C218.815918,57.9408284 222.441671,56.2665609 226.199168,55.4921567 C230.09616,54.6883307 234.194091,54.8520936 237.987016,56.0744865 C241.777727,57.2963243 244.92798,59.7783037 248.464057,61.5319546 C250.19058,62.3879627 252.001796,63.0785425 253.925382,63.3072554 C256.271327,63.5864851 259.604252,62.4839999 260.732386,65.0287088 C261.680064,67.1670637 259.535058,70.3768166 258.655467,72.5007382 C257.697825,74.8134034 256.825984,77.2493072 255.400039,79.3288185 C253.596573,81.9584621 251.070724,82.6867906 248.243744,83.794272 C246.09431,84.6364019 244.214454,85.9948013 242.067787,86.8602466 C237.344344,88.763227 232.24947,89.126281 227.307929,87.9227625 C226.863982,87.8150675 226.419481,88.0626548 226.286076,88.5045371 C224.600516,94.1218822 217.91031,94.2168092 213.172476,95.0533878 C207.914304,95.9821177 203.551223,98.7927332 198.061667,98.1915291 C196.368358,98.005561 192.398297,98.0088918 192.284265,100.545274 C192.201786,102.367205 194.563231,102.648101 195.907804,102.779111 C198.385494,103.020592 200.864844,102.658093 203.34032,102.794099 C208.447926,103.073884 213.83895,104.128073 218.637121,105.933906 C221.071081,106.849868 223.101502,108.426988 225.474571,109.438987 C227.423621,110.27057 229.573609,110.468751 231.492214,111.37361 C235.579073,113.301016 237.855825,118.211127 239.757269,122.104243 C240.792408,124.224279 241.839171,126.627985 241.911686,129.032247 C241.993058,131.768475 240.334622,134.213816 238.978978,136.482626 C236.042395,141.395513 232.365162,145.76604 228.129397,149.599202 C227.333946,150.318648 228.511347,151.4933 229.303477,150.776629 C232.830144,147.585751 235.978183,144.022381 238.654597,140.0843 C240.723214,137.042196 243.579532,133.231794 243.573996,129.385309 C243.569014,125.668723 241.691373,122.066495 239.948797,118.89227 C238.180205,115.668084 236.291492,112.17355 233.012816,110.257802 C231.132406,109.158647 228.977436,108.926048 226.95255,108.225476 C224.596087,107.410548 222.618807,105.802341 220.331538,104.825314 C215.95019,102.954531 211.087253,102.008592 206.380417,101.430704 C203.206914,101.041004 200.179549,101.310241 197.008815,101.182006 C195.899501,101.137596 192.556058,100.881682 195.204795,99.9079863 C197.141113,99.1963116 199.750548,100.22774 201.829128,99.9834838 C204.621788,99.6554029 207.166458,98.4690933 209.815195,97.6086442 C212.724654,96.6632604 215.722127,96.4650795 218.705208,95.8810843 C222.723428,95.0944673 226.634259,93.1226509 227.888049,88.9469745 C227.547616,89.1407143 227.207183,89.3350093 226.866196,89.5287492 C230.74326,90.4724676 234.699482,90.5623984 238.600349,89.6819646 C242.994983,88.6888398 246.647306,86.1635603 250.830484,84.6425083 C254.633926,83.2602384 256.81602,80.7682666 258.49383,77.1277341 C259.348511,75.2736049 260.084179,73.3589668 260.865238,71.4731954 C261.61862,69.6545945 263.156936,67.3097318 262.986996,65.2979462 C262.723506,62.1598049 259.197946,61.6618546 256.729666,61.6973828 C251.719485,61.7695495 248.137463,59.4491125 243.942107,57.0259767 C237.51982,53.3166082 230.168675,52.274632 223.055004,54.6122781 C219.75806,55.6953337 216.677001,57.4401025 214.118493,59.7982883 C213.406627,60.4544502 212.710815,61.5219622 211.900971,62.043783 C210.28848,63.0829835 208.470622,62.8231834 206.714207,62.5322961 C204.059935,62.0920792 201.456036,61.3926173 198.822798,60.8497017 C191.441762,59.3269842 184.450426,59.5268305 178.897212,65.0825563 C178.268379,65.7109617 178.216899,66.0507004 177.204456,66.1261979 C175.880364,66.2255658 174.415117,65.7675849 173.136417,65.4605988 C171.132565,64.9798575 169.145321,64.3514521 167.081133,64.1854687 C164.013912,63.9401019 161.218485,64.6656548 158.964429,66.7823597 C157.427774,68.2256938 155.506955,68.028068 153.399037,68.196272 C150.699373,68.4122169 147.994728,68.5732042 145.288422,68.6825645 C140.056267,68.8940684 134.815809,68.909612 129.582547,68.7286402 C117.484158,68.3106284 105.434481,66.8711803 93.6184021,64.2160008 C82.2678589,61.6651854 71.1542351,58.1867503 60.0467003,54.7521704 C60.1125728,55.2590027 60.1789988,55.7663902 60.2448712,56.2737776 C64.2686264,54.3480369 68.0089639,51.9587639 71.6972677,49.4584653 C74.6382789,47.4644438 78.15775,45.641957 80.6880271,43.1244493 C81.5216735,42.2945322 82.2014329,41.3291638 82.4195316,40.1495158 C82.5357771,39.5155591 82.3320707,38.8516254 82.4383523,38.2404289 C82.8668,35.7812098 83.7231419,35.6096751 85.3605429,34.663181 C88.3070897,32.9594917 90.8954896,30.7017842 92.9663202,27.9938675 C96.1204483,23.8692629 99.3315919,17.2532417 92.5793888,15.077138 C84.8291349,12.579615 75.280397,12.6323522 70.959939,4.4164507 C70.4611905,3.46773613 69.0274959,4.30875578 69.5262445,5.25691522" id="Fill-1" fill="#00D5FF"></path>
                        <path d="M3.57065995,35.6401992 C5.07254607,33.525423 5.05991133,30.6963632 5.95752725,28.3170375 C6.66287537,26.4479144 7.70991083,24.5161632 9.48207052,23.4244917 C12.3973996,21.6282546 13.8613815,23.9730269 15.4247933,26.1180374 C16.0373035,26.958117 17.4672266,26.1498913 16.8475749,25.3006334 C15.8483318,23.9292953 14.7754775,21.6601085 12.9544268,21.1423474 C11.2284114,20.6515811 9.25794121,21.5062379 7.92415208,22.5390607 C6.29427055,23.8007998 5.27854727,25.5943374 4.53474559,27.4634605 C3.61295887,29.7817778 3.6014228,32.776586 2.1478783,34.8227953 C1.53921341,35.6790718 2.96748843,36.4894571 3.57065995,35.6401992" id="Fill-3" fill="#00D5FF"></path>
                        <path d="M3.76036185,120.198191 C3.89688683,116.586937 5.34263735,113.243367 6.48922956,109.875966 C7.01030894,108.345228 7.39214373,106.764611 7.94313894,105.244958 C8.63773014,103.330705 9.76528501,101.872015 10.7019225,100.112387 C11.4416594,98.7246366 11.6690197,97.2127423 12.1971701,95.7462935 C12.8417203,93.9572924 13.9099874,93.0688882 15.3535622,91.9560276 C16.8074716,90.835408 18.5447655,89.6039456 18.9276881,87.6514516 C19.1262205,86.6383494 18.8879817,85.7638005 18.5523804,84.8221919 C17.9752769,83.2011175 17.6331485,81.6271513 17.2524016,79.9473302 C16.5507394,76.8531565 15.3943565,73.8903313 13.2393289,71.5327072 C10.9842191,69.0647947 6.97767349,68.5028222 5.35841115,65.5150574 C4.53762953,63.9998378 4.54034915,62.2956314 3.92680266,60.7272073 C3.33610098,59.2169757 2.15524154,58.1246209 1.62273975,56.5700522 C1.27897966,55.5663716 -0.297856594,55.9981039 0.0497109691,57.0123145 C0.479411086,58.2670538 1.21751622,59.1792891 1.87294488,60.303234 C2.72309841,61.7602612 2.80142349,63.4422991 3.37363175,65.0107232 C4.34181682,67.6665141 6.09488451,68.9373256 8.52133036,70.1527157 C12.262441,72.025403 14.4022388,75.3218647 15.4460293,79.362635 C15.8583239,80.9587698 16.0416263,82.6119886 16.5561786,84.1798585 C17.2257493,86.219364 17.744653,87.5577895 16.0737179,89.2575622 C14.594788,90.7611433 12.5599675,91.6307043 11.4122875,93.4801146 C10.6616721,94.6894084 10.4457342,96.1314718 10.0133144,97.4660178 C9.44654543,99.2151155 8.42614363,100.499782 7.56619947,102.07264 C6.10793869,104.739515 5.48623334,107.812629 4.48378104,110.670708 C3.39321302,113.779845 2.25477967,116.864043 2.12858926,120.198191 C2.08833887,121.268378 3.72011146,121.266161 3.76036185,120.198191" id="Fill-5" fill="#00D5FF"></path>
                        <path d="M3.80405926,131.386633 C4.31716975,127.502091 3.66636924,123.706142 3.61365977,119.81765 C3.59859993,118.729143 1.98504492,118.725758 2.00010477,119.81765 C2.05012497,123.532342 2.73803725,127.226155 2.24805438,130.936333 C2.1076751,132.002268 3.66206642,132.462726 3.80405926,131.386633" id="Fill-7" fill="#00D5FF"></path>
                        <path d="M198.990794,160.565351 C172.817753,169.620122 145.170889,172.513956 117.80864,175.34623 C110.481446,176.105085 102.865776,177.132001 95.5694705,175.637236 C92.4546961,174.999261 89.4789199,173.892318 86.5174847,172.748999 C83.1942129,171.465774 79.8400525,171.272702 76.3584771,170.752808 C69.7560599,169.767864 63.2562365,167.878002 56.8601103,165.988141 C50.5572012,164.12626 44.1594203,162.390296 37.9491767,160.231254 C34.5519931,159.051 31.4752776,157.229972 28.1685532,155.843216 C24.3946402,154.25947 20.4596657,153.130142 16.7254664,151.437269 C11.1015528,148.887607 2.04239645,145.311028 2.70043186,137.804187 C2.79475211,136.728583 1.13945936,136.735298 1.04569069,137.804187 C0.601668475,142.871612 3.44341064,145.724593 7.41423787,148.275374 C13.3702029,152.100428 19.7343375,154.336139 26.2639461,156.876288 C29.4509776,158.115862 32.3980716,159.871413 35.5724168,161.136171 C39.0280679,162.512295 42.6613279,163.461983 46.2162636,164.536467 C53.0713046,166.607648 59.9120046,168.768929 66.865227,170.47971 C73.7009628,172.16139 80.896329,172.408746 87.4761315,174.918115 C94.2627766,177.506392 100.893324,178.331842 108.120682,177.8847 C122.452947,176.997131 136.857469,175.145324 151.077763,173.151371 C167.465768,170.854101 183.747318,167.609941 199.430403,162.184353 C200.432625,161.837384 200.002392,160.215584 198.990794,160.565351" id="Fill-9" fill="#00D5FF"></path>
                        <g id="Group-13" transform="translate(7.000000, 0.000000)">
                            <mask id="mask-2" fill="white">
                                <use xlink:href="#path-1"></use>
                            </mask>
                            <g id="Clip-12"></g>
                            <path d="M65.4533092,5.25216087 C61.5520992,-1.48585776 50.3487378,0.36711118 44.093158,1.58602422 C35.3789395,3.28476335 27.2975445,6.23668882 20.4019311,11.9431919 C13.9788555,17.2588689 8.26735966,24.4020863 4.30791429,31.7210925 C0.19927563,39.3159435 -0.506757983,47.796372 1.35788067,56.162372 C3.61907395,66.3105832 9.28786387,75.2614404 14.7863849,83.9381112 L14.9161664,82.9331298 C13.4902336,84.4560801 12.0631916,85.9790304 10.6372588,87.5025335 C9.90682185,88.2819745 11.0809563,89.4572168 11.8136118,88.6750118 C13.2400992,87.1515087 14.6665866,85.6285584 16.0930739,84.1056081 C16.3387714,83.8435832 16.4241832,83.4173783 16.2228555,83.1011795 C10.7137966,74.407372 5.01117479,65.4487758 2.85591429,55.2452851 C1.74777983,49.999813 1.60246891,44.465782 2.99734286,39.2590056 C4.29959496,34.3982789 7.02223361,30.020695 9.95396471,25.9786578 C15.6449395,18.1333907 22.5045025,10.8624776 31.5564857,6.93708012 C36.4560151,4.81268882 41.8175445,3.55452733 47.0842336,2.73086273 C52.0858134,1.94921056 60.9941496,0.868496273 64.0168387,6.08909255 C64.5514941,7.01336584 65.9901832,6.17919814 65.4533092,5.25216087" id="Fill-11" fill="#00D5FF" mask="url(#mask-2)"></path>
                        </g>
                        <path d="M60.4053241,54.3383277 C52.4918636,52.3815519 44.6494903,50.2168969 36.9342966,47.5551394 C29.955523,45.1475821 17.6135457,42.3095793 17.6663058,32.8183126 C17.6724149,31.7280766 16.0063063,31.726382 16.0001972,32.8183126 C15.95188,41.5514981 24.7928077,44.9204967 31.5433245,47.4201309 C40.8485412,50.8665193 50.3448049,53.5943688 59.9626946,55.9725519 C61.0040125,56.2301413 61.4483081,54.5964821 60.4053241,54.3383277" id="Fill-14" fill="#00D5FF"></path>
                        <path d="M29.1257342,25.5178473 C30.8326743,28.3064268 32.9341404,30.734926 35.4547236,32.7870024 C35.8706332,33.1252926 36.6858801,33.0991446 36.7954707,32.4269221 C37.3728259,28.8767809 36.7307855,25.424695 34.8319284,22.3806273 C34.2796988,21.4954073 32.8908387,22.3147125 33.4468104,23.2053801 C35.1034991,25.8610404 35.7551621,28.8795047 35.2489071,31.9922109 C35.6958228,31.8723657 36.142204,31.7519758 36.5891197,31.6315859 C34.1711774,29.6634011 32.1498995,27.3716344 30.5103176,24.6930946 C29.9655723,23.8029718 28.5777814,24.622277 29.1257342,25.5178473" id="Fill-16" fill="#00D5FF"></path>
                        <path d="M40.5771673,17.6496919 C44.1613306,18.2452821 47.1894223,19.9569922 49.5763837,22.7559944 C50.099495,23.3700779 51.1489074,22.7206397 50.9091481,21.962418 C49.6492152,17.9782184 49.6667586,13.9689985 50.9553988,9.99785291 C51.2796853,8.9992194 49.7401218,8.57061198 49.4174301,9.56435024 C48.0469209,13.786786 48.0325673,18.1642383 49.3711794,22.3964646 C49.8150798,22.1315765 50.2595118,21.8666884 50.7039438,21.6023442 C48.1617502,18.6205856 44.8189411,16.7103454 41.0013978,16.076137 C39.9971729,15.9096981 39.5649681,17.4816212 40.5771673,17.6496919" id="Fill-18" fill="#00D5FF"></path>
                        <path d="M73.4400517,22.8653956 C71.6909659,22.1539296 68.8856067,21.2829089 67.5240261,22.9886104 C66.524229,24.2411995 69.7439337,23.1708774 66.1708331,25.474483 C65.3074736,26.0309369 64.1975199,26.0576239 63.2212079,26.2012799 C61.7997961,26.4090984 60.5953425,26.6589348 59.4182882,27.5441508 C59.1224869,27.7667323 58.9167121,28.1182068 59.0330196,28.506021 C60.3286181,32.8219455 65.6815588,30.473483 67.6761206,33.6066591 C68.2604539,34.5236724 69.7131793,33.6708216 69.1249317,32.7464268 C68.4421844,31.6744013 67.6084609,31.0736583 66.4079215,30.6710809 C64.5839068,30.0589816 61.3642021,30.4320329 60.6507004,28.0534764 C60.5220911,28.3737213 60.3934819,28.694534 60.2648726,29.0153467 C62.4529074,27.3698331 65.4746657,28.2510743 67.6554312,26.5203892 C68.3912998,25.9361126 68.5249416,25.3240133 69.0142159,24.5989198 C69.5577298,23.7949007 68.5842137,24.0935688 69.790904,23.7619677 C70.7062664,23.5098601 72.1768852,24.1759013 72.9943927,24.5080702 C73.9958674,24.9157578 74.4314613,23.2685408 73.4400517,22.8653956" id="Fill-20" fill="#00D5FF"></path>
                        <path d="M52.0916016,29.1446267 C50.8535265,30.0704442 50.5697903,32.2405406 51.7560437,33.3985825 C52.286574,33.9166214 53.0213123,34.1223586 53.6883233,33.927709 C54.3779101,33.7262836 54.7811952,32.8300332 55.4435885,32.6926697 C56.4179377,32.4906284 56.0049039,30.7098311 55.0346594,30.9112565 C54.6703688,30.986406 54.3738054,31.1915272 54.0849384,31.4619423 C53.8253171,31.7040223 53.560052,32.109953 53.2152586,32.1499916 C52.4959129,32.2331489 52.3040189,31.1625762 52.8684129,30.7406301 C53.7073075,30.1129468 52.9356271,28.5138635 52.0916016,29.1446267" id="Fill-22" fill="#00D5FF"></path>
                        <path d="M40.0277858,37.0618426 C41.053152,41.3078091 45.5313846,44.8290487 49.6255932,41.9546022 C50.5069505,41.3356832 49.6708053,39.8560799 48.7805173,40.4812564 C45.5844111,42.7248378 42.4201209,39.827637 41.6425841,36.6084617 C41.3852657,35.5424192 39.7699092,35.9940936 40.0277858,37.0618426" id="Fill-24" fill="#00D5FF"></path>
                        <path d="M34.1551906,40.6053754 C33.6157093,42.3947756 34.5385335,44.2925356 36.0599746,44.9397654 C36.9983608,45.3386464 37.4034905,43.6406199 36.473404,43.2452532 C35.7098305,42.9207597 35.4079284,41.8945636 35.6558823,41.0722009 C35.9790524,39.9997322 34.4762857,39.538764 34.1551906,40.6053754" id="Fill-26" fill="#00D5FF"></path>
                        <path d="M26.2015404,36.4099833 C27.4115956,37.8544896 28.1508995,39.539657 28.4743124,41.4153028 C28.6503869,42.4389219 30.1613884,42.005624 29.9858363,40.9852425 C29.6154006,38.8349408 28.6900951,36.9128894 27.3102352,35.2649544 C26.6487801,34.4760607 25.5442652,35.6254064 26.2015404,36.4099833" id="Fill-28" fill="#00D5FF"></path>
                        <path d="M76.2965236,25.4101495 C77.3140648,26.239157 77.4255158,27.6626208 76.4520512,28.5634979 C75.6114463,29.3406924 76.9450801,30.5240337 77.7875741,29.7451678 C79.4442269,28.213621 79.4133732,25.6786855 77.6320464,24.2284796 C76.7391792,23.5008695 75.3998783,24.6797538 76.2965236,25.4101495" id="Fill-30" fill="#00D5FF"></path>
                        <path d="M25.5917931,76.1857411 C25.2597733,70.0111203 27.0605407,64.1370267 30.7986069,59.4712439 C31.4528202,58.6548024 30.3600513,57.4538215 29.7017007,58.2753376 C25.7003976,63.2692757 23.6839726,69.5572284 24.0402991,76.1857411 C24.0982215,77.2677516 25.6502327,77.2750815 25.5917931,76.1857411" id="Fill-32" fill="#00D5FF"></path>
                        <path d="M43.260978,59.3543187 C46.7993366,62.4958157 48.9253275,66.5785831 49.3430312,71.2297558 C49.4350583,72.2519209 51.0893416,72.2615639 50.9962123,71.2297558 C50.5421386,66.1719671 48.2927102,61.6472258 44.4303281,58.218044 C43.6456181,57.5216003 42.4735127,58.6551964 43.260978,59.3543187" id="Fill-34" fill="#00D5FF"></path>
                        <path d="M57.5611612,65.2830981 C55.8453429,67.2996414 53.9523853,69.2610514 52.4478604,71.4324135 C50.8773424,73.6984491 50.3436094,76.275793 49.9100237,78.9277619 C48.9212863,84.9835177 48.755146,91.0977482 49.329401,97.199727 C49.4295483,98.2617397 51.1673643,98.2717639 51.0660593,97.199727 C50.5514295,91.7303893 50.6093181,86.2437876 51.3734478,80.7972829 C51.7393038,78.1842973 52.0657955,75.398115 53.430809,73.0613528 C54.8247667,70.6750264 56.9903796,68.5782892 58.7895575,66.4648449 C59.4917464,65.6395156 58.2702967,64.4505292 57.5611612,65.2830981" id="Fill-36" fill="#00D5FF"></path>
                        <path d="M21.5886504,84.6416699 C25.4359643,85.6941993 27.6483778,89.0708562 30.193652,91.8770454 C32.5059237,94.4269134 35.2609,96.3896334 38.5478985,97.4694074 C42.4961801,98.7660258 47.0857732,97.4877558 50.6839964,99.6372956 C54.0586482,101.652837 56.9345638,104.012549 60.6920054,105.382005 C64.2713664,106.686407 68.1070302,107.337497 71.9149556,107.291348 C73.6330711,107.270219 75.3522961,107.105084 77.0437828,106.800946 C78.1599754,106.59967 79.2595249,106.232146 80.384039,106.091475 C82.2264225,105.861286 83.5367838,106.580765 85.2038607,107.278003 C92.6932244,110.410015 101.151767,110.855936 108.889667,108.332757 C110.283243,107.878496 111.356719,107.377529 112.829072,107.719476 C114.029589,107.998038 115.10362,108.6697 116.232572,109.147869 C118.316279,110.031371 120.47599,110.722494 122.687849,111.201219 C127.216972,112.181467 131.827092,112.224836 136.397268,111.520926 C137.452991,111.358015 137.004738,109.750586 135.955118,109.911829 C131.21019,110.64354 126.395361,110.461168 121.738641,109.260184 C119.48462,108.679152 117.349874,107.849583 115.238983,106.871559 C114.014056,106.303871 112.925047,105.74786 111.543121,105.839602 C109.875489,105.950804 108.241143,106.837086 106.631762,107.262435 C104.262904,107.88906 101.820817,108.234899 99.3720725,108.30162 C94.7369885,108.427279 90.115219,107.559901 85.8507198,105.740076 C84.305137,105.081203 82.8538648,104.257194 81.1246539,104.296115 C79.3493973,104.335591 77.575805,105.046174 75.8244034,105.309167 C71.4927774,105.958588 67.0313357,105.602741 62.8378468,104.340595 C58.6482412,103.079562 55.4599913,100.76155 51.8662063,98.4229668 C48.6796207,96.3496005 45.4519823,97.0323825 41.8787237,96.5275242 C36.8874788,95.8230578 33.3020153,92.9651595 30.1137654,89.2548959 C27.8186915,86.5838174 25.5385963,83.9928046 22.0313551,83.0331291 C20.9967133,82.7506753 20.5551182,84.3592161 21.5886504,84.6416699" id="Fill-38" fill="#00D5FF"></path>
                        <path d="M72.2426371,66.4732452 C74.7908735,69.1337299 76.8818433,72.1647862 78.5219344,75.565836 C78.998897,76.5544125 80.3781492,75.6791465 79.9011866,74.689992 C78.2014752,71.1658037 76.0130901,68.0035153 73.3716969,65.2464854 C72.6307015,64.4729677 71.5000448,65.6979931 72.2426371,66.4732452" id="Fill-40" fill="#00D5FF"></path>
                        <path d="M84,87 C85.3319527,87 85.3347132,85 84,85 C82.6680473,85 82.6652868,87 84,87" id="Fill-42" fill="#00D5FF"></path>
                        <path d="M86.6400966,100.212761 C87.2027363,92.9542705 89.6803157,86.1471138 93.852363,80.190715 C94.4586605,79.325204 93.0403282,78.5050449 92.4389421,79.3634526 C88.0971752,85.5619103 85.5873982,92.6690453 85.0029295,100.212761 C84.9216169,101.265143 86.5593297,101.259679 86.6400966,100.212761" id="Fill-44" fill="#00D5FF"></path>
                        <path d="M98.6104593,73.6294959 C106.955457,74.8859907 109.552665,83.7676073 112.308301,90.4433652 C112.715045,91.4285332 114.346516,90.9972075 113.933592,89.9969347 C110.957168,82.7863554 108.043666,73.3637635 99.058215,72.0110456 C97.9975339,71.8516062 97.5396658,73.4683782 98.6104593,73.6294959" id="Fill-46" fill="#00D5FF"></path>
                        <path d="M117.365826,79.7221208 C118.371712,78.5117971 119.155767,77.6870336 120.668146,77.2316256 C121.937933,76.8488594 123.274924,76.88071 124.555092,76.5052079 C126.534627,75.9240737 128.239332,74.8361235 129.743515,73.4151387 C130.519921,72.6814568 129.358318,71.4985135 128.584097,72.2299602 C126.13413,74.5449976 123.775408,74.8154485 120.651755,75.4312272 C118.694622,75.8173462 117.46636,77.0215233 116.206955,78.5369424 C115.527258,79.3544417 116.681759,80.5457668 117.365826,79.7221208" id="Fill-48" fill="#00D5FF"></path>
                        <path d="M181.804676,81.1149464 C184.765392,80.9247673 188.745179,80.006808 191.630037,80.769118 C194.053049,81.4097771 194.266123,84.329929 196.616065,84.8882481 C200.882553,85.9018282 206.197675,79.7502256 208.750651,77.3581128 C209.519277,76.6377696 208.33566,75.5110383 207.567592,76.2313814 C205.590806,78.0832369 203.569398,79.9563415 201.352765,81.5505521 C200.16859,82.4021082 197.95642,83.9782571 196.408012,82.9827387 C195.692376,82.5232278 195.327585,81.3470924 194.74247,80.7229013 C191.861517,77.6513498 185.514496,79.2827463 181.804676,79.521267 C180.735962,79.5897952 180.727595,81.1840058 181.804676,81.1149464" id="Fill-50" fill="#00D5FF"></path>
                        <path d="M196.655198,96.3691222 C197.285939,92.1157023 200.284512,88.7140114 204.391144,87.7072641 C205.45772,87.4459976 205.005973,85.7657631 203.938261,86.0276103 C199.312263,87.1620879 195.725566,91.0874731 195.011296,95.9063901 C194.848781,97.0025485 196.490978,97.4757314 196.655198,96.3691222" id="Fill-52" fill="#00D5FF"></path>
                        <path d="M214.659983,91.2141595 C215.028443,88.314985 215.401309,84.3944854 217.299785,82.0624689 C219.673017,79.1484127 223.704043,78.9180221 226.554787,81.2963372 C227.365508,81.9731787 228.540834,80.8102019 227.722952,80.1272975 C224.806668,77.6944161 220.814196,77.1823756 217.626386,79.4614795 C214.022752,82.0387684 213.523761,87.1569688 213.007698,91.2141595 C212.873862,92.2669015 214.5278,92.2569804 214.659983,91.2141595" id="Fill-54" fill="#00D5FF"></path>
                        <path d="M236.754742,79.8389532 C238.192864,79.7622027 239.545931,80.0947882 240.819159,80.8848312 C241.708332,81.4360947 242.500447,79.8590545 241.609187,79.3065727 C240.101142,78.3721657 238.462121,77.9201905 236.754742,78.0115601 C235.751291,78.0651636 235.745551,79.8931658 236.754742,79.8389532" id="Fill-56" fill="#00D5FF"></path>
                        <path d="M169.796394,71.9986947 C183.691443,71.2923942 197.593655,70.5855491 211.43911,69.1985427 C217.895657,68.5521443 224.338428,67.7587134 230.748137,66.7534469 C238.076431,65.6044153 245.556261,63.5998724 252.967211,65.1970808 C254.003719,65.4208969 254.447307,63.8465602 253.40639,63.6221995 C247.073827,62.2569757 240.810145,63.4103638 234.529931,64.4842455 C227.225332,65.7334771 219.87665,66.7000796 212.503171,67.4575691 C198.306151,68.915369 184.046864,69.6401847 169.796394,70.3650004 C168.737844,70.4189123 168.731232,72.0526066 169.796394,71.9986947" id="Fill-58" fill="#00D5FF"></path>
                        <path d="M66.5375151,106.219075 C64.0515762,108.392332 60.5689005,108.736344 57.923866,110.659959 C55.7701726,112.225845 54.4102707,114.520905 53.1155811,116.766586 C52.5820768,117.690536 54.0386728,118.521212 54.571615,117.596714 C56.2272211,114.726654 57.927239,112.187987 61.112524,110.783957 C63.4449891,109.755761 65.7870112,109.082002 67.7298888,107.383339 C68.5405456,106.675014 67.3442366,105.514042 66.5375151,106.219075" id="Fill-60" fill="#00D5FF"></path>
                        <path d="M53.3363551,102.631283 C52.9275047,104.542565 52.8957494,106.436845 53.2172725,108.363957 C53.4032682,109.477894 55.0432061,109.00535 54.8577774,107.896689 C54.589558,106.292619 54.637191,104.687377 54.97686,103.099137 C55.212757,101.995753 53.5728192,101.524382 53.3363551,102.631283" id="Fill-62" fill="#00D5FF"></path>
                        <path d="M45.8362687,109.843762 C43.1319517,106.387848 40.3355798,101.154637 35.6975603,100.022797 C35.2940625,99.9246572 34.7615777,100.148976 34.6805474,100.587908 C33.9826947,101.616216 33.0996299,101.87235 32.031353,101.35523 C30.9961497,101.119048 30.5540661,102.679035 31.5914743,102.915217 C33.5097424,103.352532 35.8535574,103.316403 36.2752456,101.018212 C35.9362413,101.205864 35.5972371,101.394594 35.2582328,101.582784 C39.3554991,102.582514 42.0113083,107.596258 44.408041,110.660693 C45.0463612,111.475467 46.4834086,110.670938 45.8362687,109.843762" id="Fill-64" fill="#00D5FF"></path>
                        <path d="M22.0071201,94.8137419 C24.7665604,94.1477384 27.5470404,94.8658227 29.6078541,96.7775578 C30.3625866,97.4777558 31.5084422,96.3635414 30.7520912,95.6617653 C28.2704831,93.3596869 24.9025094,92.4900947 21.5766151,93.291824 C20.566169,93.535394 20.9945161,95.057838 22.0071201,94.8137419" id="Fill-66" fill="#00D5FF"></path>
                        <path d="M23.4648645,100.526743 C17.356855,98.0402244 13.2127966,104.85967 13.012534,110.464418 C12.8557146,114.856708 14.2247055,119.133073 14.0927865,123.519763 C13.9836487,127.114575 12.2088346,130.544178 14.5526488,133.70777 C15.1825753,134.55901 16.3004433,133.362233 15.6763445,132.519953 C13.7976905,129.983592 15.6715763,125.908837 15.6821722,123.002298 C15.6932979,120.064957 15.0713183,117.19146 14.7725138,114.283241 C14.4747688,111.389023 14.3539755,108.087105 15.7303836,105.452739 C17.178314,102.681726 20.1398695,100.964684 23.0420878,102.146901 C23.9973087,102.535559 24.4110788,100.911482 23.4648645,100.526743" id="Fill-68" fill="#00D5FF"></path>
                        <path d="M26.5987337,106.62209 C29.1729457,107.075888 31.2633539,108.119013 33.3968405,109.598717 C35.3060983,110.922897 37.2987516,111.752176 39.4515683,112.586453 C44.4309924,114.516067 49.3921909,116.516223 54.4351281,118.273649 C64.3409566,121.725182 74.8465693,122.474476 84.7844305,125.748822 C89.3811194,127.262963 93.8342134,127.430152 98.622546,127.735647 C101.142082,127.896725 103.67432,128.180558 106.070695,129.022056 C108.473698,129.865776 110.637008,131.357145 113.161514,131.858156 C117.425726,132.704098 121.191775,129.531399 125.155542,128.541041 C127.988224,127.833405 129.699211,128.603251 132.324786,129.314775 C133.693354,129.686368 134.827201,129.449748 135.9859,128.6338 C136.761864,128.087243 137.338452,127.311287 138.092877,126.745289 C139.613324,125.605517 140.844373,125.997105 142.607275,126.170959 C144.243702,126.332038 144.900924,126.056538 146.257895,125.306688 C148.569218,124.030276 151.025241,124.885661 153.497279,124.205241 C155.54958,123.640354 157.293151,122.490029 158.762788,120.965333 C159.505063,120.195487 158.334766,119.015168 157.591387,119.787236 C155.777674,121.667971 153.451439,122.86662 150.811505,122.933829 C149.204901,122.974376 147.59664,122.233969 146.137496,123.172114 C145.296915,123.713117 144.635274,124.501849 143.535118,124.600162 C142.723255,124.672926 141.81916,124.326328 141.001222,124.258564 C139.661925,124.148586 138.566187,124.383539 137.452223,125.150608 C136.791687,125.605517 136.27088,126.22206 135.663916,126.737513 C134.364936,127.84007 133.221701,127.752865 131.616753,127.272961 C129.743394,126.712518 128.250009,126.317597 126.262326,126.607539 C121.834637,127.254632 117.704631,131.027766 113.154887,130.141832 C110.978874,129.718028 109.021567,128.366631 106.959878,127.587898 C104.904816,126.811387 102.747029,126.435906 100.569359,126.218728 C95.5253178,125.71605 90.5961519,125.934895 85.7155873,124.311887 C76.4504122,121.22917 66.6434432,120.505981 57.3589381,117.504359 C51.929952,115.749154 46.6329626,113.586809 41.3127772,111.528887 C38.4568985,110.424663 35.9257649,109.272116 33.386347,107.560236 C31.4246218,106.238278 29.3640372,105.425663 27.0394591,105.014634 C25.9967403,104.830782 25.5488352,106.436572 26.5987337,106.62209" id="Fill-70" fill="#00D5FF"></path>
                        <path d="M24.0068258,111.10533 C19.9297711,113.135289 21.0975085,118.629434 21.341082,122.168906 C21.6672227,126.900385 22.6037717,131.534757 25.3349796,135.614315 C25.9330026,136.507911 27.464036,135.687417 26.8624744,134.788365 C24.6437734,131.473657 23.6677101,127.805438 23.2625407,123.956644 C22.9552724,121.038544 21.550449,114.186001 24.899732,112.518282 C25.9029246,112.019111 25.0106081,110.605614 24.0068258,111.10533" id="Fill-72" fill="#00D5FF"></path>
                        <path d="M45.8719469,138.772638 C42.5825155,133.599336 41.9406309,127.661585 44.0123605,122.004005 C44.3808835,120.999331 42.6255503,120.567585 42.2588457,121.568427 C40.0367975,127.636414 40.7799047,134.062274 44.3020874,139.601111 C44.884572,140.517136 46.4562498,139.6914 45.8719469,138.772638" id="Fill-74" fill="#00D5FF"></path>
                        <path d="M33.3441721,115.533761 C34.5326897,116.382992 35.8558993,116.850717 37.2754615,116.995668 C38.2445372,117.094278 38.2384837,115.47772 37.2754615,115.37911 C36.1217519,115.261101 35.0679262,114.824092 34.1079309,114.138133 C33.296248,113.557788 32.5375339,114.957727 33.3441721,115.533761" id="Fill-76" fill="#00D5FF"></path>
                        <path d="M51.268408,125.702398 C52.8258179,127.286317 55.052179,127.495876 56.6731993,125.909973 C57.4589431,125.141812 56.6810202,123.418408 55.8838057,124.197807 C54.8608266,125.198664 53.424902,125.367236 52.3748104,124.300272 C51.5963661,123.509635 50.4826641,124.903828 51.268408,125.702398" id="Fill-78" fill="#00D5FF"></path>
                        <path d="M61.5617643,128.61459 C60.3841544,135.099617 61.063688,141.506238 63.5466195,147.554915 C63.9579581,148.557157 65.3340534,147.690138 64.9248433,146.694146 C62.6286905,141.100569 62.0124807,135.060982 63.1012243,129.067417 C63.2954528,127.995859 61.7575891,127.53735 61.5617643,128.61459" id="Fill-80" fill="#00D5FF"></path>
                        <path d="M88.7508618,133.445289 C87.201558,137.351219 85.5509617,141.548822 86.112007,145.893392 C86.6950953,150.406975 89.8251927,153.891788 90.4707359,158.386151 C90.6250365,159.461271 92.1428504,159.005108 91.9890746,157.935076 C91.469491,154.317427 89.4137245,151.503574 88.2622433,148.134639 C86.6426121,143.396084 88.3750822,138.676748 90.1101764,134.301089 C90.5038003,133.308497 89.1481595,132.443653 88.7508618,133.445289" id="Fill-82" fill="#00D5FF"></path>
                        <path d="M111.86733,158.402048 C112.244702,155.753893 112.875079,153.208098 113.785149,150.700276 C114.644512,148.333886 115.689624,145.988959 115.946899,143.447017 C116.371243,139.258507 114.19775,135.999494 111.377334,133.232469 C110.631129,132.500539 109.496878,133.665573 110.245217,134.400255 C113.72003,137.809507 115.212438,141.342581 113.685335,146.267423 C112.462479,150.21324 110.912958,153.820057 110.323147,157.96289 C110.175294,159.00245 111.717876,159.450964 111.86733,158.402048" id="Fill-84" fill="#00D5FF"></path>
                        <path d="M105.247955,129.074163 C103.332452,128.902592 101.446232,129.031807 99.5641963,129.429638 C98.5763758,129.638741 98.9941993,131.189318 99.9814968,130.980751 C101.728616,130.6108 103.472075,130.523406 105.247955,130.682646 C106.253556,130.772721 106.247803,129.163702 105.247955,129.074163" id="Fill-86" fill="#00D5FF"></path>
                        <path d="M120.214547,137.874334 C123.012038,136.124558 125.810072,134.374781 128.60702,132.625583 C129.511468,132.060075 128.692253,130.558613 127.785633,131.125857 C124.9876,132.875055 122.190109,134.625411 119.392618,136.374608 C118.488713,136.940117 119.307928,138.441 120.214547,137.874334" id="Fill-88" fill="#00D5FF"></path>
                        <path d="M135.399533,133.544316 C137.292522,134.604519 139.904245,135.522216 141.520591,136.988312 C143.602127,138.875829 143.472132,142.821647 143.366846,145.425022 C143.169705,150.284101 141.549061,154.839314 138.837424,158.79345 C138.236867,159.669005 139.634048,160.500754 140.228696,159.633517 C143.430232,154.965186 145.15455,149.366404 144.989101,143.630662 C144.928401,141.536872 144.867164,138.537584 143.648324,136.763186 C142.136189,134.562377 138.442604,133.356341 136.212809,132.108163 C135.300693,131.597468 134.48688,133.033068 135.399533,133.544316" id="Fill-90" fill="#00D5FF"></path>
                        <path d="M147.229226,153.43771 C148.455468,154.75525 150.0922,155.647777 151.9095,155.982268 C153.003944,156.184839 153.473074,154.589109 152.371663,154.385986 C150.821442,154.100068 149.508109,153.391345 148.460694,152.266993 C147.716356,151.467747 146.488372,152.642329 147.229226,153.43771" id="Fill-92" fill="#00D5FF"></path>
                        <path d="M149.28775,132.889513 C151.187326,131.8643 153.068659,130.787112 154.994459,129.81216 C157.958984,128.31118 159.883644,128.638448 162.715335,130.202255 C163.679376,130.735138 164.543648,129.255861 163.577898,128.722407 C161.412085,127.525849 159.215486,126.538903 156.710463,127.226567 C153.803519,128.02332 151.059053,129.987503 148.424617,131.409665 C147.455446,131.933409 148.318008,133.413257 149.28775,132.889513" id="Fill-94" fill="#00D5FF"></path>
                        <path d="M46.5862031,153.747275 C49.3586317,154.794268 52.2244352,155.185285 55.1715095,154.91916 C56.2712588,154.819947 56.2810574,153.067955 55.1715095,153.168336 C52.3685323,153.421038 49.6814092,153.054532 47.0455847,152.058897 C46.0017452,151.665545 45.5510094,153.356841 46.5862031,153.747275" id="Fill-96" fill="#00D5FF"></path>
                        <path d="M172.489028,137.218089 C168.043927,141.178081 174.673425,146.250385 177.753209,147.897319 C178.695261,148.400931 179.529164,146.914786 178.584367,146.409451 C176.514708,145.302881 170.309573,141.415818 173.653417,138.436062 C174.462067,137.715959 173.292188,136.50258 172.489028,137.218089" id="Fill-98" fill="#00D5FF"></path>
                        <path d="M169.900826,70.7189673 C165.315451,68.4623859 159.91888,68.8640839 154.848773,69.4884563 C150.543539,70.0188966 146.201908,70.6869198 142.197218,72.3561491 C138.191977,74.0259308 134.504927,76.8041118 132.518575,80.6680377 C131.325771,82.9881613 130.791408,85.5895288 130.441232,88.1759777 C129.756872,93.2295264 129.741983,98.4703868 131.313087,103.321153 C132.884743,108.171918 136.199007,112.60883 140.831808,114.721198 C144.35342,116.326885 148.328331,116.503699 152.122915,117.260681 C158.49667,118.533185 162.401545,122.860694 166.783433,127.333521 C171.817695,132.472714 177.362607,137.109093 183.308982,141.154253 C184.381016,141.883056 186.728023,142.796407 187.419,143.873864 C188.077441,144.90104 187.987002,147.016723 188.365302,148.23342 C189.326494,151.317709 191.008442,154.179877 193.2617,156.493922 C197.91711,161.277278 205.03037,163.74493 211.555776,162.801189 C213.906642,162.461375 216.281221,162.114932 218.493672,161.248546 C223.692269,159.211324 227.489058,154.403656 229.261445,149.099806 C232.500711,139.40601 231.677935,125.946641 222.803318,119.561466 C219.7714,117.380583 216.211186,116.052272 212.557224,115.374855 C209.045538,114.723961 206.941724,114.814025 204.070833,112.633695 C197.187531,107.407753 190.369301,102.133187 183.787096,96.5270968 C182.783442,95.6723144 181.768207,94.7926676 181.079436,93.6676922 C179.875051,91.6973276 180.769516,89.62198 180.405003,87.4841952 C180.023393,85.2452952 179.334071,82.9920291 178.484273,80.889607 C176.784679,76.6853153 174.058821,72.7650301 169.900826,70.7189673" id="Fill-100" fill="#CCF9FF"></path>
                        <path d="M170.345826,69.7977505 C165.227603,67.4832376 159.78766,67.8242595 154.341083,68.5124029 C148.997877,69.1872381 143.512606,70.1171467 138.808971,72.9057632 C129.738345,78.2844827 127.934612,89.725629 129.50894,99.4882821 C130.262937,104.164996 132.231399,108.706409 135.628807,112.066168 C139.475628,115.869533 144.336806,116.785024 149.490407,117.609022 C155.456048,118.563329 159.625141,121.273205 163.850066,125.50354 C167.905286,129.564751 171.939501,133.559975 176.443581,137.129892 C178.540289,138.79175 180.679562,140.500187 182.949291,141.919725 C183.664593,142.367212 184.430198,142.719879 185.152686,143.154058 C186.812142,144.149398 187.064212,145.196862 187.368795,147.084959 C188.08852,151.54486 190.877313,155.735271 194.295726,158.604845 C201.505129,164.655628 212.974835,165.827856 221.20136,161.045786 C228.893344,156.574795 231.899933,147.176453 231.997776,138.716337 C232.09783,130.113713 228.827562,121.589829 221.003464,117.330105 C218.482218,115.957699 215.7183,115.063279 212.906843,114.52818 C210.248507,114.023024 207.648766,113.864435 205.302752,112.362829 C199.07841,108.379805 193.306244,103.219006 187.618101,98.5040319 C186.34891,97.4526863 185.050974,96.416867 183.831533,95.3084071 C182.133935,93.7663227 181.429136,92.3706282 181.325213,90.0611058 C181.18757,86.9919087 180.776299,84.3358194 179.685657,81.4146756 C177.880266,76.5782641 174.985891,72.2542173 170.345826,69.7977505 C169.402777,69.2986941 168.563651,70.7337586 169.508911,71.2339241 C174.071034,73.6499118 176.783543,77.9989115 178.41923,82.7859718 C179.305342,85.3777383 179.659676,87.7820814 179.656359,90.5052661 C179.654148,92.4499227 180.20472,93.9398835 181.510395,95.3854836 C184.982982,99.2298818 189.665611,102.353975 193.721384,105.551263 C197.512926,108.540057 201.454826,112.46874 205.809102,114.559232 C209.397773,116.282086 213.667473,116.0747 217.399315,117.502556 C222.025561,119.273098 225.779514,122.392201 227.958034,126.884818 C231.553338,134.300796 231.1288,144.398372 227.48264,151.727293 C222.755235,161.2321 210.863202,164.589641 201.240346,160.823983 C196.33605,158.905388 192.286358,155.180209 190.098993,150.362651 C188.579944,147.017309 189.436759,143.737954 185.9896,141.71733 C177.384971,136.673533 170.718402,129.677316 163.543824,122.880167 C160.673772,120.160864 157.449938,117.797554 153.596484,116.729019 C148.479366,115.31059 143.024498,115.675455 138.549162,112.374474 C133.778088,108.855017 131.408304,103.018829 130.890346,97.2419736 C130.344196,91.1435038 130.807429,83.3083176 134.833351,78.3848485 C138.586199,73.7946382 144.452338,71.8228107 150.085755,70.8080626 C156.319496,69.6851856 163.534427,68.5318107 169.508911,71.2339241 C170.474071,71.6703212 171.318172,70.2374747 170.345826,69.7977505" id="Fill-102" fill="#00D5FF"></path>
                        <path d="M147.305343,83.6419071 L147.305343,83.6419071 C144.406331,83.9993545 141.170861,84.7951597 139.719957,87.3089288 C137.877824,90.499354 139.921161,94.4406957 141.920904,97.5363558 C143.294679,99.6627517 144.668455,101.789148 146.04223,103.914989 C147.973787,106.904801 150.117726,110.073059 153.450445,111.373724 C156.279594,112.477654 159.524007,112.00937 162.328565,110.845588 C168.833598,108.145614 173.53059,101.598509 173.968768,94.6196964 C174.044219,93.4193384 174.000625,92.1951506 173.640135,91.0468857 C170.60531,81.3642195 154.771683,82.721411 147.305343,83.6419071" id="Fill-104" fill="#FFFFFF"></path>
                        <path d="M147.969719,82.7178883 C145.213292,83.0662453 142.022132,83.7573678 140.245229,86.1500157 C137.903174,89.3025629 139.278912,93.2731619 140.985926,96.3737071 C143.228928,100.448869 145.813663,104.760556 148.743984,108.371056 C151.211506,111.410653 154.440636,113.27042 158.400008,112.967915 C165.919237,112.393098 172.252031,105.949331 174.32169,98.8457559 C176.178935,92.4690891 174.263909,86.5129109 168.062085,83.8826197 C161.843753,81.2467369 154.491263,81.9054281 147.969719,82.7178883 C146.928561,82.8476136 146.915904,84.5267727 147.969719,84.39537 C153.489727,83.7076025 159.331107,83.2015622 164.789482,84.5642364 C167.686234,85.2866719 170.612152,86.6448728 172.238273,89.3148644 C174.465317,92.9734519 173.279431,98.0014235 171.471162,101.583965 C169.649136,105.195583 166.699005,108.210577 163.075863,109.949007 C157.723145,112.517231 152.758935,111.098641 149.282172,106.364229 C146.6281,102.750933 143.95917,98.699815 141.956647,94.6749774 C140.531383,91.8103979 139.721899,88.0729689 142.854728,85.9744393 C144.336122,84.9819294 146.23574,84.6145609 147.969719,84.39537 C149.010326,84.2639672 149.022983,82.5848081 147.969719,82.7178883" id="Fill-106" fill="#00D5FF"></path>
                        <path d="M200.065883,139.924928 L200.065883,139.924928 C199.615156,144.362203 201.480619,149.354556 205.553919,151.183244 C208.50124,152.505947 211.910457,151.956448 215.089564,151.382403 C217.147717,151.010863 219.206429,150.639324 221.264023,150.267784 C222.698308,150.008376 224.209668,149.713822 225.307164,148.755965 C227.115099,147.178874 227.172627,144.414643 226.845891,142.039803 C226.282343,137.946174 224.992716,133.953519 223.053528,130.303395 C222.119121,128.544998 220.997609,126.823978 219.385156,125.653014 C215.786599,123.039965 209.178168,123.651387 205.845468,126.596926 C202.682,129.392956 200.478631,135.860309 200.065883,139.924928" id="Fill-108" fill="#FFFFFF"></path>
                        <path d="M199.066144,139.937752 C198.529488,145.407839 201.272156,151.448033 206.793451,152.711055 C210.371887,153.529596 214.254882,152.415861 217.767393,151.759564 C220.693124,151.213118 224.511829,151.084675 226.149039,148.060072 C227.530725,145.507552 226.939041,142.182685 226.396936,139.477498 C225.642893,135.718855 224.31787,131.962465 222.395169,128.666328 C219.282017,123.328627 213.479045,121.711824 207.917433,124.029429 C202.128627,126.441112 199.747725,134.059238 199.066144,139.937752 C198.941378,141.014869 200.57641,141.005855 200.700631,139.937752 C201.345163,134.383725 203.67812,127.113747 209.361229,125.277803 C212.426436,124.287441 216.2653,124.403491 218.796574,126.662507 C221.373615,128.962648 222.855549,132.957334 223.868931,136.205586 C224.813119,139.227936 226.429081,144.214673 224.737388,147.207166 C223.043515,150.205856 216.833011,150.24529 213.853343,150.778779 C210.033548,151.46268 205.797504,151.844065 203.004712,148.511312 C201.086369,146.223001 200.411326,142.888557 200.700631,139.937752 C200.806872,138.856691 199.171296,138.864014 199.066144,139.937752" id="Fill-110" fill="#00D5FF"></path>
                        <path d="M3.30078422,32.5978728 C1.24166153,42.8562752 1.62619024,53.3714703 4.46163539,63.4174501 C4.75016166,64.4401844 6.25350804,64.0042467 5.96290604,62.9754115 C3.20737644,53.2117374 2.80001472,43.0137896 4.80205487,33.0399115 C5.01170345,31.9961013 3.51095173,31.5496256 3.30078422,32.5978728" id="Fill-112" fill="#00D5FF"></path>
                    </g>
                </g>
            </g>
        </g>
    </g>
</svg>