<?xml version="1.0" encoding="UTF-8"?>
<svg width="183px" height="183px" viewBox="0 0 183 183" version="1.1" xmlns="http://www.w3.org/2000/svg" xmlns:xlink="http://www.w3.org/1999/xlink">
    <!-- Generator: Sketch 49.1 (51147) - http://www.bohemiancoding.com/sketch -->
    <title>search</title>
    <desc>Created with Sketch.</desc>
    <defs></defs>
    <g id="projects" stroke="none" stroke-width="1" fill="none" fill-rule="evenodd">
        <g id="project-modernmd@2x" transform="translate(-1054.000000, -7851.000000)">
            <g id="design" transform="translate(-466.000000, 6570.000000)">
                <g id="font" transform="translate(711.000000, 1281.000000)">
                    <g id="search" transform="translate(809.000000, 0.000000)">
                        <path d="M68,8 C34.8628571,8 8,34.8628571 8,68 C8,101.137143 34.8628571,128 68,128 C101.137143,128 128,101.137143 128,68 C128,34.8628571 101.137143,8 68,8" id="Fill-1" fill="#CFF2FF"></path>
                        <path d="M164.298387,148.596774 C155.628242,148.596774 148.596774,155.625387 148.596774,164.298387 C148.596774,172.968532 155.628242,180 164.298387,180 C172.968532,180 180,172.968532 180,164.298387 C180,155.625387 172.968532,148.596774 164.298387,148.596774 Z M117.193548,137.177419 L125.758065,145.741935 L145.741935,125.758065 L137.177419,117.193548 L117.193548,137.177419 Z M68.6612903,122.903226 C38.7054677,122.903226 14.4193548,98.6171129 14.4193548,68.6612903 C14.4193548,38.7054677 38.7054677,14.4193548 68.6612903,14.4193548 C98.6171129,14.4193548 122.903226,38.7054677 122.903226,68.6612903 C122.903226,98.6171129 98.6171129,122.903226 68.6612903,122.903226 Z M68.6612903,3 C32.399129,3 3,32.399129 3,68.6612903 C3,104.923452 32.399129,134.322581 68.6612903,134.322581 C104.923452,134.322581 134.322581,104.923452 134.322581,68.6612903 C134.322581,32.399129 104.923452,3 68.6612903,3 Z" id="Fill-3" fill="#ABC4E1"></path>
                        <polygon id="Fill-5" fill="#BAD2EE" points="119.571429 111 111 119.571429 122.428571 131 131 122.428571"></polygon>
                        <path d="M146.320663,124 L124,146.321939 L151.679337,174 L151.77365,173.902824 C160.167476,165.508517 159.330094,166.348805 173.902829,151.775237 L174,151.680919 L146.320663,124 Z" id="Fill-7" fill="#BD9E85"></path>
                        <path d="M68.625,22.875 C67.0437656,22.875 65.765625,24.1531406 65.765625,25.734375 C65.765625,27.3156094 67.0437656,28.59375 68.625,28.59375 C90.7336875,28.59375 108.65625,46.5163125 108.65625,68.625 C108.65625,70.2062344 109.934391,71.484375 111.515625,71.484375 C113.096859,71.484375 114.375,70.2062344 114.375,68.625 C114.375,43.3567031 93.8932969,22.875 68.625,22.875 Z M68.625,120.09375 C40.1999531,120.09375 17.15625,97.0500469 17.15625,68.625 C17.15625,40.1999531 40.1999531,17.15625 68.625,17.15625 C97.0500469,17.15625 120.09375,40.1999531 120.09375,68.625 C120.09375,97.0500469 97.0500469,120.09375 68.625,120.09375 Z M68.625,11.4375 C37.0403438,11.4375 11.4375,37.0403438 11.4375,68.625 C11.4375,100.209656 37.0403438,125.8125 68.625,125.8125 C100.209656,125.8125 125.8125,100.209656 125.8125,68.625 C125.8125,37.0403438 100.209656,11.4375 68.625,11.4375 Z M165.84375,177.28125 C163.310344,177.28125 160.99425,176.432016 159.101344,175.0395 L156.648,172.586156 L155.592891,171.531047 L171.525328,155.598609 C171.979969,156.047531 172.357406,156.424969 172.586156,156.648 L175.0395,159.101344 C176.432016,160.99425 177.28125,163.310344 177.28125,165.84375 C177.28125,172.160109 172.160109,177.28125 165.84375,177.28125 Z M151.575469,167.513625 L129.858516,145.796672 L145.790953,129.864234 C152.862188,136.944047 161.860641,145.951078 167.505047,151.586906 L151.575469,167.513625 Z M121.280391,137.218547 L124.783125,133.718672 C124.848891,133.661484 124.931813,133.638609 124.997578,133.575703 C125.060484,133.509938 125.083359,133.427016 125.143406,133.358391 L133.358391,125.143406 C133.427016,125.083359 133.509938,125.060484 133.575703,124.997578 C133.638609,124.931813 133.661484,124.848891 133.718672,124.783125 L137.218547,121.280391 C138.353719,122.415563 139.943531,124.008234 141.776391,125.846813 L125.843953,141.782109 L121.280391,137.218547 Z M114.741,119.436094 C116.379422,117.9435 117.952078,116.382281 119.438953,114.743859 L127.582453,122.887359 L122.887359,127.582453 L114.741,119.436094 Z M106.837688,118.558266 C106.485984,118.566844 106.320141,118.635469 106.454531,118.8585 C95.9263125,126.807563 82.8332344,131.53125 68.625,131.53125 C33.8835938,131.53125 5.71875,103.366406 5.71875,68.625 C5.71875,33.8835938 33.8835938,5.71875 68.625,5.71875 C103.366406,5.71875 131.53125,33.8835938 131.53125,68.625 C131.53125,82.830375 126.819,95.9348906 118.875656,106.463109 C118.632609,106.308703 118.563984,106.488844 118.558266,106.866281 C115.184203,111.264 111.232547,115.187063 106.837688,118.558266 Z M179.571609,155.650078 C179.465812,155.481375 179.388609,155.298375 179.242781,155.149687 L178.782422,154.692188 C178.230562,154.051687 177.635813,153.456938 176.995312,152.905078 L173.606953,149.513859 C173.604094,149.511 173.604094,149.508141 173.601234,149.505281 C173.598375,149.502422 173.595516,149.502422 173.592656,149.499562 L147.878297,123.785203 C147.872578,123.782344 147.872578,123.776625 147.866859,123.770906 C147.861141,123.765187 147.855422,123.765187 147.852563,123.762328 L139.300172,115.209938 C139.294453,115.204219 139.294453,115.1985 139.288734,115.192781 C139.011375,114.915422 138.691125,114.706688 138.348,114.569437 C137.301469,114.131953 136.051922,114.332109 135.199828,115.184203 C135.128344,115.258547 135.102609,115.350047 135.039703,115.42725 L131.465484,119.004328 L122.970281,110.506266 C131.917266,98.9172188 137.25,84.4001719 137.25,68.625 C137.25,30.7239844 106.526016,0 68.625,0 C30.7239844,0 0,30.7239844 0,68.625 C0,106.526016 30.7239844,137.25 68.625,137.25 C84.3973125,137.25 98.9172188,131.911547 110.503406,122.964562 L119.004328,131.465484 L115.432969,135.036844 C115.355766,135.09975 115.258547,135.128344 115.184203,135.199828 C114.060469,136.326422 114.060469,138.147844 115.184203,139.274438 L115.189922,139.280156 C115.192781,139.283016 115.192781,139.285875 115.195641,139.288734 C115.1985,139.291594 115.201359,139.291594 115.204219,139.294453 L123.768047,147.861141 C123.770906,147.861141 123.770906,147.864 123.773766,147.866859 C123.776625,147.869719 123.779484,147.869719 123.779484,147.872578 L149.499562,173.592656 C149.502422,173.595516 149.502422,173.598375 149.505281,173.601234 C149.508141,173.604094 149.511,173.604094 149.513859,173.606953 L152.905078,176.995313 C153.456938,177.635813 154.051688,178.230562 154.692188,178.782422 L155.149688,179.242781 C155.298375,179.388609 155.481375,179.465812 155.650078,179.571609 C158.506594,181.698984 162.009328,183 165.84375,183 C175.316859,183 183,175.316859 183,165.84375 C183,162.009328 181.698984,158.506594 179.571609,155.650078 Z" id="Fill-9" fill="#2B3038"></path>
                    </g>
                </g>
            </g>
        </g>
    </g>
</svg>