<?xml version="1.0" encoding="UTF-8"?>
<svg width="123px" height="175px" viewBox="0 0 123 175" version="1.1" xmlns="http://www.w3.org/2000/svg" xmlns:xlink="http://www.w3.org/1999/xlink">
    <!-- Generator: Sketch 49.1 (51147) - http://www.bohemiancoding.com/sketch -->
    <title>icon</title>
    <desc>Created with Sketch.</desc>
    <defs></defs>
    <g id="projects" stroke="none" stroke-width="1" fill="none" fill-rule="evenodd">
        <g id="project-modernmd@2x" transform="translate(-779.000000, -4591.000000)">
            <g id="ux" transform="translate(0.000000, 4591.000000)">
                <g id="copy" transform="translate(244.000000, 0.000000)">
                    <g id="icon" transform="translate(536.000000, 0.000000)">
                        <path d="M0,174 L2,171" id="Stroke-1" stroke="#3A3A3C" stroke-width="2.1490625"></path>
                        <path d="M7,165 L113,13" id="Stroke-2" stroke="#3A3A3C" stroke-width="2.1490625" stroke-dasharray="4.389245009422302,4.389245009422302"></path>
                        <path d="M115,10 L117,7" id="Stroke-3" stroke="#3A3A3C" stroke-width="2.1490625"></path>
                        <polygon id="Fill-4" fill="#252020" points="120.491497 17 122 0 107 7.14696207"></polygon>
                        <g id="Group-15" transform="translate(10.000000, 46.000000)">
                            <path d="M87.4107095,50.1143465 C87.4107095,74.4517771 67.9693815,94.1817365 43.9879854,94.1817365 C20.0065894,94.1817365 0.565966003,74.4517771 0.565966003,50.1143465 C0.565966003,25.7769159 20.0065894,6.04767159 43.9879854,6.04767159 C67.9693815,6.04767159 87.4107095,25.7769159 87.4107095,50.1143465" id="Fill-5" fill="#FFFFFF"></path>
                            <path d="M87.4107095,50.1143465 C87.4107095,74.4517771 67.9693815,94.1817365 43.9879854,94.1817365 C20.0065894,94.1817365 0.565966003,74.4517771 0.565966003,50.1143465 C0.565966003,25.7769159 20.0065894,6.04767159 43.9879854,6.04767159 C67.9693815,6.04767159 87.4107095,25.7769159 87.4107095,50.1143465 Z" id="Stroke-7" stroke="#3A3A3C" stroke-width="1.2894375" stroke-linecap="round"></path>
                            <path d="M87.4107095,26.2774948 C87.4107095,40.6770042 75.9086871,52.3490737 61.7198295,52.3490737 C47.5316766,52.3490737 36.0296542,40.6770042 36.0296542,26.2774948 C36.0296542,11.8779854 47.5316766,0.205915929 61.7198295,0.205915929 C75.9086871,0.205915929 87.4107095,11.8779854 87.4107095,26.2774948" id="Fill-9" fill="#FFFFFF"></path>
                            <path d="M87.4107095,26.2774948 C87.4107095,40.6770042 75.9086871,52.3490737 61.7198295,52.3490737 C47.5316766,52.3490737 36.0296542,40.6770042 36.0296542,26.2774948 C36.0296542,11.8779854 47.5316766,0.205915929 61.7198295,0.205915929 C75.9086871,0.205915929 87.4107095,11.8779854 87.4107095,26.2774948 Z" id="Stroke-11" stroke="#3A3A3C" stroke-width="4.298125" stroke-linecap="round"></path>
                        </g>
                    </g>
                </g>
            </g>
        </g>
    </g>
</svg>