<?xml version="1.0" encoding="UTF-8"?>
<svg width="135px" height="130px" viewBox="0 0 135 130" version="1.1" xmlns="http://www.w3.org/2000/svg" xmlns:xlink="http://www.w3.org/1999/xlink">
    <!-- Generator: Sketch 49 (51002) - http://www.bohemiancoding.com/sketch -->
    <title>icon</title>
    <desc>Created with Sketch.</desc>
    <defs></defs>
    <g id="projects" stroke="none" stroke-width="1" fill="none" fill-rule="evenodd">
        <g id="project-storyverse@2x" transform="translate(-587.000000, -9911.000000)">
            <g id="devel" transform="translate(0.000000, 9235.000000)">
                <g id="icon" transform="translate(654.000000, 741.500000) rotate(90.000000) translate(-654.000000, -741.500000) translate(590.500000, 675.500000)">
                    <path d="M118.165601,62.8479357 L126.723552,48.0702239 L118.165601,43.14432 C119.049922,39.1285138 119.118386,35.0956433 118.159895,30.7954316 L126.723552,25.8752158 L118.165601,11.0975041 L109.927146,16.0347842 C106.891926,13.253298 102.424675,11.0975041 99.5720248,9.8404316 L99.5720248,0 L82.4561219,0 L82.4561219,9.8404316 C76.7508209,11.1031922 74.4515846,13.253298 71.4163645,16.0404723 L62.6587274,11.0975041 L54.0209017,25.8752158 L62.5332108,30.7954316 C61.6545945,34.7884853 61.5576043,38.8213559 62.5160949,43.14432 L53.9410275,48.0702239 L62.4932737,62.8479357 L71.4106592,57.9163436 C74.4515846,60.6921417 76.7508209,62.8479357 82.4561219,64.1106963 L82.4561219,73.9454397 L99.5720248,73.9454397 L99.5720248,64.1106963 C102.424675,62.8479357 106.891926,60.6921417 109.938557,57.9163436 L118.165601,62.8479357 Z" id="Stroke-1" stroke="#E6E6E6" stroke-width="2.5" stroke-linejoin="round"></path>
                    <path d="M98.7535735,37.2312704 C98.7535735,41.7983062 95.0399412,45.504886 90.4549539,45.504886 C85.8782651,45.504886 82.1563342,41.7983062 82.1563342,37.2312704 C82.1563342,32.6642345 85.8782651,28.9576547 90.4549539,28.9576547 C95.0399412,28.9576547 98.7535735,32.6642345 98.7535735,37.2312704 Z" id="Stroke-3" fill="#E6E6E6" fill-rule="nonzero"></path>
                    <path d="M64.2245732,119.935884 L72.7825247,105.158172 L64.2245732,100.232268 C65.1088949,96.2164617 65.1773585,92.1835912 64.2188679,87.8833795 L72.7825247,82.9631637 L64.2245732,68.185452 L55.9861186,73.1227321 C52.9451932,70.3412459 48.4836478,68.185452 45.6309973,66.9283795 L45.6309973,57.0879479 L28.5150943,57.0879479 L28.5150943,66.9283795 C22.8097934,68.1911401 20.5105571,70.3412459 17.4753369,73.1284202 L8.71769991,68.185452 L0.0798742138,82.9631637 L8.59218329,87.8833795 C7.71356694,91.8764332 7.61657682,95.9093037 8.57506739,100.232268 L0,105.158172 L8.55224618,119.935884 L17.4696316,115.004292 C20.5105571,117.78009 22.8097934,119.935884 28.5150943,121.198644 L28.5150943,131.033388 L45.6309973,131.033388 L45.6309973,121.198644 C48.4836478,119.935884 52.9451932,117.78009 55.9975292,115.004292 L64.2245732,119.935884 Z" id="Stroke-5" stroke="#E6E6E6" stroke-width="2.5" stroke-linejoin="round"></path>
                    <path d="M44.8125459,94.3192182 C44.8125459,98.8862541 41.0989137,102.592834 36.5139263,102.592834 C31.9372376,102.592834 28.2153067,98.8862541 28.2153067,94.3192182 C28.2153067,89.7521824 31.9372376,86.0456026 36.5139263,86.0456026 C41.0989137,86.0456026 44.8125459,89.7521824 44.8125459,94.3192182 Z" id="Stroke-7" fill="#E6E6E6" fill-rule="nonzero"></path>
                </g>
            </g>
        </g>
    </g>
</svg>