<?xml version="1.0" encoding="utf-8"?>
<!-- Generator: Adobe Illustrator 22.0.1, SVG Export Plug-In . SVG Version: 6.00 Build 0)  -->
<svg version="1.1" id="Layer_1" xmlns="http://www.w3.org/2000/svg" xmlns:xlink="http://www.w3.org/1999/xlink" x="0px" y="0px"
	 width="500px" height="293.1px" viewBox="0 0 500 293.1" style="enable-background:new 0 0 500 293.1;" xml:space="preserve">
<style type="text/css">
	.st0{fill:#FFFFFF;}
</style>
<path class="st0" d="M326.2,180.7v-30.4c0-7.7-1-11.8-3.5-14.7c-2.3-2.6-6.2-5-12.7-5c-7.9,0-14.5,2.9-18.2,10.6v-38.3
	c-4.7,1.1-10.1,1.5-16.5,1.5c-2.2,0-4.6-0.1-6.9-0.3v2.4c5.4,0,7.2,3.2,7.2,9.9v51.3c-5.6,9.2-14.9,14.9-23.5,15.2
	c-0.2,0-0.5,0-0.7,0c-8.6,0-14.9-6.3-14.9-23.8c0-15.3,2.9-26.7,14.3-26.7c3,0,5.6,1.2,6.8,2.7c-4,1.1-7.4,4.5-7.4,9.3
	c0,5.1,3.4,8.4,8.7,8.4c5.2,0,8.9-3.7,8.9-9.1c0-4.5-2.4-8.2-6.2-10.5c-3.2-2-8.3-3.5-14.1-3.5c-16,0-27.8,10.7-27.8,31.1
	c0,8.2,1.8,14.6,4.8,19.4c-3.2,3.9-6.3,4.6-9.2,4.6c-3.5,0-6.6-2.2-6.6-7.1v-43.9h13.9V131h-13.9v-18.2c-4.7,2.5-9.7,3.7-16.1,3.8
	V131h-8v2.7h8v38c0,7.9,1,12.3,4.3,15.6c2.5,2.5,6.1,4.2,11.8,4.2c0,0,0.1,0,0.1,0c0.1,0,0.3,0,0.4,0c8.5,0,14.1-5.5,16.8-9.3
	c4.8,6,12,8.7,20.1,8.7c0,0,0.1,0,0.4-0.1c0.1,0,0.1,0.1,0.2,0.1c12.7,0,24-10.3,29.1-18.4v8.1c0,6.3-0.7,8.1-5.9,8.1v2.4
	c3-0.1,8.5-0.4,14.2-0.4c5.5,0,10.7,0.3,13.3,0.4v-2.4c-4.5,0-5.5-1.8-5.5-8.1v-31.5c0-7.7,5-13.1,11.2-13.1c6.5,0,6.9,3.8,6.9,9.4
	v35.1c0,6.3-1,8.1-5.4,8.1v2.4c2.8-0.1,8.2-0.4,14-0.4c5.5,0,10.5,0.2,13.3,0.3v-2.1C326.6,188.9,326.2,187,326.2,180.7z
	 M416.6,155.1c-6.9-5.2-15.3-8.8-15.3-15.5c0-4.6,4.7-7.5,9.1-7.5c9.6,0,13.3,9.1,14.5,17.5h2.4c0-10,0.1-15.5,0.5-19.8h-2.4
	c-0.4,2.8-1.3,4.1-2.6,4.1c-0.6,0-1.3-0.3-2-0.8c-2.2-1.4-7.2-3.5-13.5-3.5c-10.2,0-19.4,5.5-19.4,15.5c0,9.1,6.8,14.2,14.1,20
	c6.5,5.1,12.8,8.7,12.8,15.3c0,5.8-5.5,8.1-9.4,8.1c-9.5,0-13.8-8.5-15.2-20.8h-2.4c0,11.4-0.1,17.7-0.4,22.5h2.4
	c0.6-2.4,1.5-4,2.8-4c0.2,0,0.3,0.1,0.5,0.1c1.6,0.5,3.2,1.3,5.2,2.4c2.5,1.4,6.1,2.4,10.6,2.4c11.6,0,21.4-6.4,21.4-16.8
	C430.1,165.5,424.2,160.7,416.6,155.1z M110.2,129.7c-7.7,0-13.9,3.7-17.1,10.7v-38.9c-4.6,1.1-10.1,1.5-16.3,1.5
	c-2.2,0-4.6-0.1-6.9-0.3v2.4c5.4,0,7.1,3.2,7.1,9.9v68.8c0,2.1-0.2,4.3-0.8,6.3l1.7,1c2.6-2.4,7.7-4.2,12.6-4.2c0.6,0,1.2,0,1.8,0.1
	c3.4,2.8,7.7,3.9,12.5,3.9c13.7,0,25.5-8.8,25.5-32.1C130.4,139.1,121.7,129.7,110.2,129.7z M101.4,188.4c-2.8,0-5.8-0.9-8.3-3
	v-41.2c1.3-6.2,5.8-9.8,10.5-9.8c8.3,0,10,6.6,10,25.8C113.5,179.3,111.4,188.4,101.4,188.4z M185.3,154.7c0-17.7-8-25.1-21.2-25.1
	c-16,0-27.6,10.4-27.6,31.4c0,20.6,10.8,30.2,26,30.2c12.5,0,19.9-9.1,22.6-17.6l-2-0.8c-4.6,7.5-10.3,9-14.8,9
	c-8.7,0-15-6.1-15-21.8c0-1.8,0-3.7,0.2-5.4L185.3,154.7z M153.5,152.6c0.9-14.6,2.1-20.5,10-20.5c7.4,0,7.9,9.5,7.6,20.5H153.5z
	 M382.1,154.7c0-17.7-8-25.1-21.2-25.1c-16,0-27.6,10.4-27.6,31.4c0,20.6,10.8,30.2,26,30.2c12.5,0,19.9-9.1,22.6-17.6l-2-0.8
	c-4.6,7.5-10.3,9-14.8,9c-8.7,0-15-6.1-15-21.8c0-1.8,0-3.8,0.2-5.4L382.1,154.7z M350.3,152.6c0.9-14.6,2.1-20.5,10-20.5
	c7.4,0,7.9,9.5,7.6,20.5H350.3z"/>
</svg>
