<?xml version="1.0" encoding="UTF-8"?>
<svg width="75px" height="107px" viewBox="0 0 75 107" version="1.1" xmlns="http://www.w3.org/2000/svg" xmlns:xlink="http://www.w3.org/1999/xlink">
    <!-- Generator: Sketch 48.2 (47327) - http://www.bohemiancoding.com/sketch -->
    <title>icon</title>
    <desc>Created with Sketch.</desc>
    <defs></defs>
    <g id="project-betches@2x-copy-2" stroke="none" stroke-width="1" fill="none" fill-rule="evenodd" transform="translate(-702.000000, -4755.000000)">
        <g id="ux" transform="translate(244.000000, 4702.000000)">
            <g id="copy">
                <g id="icon" transform="translate(459.000000, 53.000000)">
                    <path d="M0.283065247,105.931722 L1.51694918,104.167673" id="Stroke-1" stroke="#252020" stroke-width="2.1490625"></path>
                    <path d="M4.03636401,100.564442 L68.2868293,8.68224842" id="Stroke-2" stroke="#252020" stroke-width="2.1490625" stroke-dasharray="4.389245009422302,4.389245009422302"></path>
                    <path d="M69.5464085,6.88043854 L70.7802924,5.11638959" id="Stroke-3" stroke="#252020" stroke-width="2.1490625"></path>
                    <polygon id="Fill-4" fill="#252020" points="73.0036869 10.7165017 73.9164326 0.658936652 64.8404266 4.88723287"></polygon>
                    <g id="Group-15" transform="translate(5.274725, 27.780193)">
                        <path d="M53.642453,30.8815843 C53.642453,45.5854487 41.846591,57.5056325 27.296081,57.5056325 C12.7455711,57.5056325 0.950136676,45.5854487 0.950136676,30.8815843 C0.950136676,16.17772 12.7455711,4.25796825 27.296081,4.25796825 C41.846591,4.25796825 53.642453,16.17772 53.642453,30.8815843" id="Fill-5" fill="#FFFFFF"></path>
                        <path d="M53.642453,30.8815843 C53.642453,45.5854487 41.846591,57.5056325 27.296081,57.5056325 C12.7455711,57.5056325 0.950136676,45.5854487 0.950136676,30.8815843 C0.950136676,16.17772 12.7455711,4.25796825 27.296081,4.25796825 C41.846591,4.25796825 53.642453,16.17772 53.642453,30.8815843 Z" id="Stroke-7" stroke="#252020" stroke-width="1.2894375" stroke-linecap="round"></path>
                        <path d="M53.642453,16.4801531 C53.642453,25.1798567 46.6636978,32.231732 38.054728,32.231732 C29.4461858,32.231732 22.4674306,25.1798567 22.4674306,16.4801531 C22.4674306,7.78044954 29.4461858,0.728574207 38.054728,0.728574207 C46.6636978,0.728574207 53.642453,7.78044954 53.642453,16.4801531" id="Fill-9" fill="#FFFFFF"></path>
                        <path d="M53.642453,16.4801531 C53.642453,25.1798567 46.6636978,32.231732 38.054728,32.231732 C29.4461858,32.231732 22.4674306,25.1798567 22.4674306,16.4801531 C22.4674306,7.78044954 29.4461858,0.728574207 38.054728,0.728574207 C46.6636978,0.728574207 53.642453,7.78044954 53.642453,16.4801531 Z" id="Stroke-11" stroke="#252020" stroke-width="4.298125" stroke-linecap="round"></path>
                    </g>
                </g>
            </g>
        </g>
    </g>
</svg>