<?xml version="1.0" encoding="UTF-8"?>
<svg width="83px" height="81px" viewBox="0 0 83 81" version="1.1" xmlns="http://www.w3.org/2000/svg" xmlns:xlink="http://www.w3.org/1999/xlink">
    <!-- Generator: Sketch 48.2 (47327) - http://www.bohemiancoding.com/sketch -->
    <title>icon</title>
    <desc>Created with Sketch.</desc>
    <defs></defs>
    <g id="project-betches@2x-copy-2" stroke="none" stroke-width="1" fill="none" fill-rule="evenodd" transform="translate(-593.000000, -23675.000000)">
        <g id="devel" transform="translate(254.000000, 23677.000000)">
            <g id="copy" transform="translate(146.000000, 0.000000)">
                <g id="title">
                    <g id="icon" transform="translate(234.754072, 38.490566) rotate(90.000000) translate(-234.754072, -38.490566) translate(196.263506, -1.263506)">
                        <path d="M71.6437107,38.1046539 L76.8323899,29.1449389 L71.6437107,26.1583673 C72.1798742,23.7235871 72.2213836,21.2784609 71.6402516,18.6712459 L76.8323899,15.688123 L71.6437107,6.72840798 L66.6487421,9.72187704 C64.8084906,8.03546417 62.1,6.72840798 60.3704403,5.96624593 L60.3704403,0 L49.9930818,0 L49.9930818,5.96624593 C46.5339623,6.73185668 45.1399371,8.03546417 43.2996855,9.72532573 L37.9899371,6.72840798 L32.7528302,15.688123 L37.9138365,18.6712459 C37.3811321,21.0922313 37.322327,23.5373575 37.9034591,26.1583673 L32.7044025,29.1449389 L37.8896226,38.1046539 L43.2962264,35.1146336 C45.1399371,36.7975977 46.5339623,38.1046539 49.9930818,38.8702647 L49.9930818,44.8330619 L60.3704403,44.8330619 L60.3704403,38.8702647 C62.1,38.1046539 64.8084906,36.7975977 66.6556604,35.1146336 L71.6437107,38.1046539 Z" id="Stroke-1" stroke="#FFFFFF" stroke-width="2.5" stroke-linejoin="round"></path>
                        <path d="M59.8742138,22.5732899 C59.8742138,25.3422801 57.6226415,27.5895765 54.8427673,27.5895765 C52.0679245,27.5895765 49.8113208,25.3422801 49.8113208,22.5732899 C49.8113208,19.8042997 52.0679245,17.5570033 54.8427673,17.5570033 C57.6226415,17.5570033 59.8742138,19.8042997 59.8742138,22.5732899 Z" id="Stroke-3" fill="#FFFFFF" fill-rule="nonzero"></path>
                        <path d="M38.9393082,72.7170318 L44.1279874,63.7573168 L38.9393082,60.7707451 C39.4754717,58.335965 39.5169811,55.8908388 38.9358491,53.2836238 L44.1279874,50.3005008 L38.9393082,41.3407858 L33.9443396,44.3342549 C32.1006289,42.647842 29.3955975,41.3407858 27.6660377,40.5786238 L27.6660377,34.6123779 L17.2886792,34.6123779 L17.2886792,40.5786238 C13.8295597,41.3442345 12.4355346,42.647842 10.595283,44.3377036 L5.28553459,41.3407858 L0.048427673,50.3005008 L5.20943396,53.2836238 C4.67672956,55.7046091 4.61792453,58.1497353 5.1990566,60.7707451 L0,63.7573168 L5.18522013,72.7170318 L10.5918239,69.7270114 C12.4355346,71.4099756 13.8295597,72.7170318 17.2886792,73.4826425 L17.2886792,79.4454397 L27.6660377,79.4454397 L27.6660377,73.4826425 C29.3955975,72.7170318 32.1006289,71.4099756 33.9512579,69.7270114 L38.9393082,72.7170318 Z" id="Stroke-5" stroke="#FFFFFF" stroke-width="2.5" stroke-linejoin="round"></path>
                        <path d="M27.1698113,57.1856678 C27.1698113,59.954658 24.918239,62.2019544 22.1383648,62.2019544 C19.363522,62.2019544 17.1069182,59.954658 17.1069182,57.1856678 C17.1069182,54.4166775 19.363522,52.1693811 22.1383648,52.1693811 C24.918239,52.1693811 27.1698113,54.4166775 27.1698113,57.1856678 Z" id="Stroke-7" fill="#FFFFFF" fill-rule="nonzero"></path>
                    </g>
                </g>
            </g>
        </g>
    </g>
</svg>