<?xml version="1.0" encoding="UTF-8"?>
<svg width="1183px" height="296px" viewBox="0 0 1183 296" version="1.1" xmlns="http://www.w3.org/2000/svg" xmlns:xlink="http://www.w3.org/1999/xlink">
    <!-- Generator: Sketch 48.2 (47327) - http://www.bohemiancoding.com/sketch -->
    <title>logo</title>
    <desc>Created with Sketch.</desc>
    <defs></defs>
    <g id="project-betches@2x-copy-2" stroke="none" stroke-width="1" fill="none" fill-rule="evenodd" transform="translate(-172.000000, -3204.000000)">
        <g id="intro" transform="translate(-376.000000, 1813.000000)" fill="#252121">
            <g id="story-images" transform="translate(0.000000, 1391.000000)">
                <path d="M1468.8412,167.552866 C1471.91533,119.585373 1475.82038,100.217739 1501.73695,100.217739 C1526.12631,100.217739 1527.58126,131.353092 1526.85543,167.552866 L1468.8412,167.552866 Z M1573.4862,174.614154 C1573.4862,116.504681 1547.09998,92.2499784 1503.9046,92.2499784 C1451.3095,92.2499784 1413.35262,126.462739 1413.35262,195.249536 C1413.35262,262.945939 1448.78058,294.442567 1498.66283,294.442567 C1539.68727,294.442567 1563.90584,264.574961 1572.76694,236.700938 L1566.07349,234.165443 C1551.07729,258.784705 1532.27784,263.852411 1517.45899,263.852411 C1488.81315,263.852411 1468.14493,243.758941 1468.14493,192.172128 C1468.14493,186.19795 1468.29929,179.842791 1468.8412,174.417095 L1573.4862,174.614154 Z M822.470617,167.552866 C825.541456,119.585373 829.453081,100.217739 855.366366,100.217739 C879.75901,100.217739 881.210679,131.353092 880.488129,167.552866 L822.470617,167.552866 Z M927.118903,174.614154 C927.118903,116.504681 900.729393,92.2499784 857.534017,92.2499784 C804.938917,92.2499784 766.985316,126.462739 766.985316,195.249536 C766.985316,262.945939 802.409991,294.442567 852.292242,294.442567 C893.319967,294.442567 917.538542,264.574961 926.393069,236.700938 L919.706193,234.165443 C904.706704,258.784705 885.910541,263.852411 871.088405,263.852411 C842.442567,263.852411 821.886008,243.758941 821.886008,192.172128 C821.886008,186.19795 821.928704,179.862497 822.470617,174.433516 L927.118903,174.614154 Z M651.39696,285.27603 C642.095766,285.27603 632.255944,282.218328 624.206076,275.56758 L624.206076,140.388256 C628.498682,120.078021 643.347092,108.211773 658.553493,108.211773 C685.846192,108.211773 691.28831,129.967109 691.28831,192.878257 C691.28831,255.254061 684.151483,285.27603 651.39696,285.27603 Z M680.377799,92.3944885 C655.154222,92.3944885 634.581242,104.618727 624.206076,127.628673 L624.206076,0 C608.999674,3.59304601 591.113268,5.03486246 570.717641,5.03486246 C563.387039,5.03486246 555.695162,4.67358727 548,3.95103689 L548,11.682326 C565.709053,11.682326 571.433623,22.1100418 571.433623,44.039446 L571.433623,269.994089 C571.433623,277.006112 570.898279,284.014851 568.930971,290.665599 L574.478187,293.903938 C583.0634,285.995296 599.69848,280.241167 615.798216,280.241167 C617.765524,280.241167 619.732832,280.241167 621.700139,280.418521 C632.971925,289.585058 647.104354,293.184672 662.665462,293.184672 C707.746037,293.184672 746.563415,264.423883 746.563415,187.846679 C746.563415,123.493714 718.121204,92.3944885 680.377799,92.3944885 Z M1686.69014,175.878617 C1663.91667,158.862555 1636.54186,147.130965 1636.54186,124.86656 C1636.54186,109.660158 1651.9913,100.398376 1666.26496,100.398376 C1697.89624,100.398376 1710.00553,130.443335 1713.80221,157.775446 L1721.57291,157.775446 C1721.57291,124.830432 1721.93418,106.730545 1723.19864,92.6145379 L1715.24731,92.6145379 C1713.98284,101.846761 1710.90872,106.188632 1706.57342,106.188632 C1704.58312,106.188632 1702.41218,105.285444 1699.88654,103.656422 C1692.65447,98.9467068 1676.38723,92.2499784 1655.60406,92.2499784 C1621.98576,92.2499784 1591.98678,110.35315 1591.98678,143.298163 C1591.98678,173.162484 1614.21506,189.997908 1638.43692,209.004268 C1659.762,225.659054 1680.61087,237.456332 1680.61087,259.175539 C1680.61087,278.185183 1662.65221,285.936178 1649.82037,285.936178 C1618.73428,285.936178 1604.45734,257.878233 1599.93812,217.694578 L1591.98678,217.694578 C1591.98678,255.165385 1591.6255,275.800767 1590.54168,291.729718 L1598.31238,291.729718 C1600.11875,283.765243 1603.18959,278.513615 1607.34754,278.513615 C1607.88946,278.513615 1608.43137,278.697537 1608.97657,278.878175 C1614.21506,280.507197 1619.45683,283.220046 1626.14699,286.662013 C1634.4596,291.187806 1646.02369,294.442567 1660.84583,294.442567 C1698.98007,294.442567 1730.97263,273.265272 1730.97263,239.417071 C1730.97263,210.091378 1711.45063,194.162426 1686.69014,175.878617 Z M1389.64968,260.082012 L1389.64968,160.163146 C1389.64968,134.998687 1386.21428,121.421308 1378.07902,112.011731 C1370.49224,103.321421 1357.58486,95.4883179 1336.44041,95.4883179 C1310.41218,95.4883179 1288.97871,105.002993 1276.68878,130.164168 L1276.68878,4.48966536 C1261.32473,8.10898593 1243.43176,9.55737102 1222.64858,9.55737102 C1215.41979,9.55737102 1207.64909,9.19281151 1199.87511,8.47026112 L1199.87511,16.2573837 C1217.76808,16.2573837 1223.55177,26.7540702 1223.55177,48.8378375 L1223.55177,217.372715 C1205.25482,247.470223 1174.56942,266.279523 1146.32098,267.383055 C1145.5426,267.37977 1144.77407,267.373202 1143.95627,267.373202 C1115.65529,267.373202 1094.97721,246.658996 1094.97721,189.09472 C1094.97721,138.769086 1104.6561,101.301564 1141.78862,101.301564 C1151.54962,101.301564 1160.22351,105.101522 1164.0169,110.169228 C1150.82379,113.791833 1139.62097,125.014354 1139.62097,140.582031 C1139.62097,157.233533 1150.64315,168.094779 1168.17485,168.094779 C1185.16464,168.094779 1197.45456,155.785148 1197.45456,138.230458 C1197.45456,123.565969 1189.50322,111.256338 1177.02938,103.656422 C1166.36847,96.9596932 1149.73996,92.2499784 1130.58252,92.2499784 C1078.16806,92.2499784 1039.13063,127.369212 1039.13063,194.343064 C1039.13063,221.343458 1044.99315,242.363106 1054.97091,258.009606 C1044.61545,270.713355 1034.20415,273.114193 1024.89311,273.114193 C1013.40784,273.114193 1003.12135,265.95766 1003.12135,249.910473 L1003.12135,105.604023 L1048.80624,105.604023 L1048.80624,96.8020459 L1003.12135,96.8020459 L1003.12135,36.9650209 C987.757302,45.2907719 971.191193,49.1071517 950.404732,49.2877893 L950.404732,96.8020459 L924.048064,96.8020459 L924.048064,105.604023 L950.404732,105.604023 L950.404732,230.555975 C950.404732,256.439701 953.731748,271.091052 964.395935,281.952298 C972.708548,290.281333 984.482835,295.670902 1003.0491,295.670902 C1003.16733,295.670902 1003.31513,295.647912 1003.44978,295.634775 C1003.92601,295.647912 1004.38581,295.670902 1004.87846,295.670902 C1032.82474,295.670902 1051.25634,277.623564 1060.19298,265.2581 C1076.11208,284.858921 1099.68036,293.910507 1126.12242,293.910507 C1126.17825,293.910507 1126.59864,293.805409 1127.31134,293.618202 C1127.49855,293.716732 1127.63977,293.841536 1127.87953,293.910507 C1169.69221,293.910507 1206.5587,260.216669 1223.55177,233.515148 L1223.55177,260.082012 C1223.55177,280.717394 1221.24289,286.688287 1204.07247,286.688287 L1204.07247,294.47541 C1213.83018,294.11085 1231.86767,293.023741 1250.84447,293.023741 C1268.91808,293.023741 1285.97684,294.11085 1294.65073,294.47541 L1294.65073,286.688287 C1280.01251,286.688287 1276.68878,280.717394 1276.68878,260.082012 L1276.68878,156.721179 C1276.68878,131.560004 1293.13665,113.824676 1313.55856,113.824676 C1334.93619,113.824676 1336.32875,126.308376 1336.32875,144.772823 L1336.32875,260.082012 C1336.32875,280.717394 1333.18894,286.688287 1318.54744,286.688287 L1318.54744,294.47541 C1327.58589,294.11085 1345.54783,293.023741 1364.52463,293.023741 C1382.59825,293.023741 1398.94759,293.545947 1408.34403,293.910507 L1408.34403,286.868925 C1391.17689,286.868925 1389.64968,280.717394 1389.64968,260.082012 Z" id="logo"></path>
            </g>
        </g>
    </g>
</svg>