<?xml version="1.0" encoding="UTF-8"?>
<svg width="668px" height="146px" viewBox="0 0 668 146" version="1.1" xmlns="http://www.w3.org/2000/svg" xmlns:xlink="http://www.w3.org/1999/xlink">
    <!-- Generator: Sketch 49.1 (51147) - http://www.bohemiancoding.com/sketch -->
    <title>logo</title>
    <desc>Created with Sketch.</desc>
    <defs>
        <polygon id="path-1" points="0 0.105097674 482.033411 0.105097674 482.033411 83.4838884 0 83.4838884"></polygon>
        <polygon id="path-3" points="0.6924 0.3184 18.5524 0.3184 18.5524 21 0.6924 21"></polygon>
        <polygon id="path-5" points="0.4082 0.3182 19.3202 0.3182 19.3202 21 0.4082 21"></polygon>
        <polygon id="path-7" points="0 146 668 146 668 0 0 0"></polygon>
    </defs>
    <g id="projects" stroke="none" stroke-width="1" fill="none" fill-rule="evenodd">
        <g id="project-taylor@2x" transform="translate(-386.000000, -1179.000000)">
            <g id="intro" transform="translate(160.000000, 902.000000)">
                <g id="video">
                    <g id="logo" transform="translate(226.000000, 277.000000)">
                        <g id="Group-3" transform="translate(0.000000, 13.000000)">
                            <mask id="mask-2" fill="white">
                                <use xlink:href="#path-1"></use>
                            </mask>
                            <g id="Clip-2"></g>
                            <path d="M429.686813,43.1951442 L429.686813,17.1531907 L445.53157,17.1531907 C454.57113,17.1531907 459.850752,21.4762605 459.850752,30.0012837 C459.850752,38.6415628 454.57113,43.1951442 445.53157,43.1951442 L429.686813,43.1951442 Z M458.325179,82.5501209 L482.033411,82.5501209 L464.780887,55.5724465 C474.405545,50.7864 479.68713,41.794493 479.68713,29.2999814 C479.68713,11.0817488 467.244972,0.8064 445.53157,0.8064 L408.794118,0.8064 L408.794118,82.5501209 L429.686813,82.5501209 L429.686813,59.5438884 L446.11863,59.5438884 L458.325179,82.5501209 Z M350.808594,17.5048186 C363.484399,17.5048186 373.578313,27.8973767 373.578313,41.6792372 C373.578313,55.4571907 363.484399,66.082214 350.808594,66.082214 C338.250594,66.082214 327.569618,55.4571907 327.569618,41.6792372 C327.569618,27.8973767 338.132789,17.5048186 350.808594,17.5048186 Z M350.574948,0.105097674 C325.223338,0.105097674 306.207667,17.7392372 306.207667,41.5620279 C306.207667,65.4981209 325.223338,83.4838884 350.574948,83.4838884 C376.044362,83.4838884 395.05807,65.3848186 395.05807,41.5620279 C395.05807,17.8564465 376.044362,0.105097674 350.574948,0.105097674 Z M266.322862,65.1504 L266.322862,0.8064 L245.430167,0.8064 L245.430167,82.5501209 L301.181326,82.5501209 L301.181326,65.1504 L266.322862,65.1504 Z M205.286191,56.1565395 L235.098679,0.8064 L214.204021,0.8064 L194.838862,36.4224 L175.002484,0.8064 L154.113716,0.8064 L184.511301,56.7406326 L184.511301,82.5501209 L205.286191,82.5501209 L205.286191,56.1565395 Z M130.963094,51.718214 L107.254862,51.718214 L119.227765,21.4762605 L130.963094,51.718214 Z M137.069313,67.4867721 L142.935996,82.5501209 L165.23646,82.5501209 L130.613606,0.8064 L109.13385,0.8064 L73.6883256,82.5501209 L95.1680817,82.5501209 L101.15257,67.4867721 L137.069313,67.4867721 Z M83.7311915,17.5048186 L83.7311915,0.689190698 L-0.00058902439,0.689190698 L-0.00058902439,17.5048186 L31.3040939,17.5048186 L31.3040939,82.5501209 L52.1928622,82.5501209 L52.1928622,17.5048186 L83.7311915,17.5048186 Z" id="Fill-1" fill="#FFFFFF" mask="url(#mask-2)"></path>
                        </g>
                        <g id="Group-6" transform="translate(9.000000, 125.000000)">
                            <mask id="mask-4" fill="white">
                                <use xlink:href="#path-3"></use>
                            </mask>
                            <g id="Clip-5"></g>
                            <path d="M15.0684,7.0644 C14.4884,4.7704 13.0224,3.1384 10.1484,3.1384 C5.9164,3.1384 4.1484,6.8704 4.1484,10.6584 C4.1484,14.4464 5.9164,18.1804 10.1484,18.1804 C13.2444,18.1804 14.8744,15.8844 15.1804,13.0084 L18.5524,13.0084 C18.2484,17.7364 14.9304,21.0004 10.1484,21.0004 C4.2584,21.0004 0.6924,16.3264 0.6924,10.6584 C0.6924,5.0464 4.2584,0.3184 10.1484,0.3184 C14.6264,0.3184 18.0824,2.8064 18.5244,7.0644 L15.0684,7.0644 Z" id="Fill-4" fill="#FFFFFF" mask="url(#mask-4)"></path>
                        </g>
                        <g id="Group-9" transform="translate(31.000000, 125.000000)">
                            <mask id="mask-6" fill="white">
                                <use xlink:href="#path-5"></use>
                            </mask>
                            <g id="Clip-8"></g>
                            <path d="M3.8642,10.6582 C3.8642,14.4482 5.6342,18.1802 9.8642,18.1802 C14.0942,18.1802 15.8642,14.4482 15.8642,10.6582 C15.8642,6.8702 14.0942,3.1382 9.8642,3.1382 C5.6342,3.1382 3.8642,6.8702 3.8642,10.6582 M19.3202,10.6582 C19.3202,16.3262 15.7522,21.0002 9.8642,21.0002 C3.9742,21.0002 0.4082,16.3262 0.4082,10.6582 C0.4082,5.0462 3.9742,0.3182 9.8642,0.3182 C15.7522,0.3182 19.3202,5.0462 19.3202,10.6582" id="Fill-7" fill="#FFFFFF" mask="url(#mask-6)"></path>
                        </g>
                        <polygon id="Fill-10" fill="#FFFFFF" points="56 126 59.6481759 126 68.6576712 139.997366 68.7116442 139.997366 68.7116442 126 72 126 72 145 68.3538231 145 59.3723138 131.029582 59.2883558 131.029582 59.2883558 145 56 145"></polygon>
                        <path d="M80.4362416,139.181818 C80.4362416,142.096712 82.6634352,143.272727 85.4116331,143.272727 C88.4362416,143.272727 89.5637584,141.800774 89.5637584,140.384913 C89.5637584,138.912959 88.7385036,138.326886 87.9410887,138.030948 C86.5391499,137.524178 84.8071091,137.176015 82.0867512,136.454545 C78.7042008,135.597679 77.7437236,133.591876 77.7437236,131.615087 C77.7437236,127.764023 81.3708675,126 84.9164802,126 C88.9870743,126 92.4511559,128.110251 92.4511559,132.094778 L89.0129257,132.094778 C88.8220234,129.634429 87.1715138,128.727273 84.7812578,128.727273 C83.186428,128.727273 81.1799652,129.288201 81.1799652,131.212766 C81.1799652,132.576402 82.1126025,133.270793 83.5145414,133.673114 C83.8187919,133.752418 88.1618195,134.84913 89.1779766,135.143133 C91.7352722,135.918762 93,137.978723 93,140.011605 C93,144.290135 89.0686055,146 85.1928909,146 C80.7106637,146 77.0815312,143.912959 77,139.181818 L80.4362416,139.181818 Z" id="Fill-12" fill="#FFFFFF"></path>
                        <path d="M99,126 L102.412912,126 L102.412912,137.381358 C102.412912,140.00752 102.576842,143.04532 107.000988,143.04532 C111.423158,143.04532 111.587088,140.00752 111.587088,137.381358 L111.587088,126 L115,126 L115,138.503463 C115,143.51039 111.80632,146 107.000988,146 C102.195655,146 99,143.51039 99,138.503463 L99,126 Z" id="Fill-14" fill="#FFFFFF"></path>
                        <polygon id="Fill-16" fill="#FFFFFF" points="121 126 124.329973 126 124.329973 142.126228 134 142.126228 134 145 121 145"></polygon>
                        <polygon id="Fill-18" fill="#FFFFFF" points="135 126 151 126 151 128.873772 144.716932 128.873772 144.716932 145 141.257039 145 141.257039 128.873772 135 128.873772"></polygon>
                        <mask id="mask-8" fill="white">
                            <use xlink:href="#path-7"></use>
                        </mask>
                        <g id="Clip-21"></g>
                        <polygon id="Fill-20" fill="#FFFFFF" mask="url(#mask-8)" points="156 145 159 145 159 126 156 126"></polygon>
                        <polygon id="Fill-22" fill="#FFFFFF" mask="url(#mask-8)" points="166 126 169.648176 126 178.657671 139.997366 178.711644 139.997366 178.711644 126 182 126 182 145 178.353823 145 169.372314 131.029582 169.288356 131.029582 169.288356 145 166 145"></polygon>
                        <path d="M205,145.545455 L202.80483,145.545455 L202.282832,143.299807 C200.446907,145.332689 198.77175,146 196.384056,146 C190.540853,146 187,141.479691 187,135.998066 C187,130.572534 190.540853,126 196.384056,126 C200.637446,126 204.259676,128.218569 204.781674,132.524178 L201.433344,132.524178 C201.076083,130.034816 198.880913,128.727273 196.384056,128.727273 C192.186239,128.727273 190.43169,132.336557 190.43169,135.998066 C190.43169,139.663443 192.186239,143.272727 196.384056,143.272727 C199.924909,143.352031 201.790605,141.266925 201.871981,138.030948 L196.657956,138.030948 L196.657956,135.491296 L205,135.491296 L205,145.545455 Z" id="Fill-23" fill="#FFFFFF" mask="url(#mask-8)"></path>
                        <path d="M226.235274,130.402369 C226.235274,131.664628 227.260076,132.658899 227.988173,133.598796 C229.149615,132.818138 230.256401,132.014176 230.256401,130.48393 C230.256401,129.223614 229.473648,128.281775 228.284878,128.281775 C227.125388,128.281775 226.235274,129.114866 226.235274,130.402369 Z M227.045355,136.764152 C225.911241,137.465191 224.076358,138.080785 224.076358,140.362559 C224.076358,142.428779 225.372488,143.584231 227.180044,143.584231 C229.418992,143.584231 230.256401,142.215167 230.822482,141.438392 L227.045355,136.764152 Z M232.468022,143.475483 C231.037203,145.223226 229.33896,146 227.070731,146 C223.510277,146 221,143.879406 221,140.310127 C221,137.597242 223.186244,135.905816 225.425192,134.752306 C224.427718,133.46286 223.482949,132.254976 223.482949,130.56355 C223.482949,127.798233 225.587209,126 228.204846,126 C230.687794,126 233.008727,127.505 233.008727,130.592679 C233.008727,132.872512 231.388564,134.457132 229.528304,135.451403 L232.522678,139.047869 C232.73935,138.430333 232.981399,137.731236 233.116087,136.47092 L235.815708,136.47092 C235.626364,138.162346 235.167643,139.799398 234.302905,141.168463 L238,145.625206 L234.222873,145.625206 L232.468022,143.475483 Z" id="Fill-24" fill="#FFFFFF" mask="url(#mask-8)"></path>
                        <path d="M265.48869,132.523547 C264.904143,130.305193 263.426652,128.727009 260.530123,128.727009 C256.26495,128.727009 254.483091,132.335944 254.483091,135.999033 C254.483091,139.662122 256.26495,143.272991 260.530123,143.272991 C263.650392,143.272991 265.293169,141.052703 265.601568,138.27154 L269,138.27154 C268.693617,142.843632 265.349608,146 260.530123,146 C254.593953,146 251,141.480128 251,135.999033 C251,130.572092 254.593953,126 260.530123,126 C265.043225,126 268.526316,128.405957 268.971781,132.523547 L265.48869,132.523547 Z" id="Fill-25" fill="#FFFFFF" mask="url(#mask-8)"></path>
                        <path d="M277.472081,135.999033 C277.472081,139.664056 279.250317,143.272991 283.5,143.272991 C287.749683,143.272991 289.527919,139.664056 289.527919,135.999033 C289.527919,132.335944 287.749683,128.727009 283.5,128.727009 C279.250317,128.727009 277.472081,132.335944 277.472081,135.999033 M293,135.999033 C293,141.480128 289.415398,146 283.5,146 C277.582593,146 274,141.480128 274,135.999033 C274,130.572092 277.582593,126 283.5,126 C289.415398,126 293,130.572092 293,135.999033" id="Fill-26" fill="#FFFFFF" mask="url(#mask-8)"></path>
                        <polygon id="Fill-27" fill="#FFFFFF" mask="url(#mask-8)" points="298 126 301.648176 126 310.657671 139.997366 310.711644 139.997366 310.711644 126 314 126 314 145 310.353823 145 301.372314 131.029582 301.288356 131.029582 301.288356 145 298 145"></polygon>
                        <polygon id="Fill-28" fill="#FFFFFF" mask="url(#mask-8)" points="319 126 335 126 335 128.873772 328.716145 128.873772 328.716145 145 325.25582 145 325.25582 128.873772 319 128.873772"></polygon>
                        <path d="M342.311138,134.648263 L347.741557,134.648263 C349.860838,134.648263 350.974132,133.637727 350.974132,131.61473 C350.974132,129.166346 349.410539,128.714011 347.68982,128.714011 L342.311138,128.714011 L342.311138,134.648263 Z M339,126 L348.032814,126 C352.192814,126 354.285269,127.917131 354.285269,131.137372 C354.285269,134.781076 351.794251,135.712694 351.16,135.92635 L351.16,135.97832 C352.298204,136.113058 353.967186,137.015804 353.967186,139.997366 C353.967186,142.232094 354.285269,144.228143 355,145 L351.451257,145 C350.947305,144.174248 350.947305,143.136764 350.947305,142.207071 C350.947305,138.719279 350.232575,137.175565 347.185868,137.175565 L342.311138,137.175565 L342.311138,145 L339,145 L339,126 Z" id="Fill-29" fill="#FFFFFF" mask="url(#mask-8)"></path>
                        <path d="M365.40857,137.443116 L371.482605,137.443116 L368.5,129.274136 L368.417374,129.274136 L365.40857,137.443116 Z M366.633857,126 L370.33793,126 L378,145 L374.267713,145 L372.40157,139.968494 L364.461392,139.968494 L362.595248,145 L359,145 L366.633857,126 Z" id="Fill-30" fill="#FFFFFF" mask="url(#mask-8)"></path>
                        <path d="M395.48869,132.523547 C394.904143,130.305193 393.428667,128.727009 390.528108,128.727009 C386.26495,128.727009 384.481075,132.335944 384.481075,135.999033 C384.481075,139.662122 386.26495,143.272991 390.528108,143.272991 C393.650392,143.272991 395.293169,141.052703 395.601568,138.27154 L399,138.27154 C398.693617,142.843632 395.349608,146 390.528108,146 C384.593953,146 381,141.480128 381,135.999033 C381,130.572092 384.593953,126 390.528108,126 C395.043225,126 398.526316,128.405957 398.973796,132.523547 L395.48869,132.523547 Z" id="Fill-31" fill="#FFFFFF" mask="url(#mask-8)"></path>
                        <polygon id="Fill-32" fill="#FFFFFF" mask="url(#mask-8)" points="402 126 418 126 418 128.873772 411.716932 128.873772 411.716932 145 408.257039 145 408.257039 128.873772 402 128.873772"></polygon>
                        <polygon id="Fill-33" fill="#FFFFFF" mask="url(#mask-8)" points="423 145 426 145 426 126 423 126"></polygon>
                        <polygon id="Fill-34" fill="#FFFFFF" mask="url(#mask-8)" points="433 126 436.64772 126 445.65609 139.997366 445.710056 139.997366 445.710056 126 449 126 449 145 445.35228 145 436.371893 131.029582 436.289944 131.029582 436.289944 145 433 145"></polygon>
                        <path d="M473,145.545455 L470.806573,145.545455 L470.284517,143.299807 C468.44442,145.332689 466.771063,146 464.383105,146 C458.539259,146 455,141.479691 455,135.998066 C455,130.572534 458.539259,126 464.383105,126 C468.636965,126 472.259594,128.218569 472.78165,132.524178 L469.432951,132.524178 C469.075651,130.034816 466.880238,128.727273 464.383105,128.727273 C460.184826,128.727273 458.428099,132.336557 458.428099,135.998066 C458.428099,139.663443 460.184826,143.272727 464.383105,143.272727 C467.922364,143.352031 469.790251,141.266925 469.871637,138.030948 L464.659021,138.030948 L464.659021,135.491296 L473,135.491296 L473,145.545455 Z" id="Fill-35" fill="#FFFFFF" mask="url(#mask-8)"></path>
                        <path d="M603,54.5 C603,46.4924191 609.490438,40 617.498019,40 C625.507581,40 632,46.4924191 632,54.5 C632,62.5075809 625.507581,69 617.498019,69 C609.490438,69 603,62.5075809 603,54.5" id="Fill-36" fill="#FFFFFF" mask="url(#mask-8)"></path>
                        <path d="M651.914048,21.4346235 L636.520219,33.6871895 C643.899583,42.6374365 648.337426,54.0943813 648.337426,66.5669708 C648.337426,95.1228949 625.0825,118.355033 596.499017,118.355033 C567.915533,118.355033 544.662574,95.1228949 544.662574,66.5669708 C544.662574,44.5862172 558.446038,25.7741968 577.821538,18.2678549 L570.56015,0 C543.899666,10.3784361 525,36.2587157 525,66.5669708 C525,106.017994 557.01067,138 596.499017,138 C635.987364,138 668,106.017994 668,66.5669708 C668,49.4463821 661.96359,33.7382664 651.914048,21.4346235" id="Fill-37" fill="#FFFFFF" mask="url(#mask-8)"></path>
                    </g>
                </g>
            </g>
        </g>
    </g>
</svg>