<?xml version="1.0" encoding="UTF-8"?>
<svg width="137px" height="107px" viewBox="0 0 137 107" version="1.1" xmlns="http://www.w3.org/2000/svg" xmlns:xlink="http://www.w3.org/1999/xlink">
    <!-- Generator: Sketch 53.2 (72643) - https://sketchapp.com -->
    <title>cssda-logo</title>
    <desc>Created with Sketch.</desc>
    <g id="projects" stroke="none" stroke-width="1" fill="none" fill-rule="evenodd">
        <g id="helias-v3@2x" transform="translate(-734.000000, -21273.000000)">
            <g id="footer-results" transform="translate(0.000000, 19422.000000)">
                <g id="awards" transform="translate(445.000000, 1619.000000)">
                    <g id="grid" transform="translate(4.000000, 232.000000)">
                        <g id="awwwards-copy" transform="translate(285.000000, 0.000000)">
                            <g id="cssda-logo">
                                <rect id="Rectangle-Copy-3" fill="#FCFBF0" x="0" y="0" width="137" height="107"></rect>
                                <path d="M30.2290343,37 L57,64.0460393 C56.5750855,64.4396888 56.0527384,64.8987196 55.5655753,65.3918031 C50.2446184,70.7143914 44.9399284,76.0534305 39.6515806,81.4088446 C39.2604969,81.8351848 38.8369357,82 38.2496335,82 C32.8042326,81.9673094 27.3588317,82 21.9134308,82 L21,82 C27.1626132,75.8950268 33.1303612,69.9535067 39.1630643,63.9792959 C33.0329286,57.8089415 27.0976582,51.8701456 21.0649551,45.7965009 C24.111121,42.8553466 27.1658271,39.9231671 30.2290343,37 L30.2290343,37 Z" id="Path" fill="#231F20" fill-rule="nonzero"></path>
                                <path d="M17.9822633,45.961099 C24.0645797,52.0573993 30.0159175,58.0870511 35.9331464,64.0527748 C32.9738498,67.0029924 30.0159175,69.984494 26.9911317,73 C18.0477526,63.9874864 9.07299325,54.9096844 0,45.7638738 C0.49253392,45.3054951 1.18290002,44.6825354 1.87326613,43.9942873 C7.03463958,38.8813928 12.196013,33.7684984 17.3246419,28.6229597 C17.7530509,28.1632209 18.1800955,28 18.8049723,28 C24.2296672,28.0326442 29.6202532,28 35.0449481,28 L36,28 C29.8835746,34.0636561 23.9336012,40.0280196 17.9822633,45.961099 Z" id="Path" fill="#231F20" fill-rule="nonzero"></path>
                            </g>
                        </g>
                    </g>
                </g>
            </g>
        </g>
    </g>
</svg>