<?xml version="1.0" encoding="UTF-8"?>
<svg width="137px" height="107px" viewBox="0 0 137 107" version="1.1" xmlns="http://www.w3.org/2000/svg" xmlns:xlink="http://www.w3.org/1999/xlink">
    <!-- Generator: Sketch 53.2 (72643) - https://sketchapp.com -->
    <title>fwa-logo</title>
    <desc>Created with Sketch.</desc>
    <g id="projects" stroke="none" stroke-width="1" fill="none" fill-rule="evenodd">
        <g id="helias-v3@2x" transform="translate(-1015.000000, -21273.000000)">
            <g id="footer-results" transform="translate(0.000000, 19422.000000)">
                <g id="awards" transform="translate(445.000000, 1619.000000)">
                    <g id="grid" transform="translate(4.000000, 232.000000)">
                        <g id="awwwards-copy-2" transform="translate(566.000000, 0.000000)">
                            <g id="fwa-logo">
                                <rect id="Rectangle" fill="#FCFBF0" x="0" y="0" width="137" height="107"></rect>
                                <path d="M86.064,44.0000007 L65.8305,44.0000007 C64.3605,44.0000007 62.928,44.4890007 61.7655,45.3800007 C60.97171,45.9442832 60.3103768,46.6747186 59.8275,47.5205007 L59.8005,47.5655007 L59.7765,47.6105007 L56.979,52.8035007 C56.979,52.8035007 53.73,46.4435007 52.788,45.6680007 C50.7771065,43.930489 47.9265464,43.5527324 45.5325,44.7065007 C43.7925,45.5435007 42.828,47.0765007 42.0075,48.8840007 L39.8955,52.8035007 L37.3305,47.7695007 C36.6565048,46.4046677 35.5367467,45.3108398 34.1565,44.6690007 C33.2491155,44.2301068 32.2544546,44.0014373 31.2465,44.0000007 L14.901,44.0000007 C13.1296403,43.9992044 11.4306022,44.7025216 10.1780616,45.9550622 C8.92552097,47.2076028 8.2222037,48.906641 8.223,50.6780007 L8.223,52.4225007 L6.678,52.4225007 C2.99214063,52.4266323 0.00495958033,55.4131423 0,59.0990007 C0.00413325219,62.7854448 2.99155585,65.7728674 6.678,65.7770007 L8.223,65.7770007 L8.223,67.3220007 C8.22713325,71.0084448 11.2145558,73.9958674 14.901,74.0000007 C18.5868584,73.9950411 21.5733684,71.00786 21.5775,67.3220007 L21.5775,65.7770007 L27.5085,65.7770007 C28.791,65.7770007 29.9925,65.4140007 31.011,64.7825007 L33.6255,69.9155007 C33.756,70.2080007 33.909,70.4930007 34.0815,70.7660007 C35.2957138,72.7556237 37.4566433,73.9712885 39.7875,73.9760007 C40.7805,73.9760007 41.781,73.7465007 42.678,73.3145007 C44.307,72.5315007 45.723,71.2100007 46.4445,69.5150007 L48.3435,65.2730007 L50.7105,69.9170007 C50.8395,70.2080007 50.9925,70.4915007 51.1635,70.7630007 C52.3776265,72.7536534 54.5393094,73.9699906 56.871,73.9745007 C57.864,73.9745007 58.8645,73.7465007 59.7615,73.3145007 C61.2834401,72.5785679 62.4712153,71.294892 63.087,69.7205007 C64.1147362,72.230501 66.5562449,73.8716024 69.2685,73.8755007 L86.064,73.8785007 C89.745,73.8785007 92.7405,71.0045007 92.7405,67.3235007 L92.7405,65.7785007 L94.2855,65.7785007 C97.9725291,65.7743659 100.960193,62.7860306 100.9635,59.0990007 C100.95854,55.4131423 97.9713594,52.4266323 94.2855,52.4225007 L92.7405,52.4225007 L92.7405,50.6780007 C92.741296,48.906901 92.0381846,47.2080903 90.7859686,45.9555929 C89.5337525,44.7030955 87.8350999,43.9996025 86.064,44.0000007 Z M71.3625,65.0045007 L83.871,65.0045007 L83.871,61.2920007 L71.361,61.2920007 L71.361,65.0045007 L71.3625,65.0045007 Z M86.0625,48.4850007 C87.2736605,48.4850007 88.2555,49.4668402 88.2555,50.6780007 L88.2555,56.9075007 L94.2855,56.9075007 C95.0823877,56.8866541 95.8278281,57.2998753 96.2324116,57.9867354 C96.6369951,58.6735954 96.6369951,59.5259059 96.2324116,60.212766 C95.8278281,60.8996261 95.0823877,61.3128473 94.2855,61.2920007 L88.2555,61.2920007 L88.2555,67.2035007 C88.2555,68.4140007 87.2745,69.3965007 86.064,69.3965007 L69.2685,69.3890007 C68.0579251,69.389001 67.076328,68.4080753 67.0755,67.1975007 L67.0755,59.0000007 L67.0815,59.0000007 C67.1336454,57.8298944 68.0972325,56.9079438 69.2685,56.9075007 L83.871,56.9075007 L83.871,52.8710007 L67.017,52.8710007 L59.019,67.7120007 C58.8497555,68.610702 58.1392098,69.3092113 57.2377485,69.4630786 C56.3362871,69.6169458 55.4342694,69.1936792 54.9765,68.4020007 C54.8955761,68.2791809 54.8272311,68.1485213 54.7725,68.0120007 L48.456,55.6130007 L42.066,67.7345007 C41.7885,68.3840007 41.385,68.9600007 40.734,69.2720007 C39.704832,69.7646807 38.4698166,69.3864817 37.893,68.4020007 C37.812,68.2775007 37.743,68.1470007 37.689,68.0120007 L29.976,52.8695007 L17.0925,52.8695007 L17.0925,56.9045007 L27.5085,56.9045007 C28.7196605,56.9045007 29.7015,57.8863402 29.7015,59.0975007 C29.7015,60.3086611 28.7196605,61.2905007 27.5085,61.2905007 L17.0925,61.2905007 L17.0925,67.3205007 C17.1133466,68.1173884 16.7001254,68.8628288 16.0132653,69.2674123 C15.3264052,69.6719958 14.4740948,69.6719958 13.7872347,69.2674123 C13.1003746,68.8628288 12.6871534,68.1173884 12.708,67.3205007 L12.708,61.2905007 L6.678,61.2905007 C5.88111229,61.3113473 5.1356719,60.8981261 4.73108838,60.211266 C4.32650486,59.5244059 4.32650486,58.6720954 4.73108838,57.9852354 C5.1356719,57.2983753 5.88111229,56.8851541 6.678,56.9060007 L12.708,56.9060007 L12.708,50.6780007 C12.7076017,50.0962589 12.9385213,49.5382293 13.349875,49.1268757 C13.7612286,48.715522 14.3192582,48.4846024 14.901,48.4850007 L31.245,48.4850007 C31.6005,48.4850007 31.935,48.5720007 32.232,48.7220007 C32.691,48.9260007 33.0825,49.2860007 33.3165,49.7735007 L39.7815,62.4635007 L46.2675,50.3435007 C46.593,49.6805007 46.7745,49.0835007 47.475,48.7475007 C48.2790347,48.3646381 49.234524,48.5037582 49.896,49.1000007 C50.295,49.4120007 50.481,49.6235007 50.754,50.1545007 L56.865,62.4650007 L63.723,49.7390007 C63.903,49.4255007 64.146,49.1750007 64.428,48.9890007 C64.809,48.6740007 65.298,48.4850007 65.829,48.4850007 L86.0625,48.4850007 Z" id="Shape" fill="#231F20" fill-rule="nonzero"></path>
                            </g>
                        </g>
                    </g>
                </g>
            </g>
        </g>
    </g>
</svg>