<?xml version="1.0" encoding="UTF-8"?>
<svg width="117px" height="113px" viewBox="0 0 117 113" version="1.1" xmlns="http://www.w3.org/2000/svg" xmlns:xlink="http://www.w3.org/1999/xlink">
    <!-- Generator: Sketch 49.2 (51160) - http://www.bohemiancoding.com/sketch -->
    <title>icon</title>
    <desc>Created with Sketch.</desc>
    <defs></defs>
    <g id="projects" stroke="none" stroke-width="1" fill="none" fill-rule="evenodd">
        <g id="project-cca-v2@2x" transform="translate(-585.000000, -16034.000000)">
            <g id="devel" transform="translate(0.000000, 15083.000000)">
                <g id="icon" transform="translate(643.000000, 1008.000000) rotate(90.000000) translate(-643.000000, -1008.000000) translate(588.000000, 951.000000)">
                    <path d="M102.092288,54.2991318 L109.486156,41.531538 L102.092288,37.2756734 C102.856321,33.8061117 102.915472,30.3218068 102.087358,26.6065254 L109.486156,22.3555752 L102.092288,9.58798137 L94.9744575,13.8536748 C92.3520991,11.4505364 88.4925,9.58798137 86.0278774,8.50190045 L86.0278774,0 L71.2401415,0 L71.2401415,8.50190045 C66.3108962,9.59289577 64.3244104,11.4505364 61.7020519,13.8585892 L54.1356604,9.58798137 L46.672783,22.3555752 L54.027217,26.6065254 C53.2681132,30.0564296 53.184316,33.5407344 54.0124292,37.2756734 L46.6037736,41.531538 L53.9927123,54.2991318 L61.6971226,50.0383528 C64.3244104,52.4365768 66.3108962,54.2991318 71.2401415,55.3901271 L71.2401415,63.8871132 L86.0278774,63.8871132 L86.0278774,55.3901271 C88.4925,54.2991318 92.3520991,52.4365768 94.984316,50.0383528 L102.092288,54.2991318 Z" id="Stroke-1" stroke="#FFFFFF" stroke-width="2.5" stroke-linejoin="round"></path>
                    <path d="M85.3207547,32.1669381 C85.3207547,36.1127492 82.1122642,39.3151466 78.1509434,39.3151466 C74.1967925,39.3151466 70.9811321,36.1127492 70.9811321,32.1669381 C70.9811321,28.221127 74.1967925,25.0187296 78.1509434,25.0187296 C82.1122642,25.0187296 85.3207547,28.221127 85.3207547,32.1669381 Z" id="Stroke-3" fill="#FFFFFF" fill-rule="nonzero"></path>
                    <path d="M55.4885142,103.62177 L62.8823821,90.8541764 L55.4885142,86.5983118 C56.2525472,83.1287501 56.3116981,79.6444452 55.4835849,75.9291639 L62.8823821,71.6782137 L55.4885142,58.9106198 L48.370684,63.1763132 C45.7433962,60.7731749 41.8887264,58.9106198 39.4241038,57.8245389 L39.4241038,49.3226384 L24.6363679,49.3226384 L24.6363679,57.8245389 C19.7071226,58.9155342 17.7206368,60.7731749 15.0982783,63.1812276 L7.53188679,58.9106198 L0.069009434,71.6782137 L7.4234434,75.9291639 C6.66433962,79.379068 6.58054245,82.8633729 7.40865566,86.5983118 L0,90.8541764 L7.38893868,103.62177 L15.0933491,99.3609912 C17.7206368,101.759215 19.7071226,103.62177 24.6363679,104.712766 L24.6363679,113.209752 L39.4241038,113.209752 L39.4241038,104.712766 C41.8887264,103.62177 45.7433962,101.759215 48.3805425,99.3609912 L55.4885142,103.62177 Z" id="Stroke-5" stroke="#FFFFFF" stroke-width="2.5" stroke-linejoin="round"></path>
                    <path d="M38.7169811,81.4895765 C38.7169811,85.4353876 35.5084906,88.637785 31.5471698,88.637785 C27.5930189,88.637785 24.3773585,85.4353876 24.3773585,81.4895765 C24.3773585,77.5437655 27.5930189,74.3413681 31.5471698,74.3413681 C35.5084906,74.3413681 38.7169811,77.5437655 38.7169811,81.4895765 Z" id="Stroke-7" fill="#FFFFFF" fill-rule="nonzero"></path>
                </g>
            </g>
        </g>
    </g>
</svg>