<?xml version="1.0" encoding="UTF-8"?>
<svg width="150px" height="145px" viewBox="0 0 150 145" version="1.1" xmlns="http://www.w3.org/2000/svg" xmlns:xlink="http://www.w3.org/1999/xlink">
    <!-- Generator: Sketch 49.2 (51160) - http://www.bohemiancoding.com/sketch -->
    <title>icon</title>
    <desc>Created with Sketch.</desc>
    <defs></defs>
    <g id="projects" stroke="none" stroke-width="1" fill="none" fill-rule="evenodd">
        <g id="project-allpro@2x" transform="translate(-560.000000, -19066.000000)">
            <g id="devel" transform="translate(0.000000, 18061.000000)">
                <g id="icon" transform="translate(634.500000, 1078.000000) rotate(90.000000) translate(-634.500000, -1078.000000) translate(563.500000, 1004.500000)">
                    <path d="M132.085799,70.2515769 L141.651898,53.7330144 L132.085799,48.2268269 C133.074296,43.7379489 133.150825,39.2299963 132.079421,34.4232091 L141.651898,28.9233798 L132.085799,12.4048173 L122.876834,17.9237212 C119.484058,14.8145691 114.490554,12.4048173 111.301854,10.9996586 L111.301854,0 L92.1696556,0 L92.1696556,10.9996586 C85.7922562,12.4111755 83.2221642,14.8145691 79.8293877,17.9300794 L70.0400795,12.4048173 L60.3846967,28.9233798 L69.8997767,34.4232091 C68.9176572,38.8866544 68.8092414,43.394607 69.8806445,48.2268269 L60.2954131,53.7330144 L69.8551349,70.2515769 L79.8230103,64.7390312 C83.2221642,67.8418251 85.7922562,70.2515769 92.1696556,71.6630938 L92.1696556,82.6563942 L111.301854,82.6563942 L111.301854,71.6630938 C114.490554,70.2515769 119.484058,67.8418251 122.889589,64.7390312 L132.085799,70.2515769 Z" id="Stroke-1" stroke="#FFFFFF" stroke-width="2.5" stroke-linejoin="round"></path>
                    <path d="M110.386987,41.6172055 C110.386987,46.7222494 106.23588,50.8654734 101.11077,50.8654734 C95.9949358,50.8654734 91.8345523,46.7222494 91.8345523,41.6172055 C91.8345523,36.5121616 95.9949358,32.3689376 101.11077,32.3689376 C106.23588,32.3689376 110.386987,36.5121616 110.386987,41.6172055 Z" id="Stroke-3" fill="#FFFFFF" fill-rule="nonzero"></path>
                    <path d="M71.7903858,134.064625 L81.356485,117.546063 L71.7903858,112.039875 C72.7788827,107.550997 72.8554115,103.043045 71.7840084,98.2362575 L81.356485,92.7364282 L71.7903858,76.2178657 L62.5814209,81.7367696 C59.182267,78.6276175 54.1951406,76.2178657 51.0064409,74.812707 L51.0064409,63.8130484 L31.8742425,63.8130484 L31.8742425,74.812707 C25.4968431,76.2242239 22.9267511,78.6276175 19.5339746,81.7431278 L9.74466638,76.2178657 L0.0892835925,92.7364282 L9.60436359,98.2362575 C8.62224407,102.699703 8.51382828,107.207655 9.58523139,112.039875 L0,117.546063 L9.5597218,134.064625 L19.5275972,128.55208 C22.9267511,131.654874 25.4968431,134.064625 31.8742425,135.476142 L31.8742425,146.469443 L51.0064409,146.469443 L51.0064409,135.476142 C54.1951406,134.064625 59.182267,131.654874 62.5941757,128.55208 L71.7903858,134.064625 Z" id="Stroke-5" stroke="#FFFFFF" stroke-width="2.5" stroke-linejoin="round"></path>
                    <path d="M50.091574,105.430254 C50.091574,110.535298 45.9404667,114.678522 40.8153566,114.678522 C35.6995227,114.678522 31.5391392,110.535298 31.5391392,105.430254 C31.5391392,100.32521 35.6995227,96.181986 40.8153566,96.181986 C45.9404667,96.181986 50.091574,100.32521 50.091574,105.430254 Z" id="Stroke-7" fill="#FFFFFF" fill-rule="nonzero"></path>
                </g>
            </g>
        </g>
    </g>
</svg>